<svg xmlns="http://www.w3.org/2000/svg" viewBox="0 0 406.5 74.9"><title>Asset 4</title><g id="Layer_2" data-name="Layer 2"><g id="Layer_1-2" data-name="Layer 1"><path d="M9.8,15.1H34.2c13.4,0,20.6,7.1,20.6,17.2,0,8.3-5,13.7-10.8,15.3,5,1.4,13.3,6.3,13.3,17.3,0,14-10.5,20.2-22.7,20.2H9.8ZM32.4,45.2c12.1,0,16.7-4.5,16.7-12.6,0-6.9-4.8-12.5-14.6-12.5H15.1V45.2ZM15.1,80.1H34.8c9.2,0,16.9-4.6,16.9-14.9,0-8.9-5.7-15-19.8-15H15.1Z" transform="translate(-9.8 -11.4)"/><path d="M105.2,75.6a57.15,57.15,0,0,0,.7,9.5h-4.8c-.4-1.2-.7-3.4-.9-7.7-1.7,3.7-6.1,8.9-16.4,8.9-11.6,0-16.6-7.5-16.6-15,0-11,8.5-16,23.5-16h9.5V50.2c0-5-1.5-11.7-12.9-11.7-10.1,0-11.6,5.3-12.7,9.4h-5c.6-5.5,4-14,17.8-14,11.4,0,17.8,4.8,17.8,15.8Zm-4.9-16H90.5c-11.1,0-18,2.9-18,11.5,0,6.3,4.5,10.6,11.5,10.6,14.3,0,16.3-9.5,16.3-20.3Z" transform="translate(-9.8 -11.4)"/><path d="M121.7,48.7c0-8.4-.1-12-.1-13.6h4.9c.1,1.6.2,4.8.2,11.2a18.94,18.94,0,0,1,17.4-12.4v5.4c-10.4.7-17.4,7.9-17.4,19.8v26h-5Z" transform="translate(-9.8 -11.4)"/><path d="M190.1,70.4c-2.4,8.8-8.2,15.9-19.4,15.9-12.5,0-21.4-9.3-21.4-26,0-13.7,7.3-26.4,22-26.4,12.7,0,17.9,9,18.8,16H185c-1.5-5.8-5.3-11.3-13.8-11.3-10.6,0-16.6,9-16.6,21.5,0,11.9,5.6,21.5,16.1,21.5,7.3,0,11.7-3.7,14.3-11.2Z" transform="translate(-9.8 -11.4)"/><path d="M203.3,60.7c.1,12.9,6.6,20.9,16.2,20.9,9.4,0,12.6-5.3,14.4-9.4H239c-2.1,6.6-7.4,14.1-19.7,14.1-15.2,0-21.1-13.1-21.1-25.8,0-14.3,7.1-26.6,21.7-26.6,15.4,0,20.3,13.3,20.3,22.7,0,1.4,0,2.8-.1,4.1ZM235,56.3c-.1-9.9-5.5-17.7-15.3-17.7-10.3,0-15,7.2-16.1,17.7Z" transform="translate(-9.8 -11.4)"/><path d="M252.8,85.1V11.4h5V85.1Z" transform="translate(-9.8 -11.4)"/><path d="M314.7,60c0,13.9-7.7,26.3-22.6,26.3-13.5,0-21.9-11.1-21.9-26.2,0-14.3,7.9-26.2,22.4-26.2C305.9,33.9,314.7,44.3,314.7,60Zm-39.2.1c0,11.9,6.4,21.5,17,21.5,10.8,0,16.9-8.9,16.9-21.5,0-11.8-6-21.5-17.1-21.5C280.9,38.6,275.5,48.1,275.5,60.1Z" transform="translate(-9.8 -11.4)"/><path d="M327.1,47.7c0-4.4,0-8.6-.1-12.6h4.9c.2,1.6.3,8.1.2,9.5,2.2-5.1,6.3-10.7,16.6-10.7,8.9,0,16.8,5,16.8,18.8V85.1h-5V53.5c0-8.9-3.7-14.7-12.4-14.7-11.9,0-16,9.9-16,20.8V85.1h-5Z" transform="translate(-9.8 -11.4)"/><path d="M415.6,75.6a57.15,57.15,0,0,0,.7,9.5h-4.8c-.4-1.2-.7-3.4-.9-7.7-1.7,3.7-6.1,8.9-16.4,8.9-11.61,0-16.61-7.5-16.61-15,0-11,8.5-16,23.51-16h9.5V50.2c0-5-1.5-11.7-12.9-11.7-10.11,0-11.61,5.3-12.71,9.4h-5c.6-5.5,4-14,17.8-14,11.41,0,17.81,4.8,17.81,15.8Zm-4.9-16h-9.8c-11.11,0-18,2.9-18,11.5,0,6.3,4.5,10.6,11.51,10.6,14.3,0,16.3-9.5,16.3-20.3Z" transform="translate(-9.8 -11.4)"/></g></g></svg>