<svg xmlns="http://www.w3.org/2000/svg" viewBox="0 0 280.1 74.9"><title>Asset 3</title><g id="Layer_2" data-name="Layer 2"><g id="Layer_1-2" data-name="Layer 1"><path d="M70.4,52.9c0-13.7.1-26.8.4-33.8h-.3c-2.8,9.4-17,43.9-25.9,66H39.3C32.6,68,17.9,29.6,14.7,19h-.2c.5,8,.7,24.3.7,36.3V85.1H9.8v-70h8.1c9.6,24,21.7,55.4,24.3,63.3h.2C44,73.3,58,38.4,67.8,15.1h8v70H70.4Z" transform="translate(-9.8 -11.4)"/><path d="M126.7,75.6a57.15,57.15,0,0,0,.7,9.5h-4.8c-.4-1.2-.7-3.4-.9-7.7-1.7,3.7-6.1,8.9-16.4,8.9-11.6,0-16.6-7.5-16.6-15,0-11,8.5-16,23.5-16h9.5V50.2c0-5-1.5-11.7-12.9-11.7-10.1,0-11.6,5.3-12.7,9.4h-5c.6-5.5,4-14,17.8-14,11.4,0,17.8,4.8,17.8,15.8Zm-4.9-16H112c-11.1,0-18,2.9-18,11.5,0,6.3,4.5,10.6,11.5,10.6,14.3,0,16.3-9.5,16.3-20.3Z" transform="translate(-9.8 -11.4)"/><path d="M181.8,11.4V70.7c0,4.8,0,9.4.1,14.4h-4.8c-.2-1.2-.3-5.9-.3-8.4-2.5,6.1-8.1,9.6-16.8,9.6-13,0-20.8-10.6-20.8-25.6,0-15.4,8.5-26.8,22.1-26.8,10,0,14,4.3,15.5,7.5v-30ZM144.5,60.5c0,13.7,7.1,21.1,15.7,21.1,13.2,0,16.8-9.1,16.8-22.7,0-12.9-3.1-20.3-15.9-20.3C151.2,38.6,144.5,46.5,144.5,60.5Z" transform="translate(-9.8 -11.4)"/><path d="M198.2,48.7c0-8.4-.1-12-.1-13.6H203c.1,1.6.2,4.8.2,11.2a18.94,18.94,0,0,1,17.4-12.4v5.4c-10.4.7-17.4,7.9-17.4,19.8v26h-5Z" transform="translate(-9.8 -11.4)"/><path d="M229.8,11.4h5v9.7h-5Zm0,23.7h5v50h-5Z" transform="translate(-9.8 -11.4)"/><path d="M289.8,11.4V70.7c0,4.8,0,9.4.1,14.4h-4.8c-.2-1.2-.3-5.9-.3-8.4-2.5,6.1-8.1,9.6-16.8,9.6-13,0-20.8-10.6-20.8-25.6,0-15.4,8.5-26.8,22.1-26.8,10,0,14,4.3,15.5,7.5v-30ZM252.5,60.5c0,13.7,7.1,21.1,15.7,21.1,13.2,0,16.8-9.1,16.8-22.7,0-12.9-3.1-20.3-15.9-20.3C259.2,38.6,252.5,46.5,252.5,60.5Z" transform="translate(-9.8 -11.4)"/></g></g></svg>