<svg xmlns="http://www.w3.org/2000/svg" viewBox="0 0 211.2 71.2"><title>Asset 5</title><g id="Layer_2" data-name="Layer 2"><g id="Layer_1-2" data-name="Layer 1"><path d="M50.9,50.7H15.2V80.1H54.3l-.8,5H9.8v-70H52.7v5H15.2V45.7H50.9Z" transform="translate(-9.8 -15.1)"/><path d="M65.6,47.7c0-4.4,0-8.6-.1-12.6h4.9c.2,1.6.3,8.1.2,9.5,2.2-5.1,6.3-10.7,16.6-10.7,8.9,0,16.8,5,16.8,18.8V85.1H99V53.5c0-8.9-3.7-14.7-12.4-14.7-11.9,0-16,9.9-16,20.8V85.1h-5Z" transform="translate(-9.8 -15.1)"/><path d="M112.6,35.1h9.3V19.5h5V35.1h11.9v4.7H126.9V72.3c0,5.6,1.2,8.8,6,8.8a18.9,18.9,0,0,0,5.2-.6v4.4a17.56,17.56,0,0,1-6.2.9c-6.4,0-10-3.2-10-11.2V39.8h-9.3Z" transform="translate(-9.8 -15.1)"/><path d="M149.5,60.7c.1,12.9,6.6,20.9,16.2,20.9,9.4,0,12.6-5.3,14.4-9.4h5.1c-2.1,6.6-7.4,14.1-19.7,14.1-15.2,0-21.1-13.1-21.1-25.8,0-14.3,7.1-26.6,21.7-26.6,15.4,0,20.3,13.3,20.3,22.7,0,1.4,0,2.8-.1,4.1Zm31.7-4.4c-.1-9.9-5.5-17.7-15.3-17.7-10.3,0-15,7.2-16.1,17.7Z" transform="translate(-9.8 -15.1)"/><path d="M198.6,48.7c0-8.4-.1-12-.1-13.6h4.9c.1,1.6.2,4.8.2,11.2A18.94,18.94,0,0,1,221,33.9v5.4c-10.4.7-17.4,7.9-17.4,19.8v26h-5Z" transform="translate(-9.8 -15.1)"/></g></g></svg>