<svg xmlns="http://www.w3.org/2000/svg" viewBox="0 0 485.42 357.46"><defs><style>.cls-1{fill:none;stroke:#000;stroke-miterlimit:10;}</style></defs><title>Asset 1</title><g id="Layer_2" data-name="Layer 2"><g id="Layer_1-2" data-name="Layer 1"><path class="cls-1" d="M188.63,202.08l60,151.3C366.2,374.67,469.93,298,483.41,205.55,499.69,93.94,380.51-13.88,293,2.08,239.34,11.86,181.74,71,192.11,127.29c12.72,69,122.66,106.47,157.39,77.4,31.7-26.54,14-119.6-18.26-128.7-24.54-6.92-68,31.8-61.74,59.13,4.46,19.44,34.46,34.89,47,27,11.47-7.28,7.7-34,4.35-45.22C298.78,42.78,98.43-26.79,26.89,57.73-12.67,104.47-6.83,191.22,38.2,268.16"/></g></g></svg>