<svg xmlns="http://www.w3.org/2000/svg" viewBox="0 0 390.4 298.71"><title>title</title><g id="Layer_2" data-name="Layer 2"><g id="Layer_1-2" data-name="Layer 1"><path d="M22,85.1,2.6,15.1H8.2c4.7,16.8,15.3,55.5,16.9,63.7h.1C26.5,72.3,38,33.6,42.9,15.1h6c4.6,17.1,15.8,58.2,16.9,63.6h.1c2.2-9.9,13.9-46.9,18.7-63.6h5.51L68.7,85.1H62.5c-4.6-16.5-15.5-57-16.7-63h-.1c-1.8,9.1-12.6,45.6-17.6,63Z" transform="translate(-0.7 -11.4)"/><path d="M97.5,60.7c.1,12.9,6.6,20.9,16.2,20.9,9.4,0,12.6-5.3,14.4-9.4h5.1c-2.1,6.6-7.4,14.1-19.7,14.1-15.2,0-21.1-13.1-21.1-25.8,0-14.3,7.1-26.6,21.7-26.6,15.4,0,20.3,13.3,20.3,22.7,0,1.4,0,2.8-.1,4.1Zm31.7-4.4c-.1-9.9-5.5-17.7-15.3-17.7-10.3,0-15,7.2-16.1,17.7Z" transform="translate(-0.7 -11.4)"/><path d="M147,85.1V11.4h5V85.1Z" transform="translate(-0.7 -11.4)"/><path d="M205.2,70.4c-2.4,8.8-8.2,15.9-19.4,15.9-12.5,0-21.4-9.3-21.4-26,0-13.7,7.3-26.4,22-26.4,12.7,0,17.9,9,18.8,16h-5.1c-1.5-5.8-5.3-11.3-13.8-11.3-10.6,0-16.6,9-16.6,21.5,0,11.9,5.6,21.5,16.1,21.5,7.3,0,11.7-3.7,14.3-11.2Z" transform="translate(-0.7 -11.4)"/><path d="M257.8,60c0,13.9-7.7,26.3-22.6,26.3-13.5,0-21.9-11.1-21.9-26.2,0-14.3,7.9-26.2,22.4-26.2C249,33.9,257.8,44.3,257.8,60Zm-39.2.1c0,11.9,6.4,21.5,17,21.5,10.8,0,16.9-8.9,16.9-21.5,0-11.8-6-21.5-17.1-21.5C224,38.6,218.6,48.1,218.6,60.1Z" transform="translate(-0.7 -11.4)"/><path d="M270.2,48c0-4.3,0-9-.1-12.9H275c.1,1.7.3,6,.2,8.9,2.1-5,6.7-10.1,15-10.1,7,0,12.5,3.5,14.5,9.9,2.5-5.2,7.5-9.9,16.3-9.9,7.7,0,15.7,4.4,15.7,18.3V85.1h-5V52.8c0-6.7-2.4-14-11.7-14-9.7,0-14.1,7.8-14.1,17.5V85.1H301V52.9c0-7.3-2.2-14.1-11.4-14.1-9.7,0-14.4,8.6-14.4,18.8V85.1h-5Z" transform="translate(-0.7 -11.4)"/><path d="M354.2,60.7c.09,12.9,6.6,20.9,16.2,20.9,9.4,0,12.6-5.3,14.4-9.4h5.1c-2.1,6.6-7.4,14.1-19.7,14.1-15.2,0-21.11-13.1-21.11-25.8,0-14.3,7.11-26.6,21.71-26.6,15.4,0,20.3,13.3,20.3,22.7,0,1.4,0,2.8-.1,4.1Zm31.7-4.4c-.1-9.9-5.5-17.7-15.3-17.7-10.3,0-15,7.2-16.1,17.7Z" transform="translate(-0.7 -11.4)"/><path d="M.7,133.1H10V117.5h5v15.6H26.9v4.7H15v32.5c0,5.6,1.2,8.8,6,8.8a18.9,18.9,0,0,0,5.2-.6v4.4a17.56,17.56,0,0,1-6.2.9c-6.4,0-10-3.2-10-11.2V137.8H.7Z" transform="translate(-0.7 -11.4)"/><path d="M77,158c0,13.9-7.7,26.3-22.6,26.3-13.5,0-21.9-11.1-21.9-26.2,0-14.3,7.9-26.2,22.4-26.2C68.2,131.9,77,142.3,77,158Zm-39.2.1c0,11.9,6.4,21.5,17,21.5,10.8,0,16.9-8.9,16.9-21.5,0-11.8-6-21.5-17.1-21.5C43.2,136.6,37.8,146.1,37.8,158.1Z" transform="translate(-0.7 -11.4)"/><path d="M10.3,271.3c2.1,9.3,8.3,14.8,19.8,14.8,12.8,0,17.7-6.4,17.7-14,0-7.9-3.5-12.8-18.9-16.6C14.1,251.8,7.7,247,7.7,236.9c0-9.2,6.7-17.8,21.7-17.8,15.4,0,21.9,9.4,22.8,17.9H46.6c-1.6-7.5-6.5-12.9-17.5-12.9-10.1,0-15.6,4.7-15.6,12.5s4.6,10.7,17.5,13.9c19.7,4.9,22.6,12.8,22.6,21.2,0,10.3-7.5,19.2-23.7,19.2-17.5,0-23.9-10.2-25.2-19.6Z" transform="translate(-0.7 -11.4)"/><path d="M70.7,282.7v27.4h-5V252.4c0-4.1,0-8.5-.1-12.3h4.9c.2,1.9.2,4.9.2,9,3.1-6,8.6-10.2,17.6-10.2,11.8,0,20,9.9,20,24.9,0,18-9.6,27.5-21.7,27.5C77.8,291.3,73.2,287.4,70.7,282.7ZM103,264c0-11.6-5.6-20.3-15.5-20.3-12.1,0-17.1,7.6-17.1,21.2,0,13.4,3.9,21.7,16.4,21.7C97.2,286.6,103,277.8,103,264Z" transform="translate(-0.7 -11.4)"/><path d="M155.1,280.6a57.15,57.15,0,0,0,.7,9.5H151c-.4-1.2-.7-3.4-.9-7.7-1.7,3.7-6.1,8.9-16.4,8.9-11.6,0-16.6-7.5-16.6-15,0-11,8.5-16,23.5-16h9.5v-5.1c0-5-1.5-11.7-12.9-11.7-10.1,0-11.6,5.3-12.7,9.4h-5c.6-5.5,4-14,17.8-14,11.4,0,17.8,4.8,17.8,15.8Zm-4.9-16h-9.8c-11.1,0-18,2.9-18,11.5,0,6.3,4.5,10.6,11.5,10.6,14.3,0,16.3-9.5,16.3-20.3Z" transform="translate(-0.7 -11.4)"/><path d="M171.6,216.4h5v9.7h-5Zm0,23.7h5v50h-5Z" transform="translate(-0.7 -11.4)"/><path d="M193,252.7c0-4.4,0-8.6-.1-12.6h4.9c.2,1.6.3,8.1.2,9.5,2.2-5.1,6.3-10.7,16.6-10.7,8.9,0,16.8,5,16.8,18.8v32.4h-5V258.5c0-8.9-3.7-14.7-12.4-14.7-11.9,0-16,9.9-16,20.8v25.5h-5Z" transform="translate(-0.7 -11.4)"/></g></g></svg>