<?xml version="1.0" encoding="iso-8859-1"?>
<!-- Generator: Adobe Illustrator 19.0.0, SVG Export Plug-In . SVG Version: 6.00 Build 0)  -->
<svg version="1.1" id="Capa_1" xmlns="http://www.w3.org/2000/svg" xmlns:xlink="http://www.w3.org/1999/xlink" x="0px" y="0px"
	 viewBox="0 0 512.001 512.001" style="enable-background:new 0 0 512.001 512.001;" xml:space="preserve">
<g>
	<rect x="174.613" y="159.378" style="fill:#E0E0E3;" width="162.774" height="67.808"/>
	<path style="fill:#E0E0E3;" d="M100.033,189.866v-6.13c0-4.518-3.663-8.182-8.182-8.182c-4.518,0-8.182,3.663-8.182,8.182v6.13
		c-3.403-2.492-8.201-1.999-11.009,1.247c-2.957,3.417-2.585,8.583,0.831,11.54l13.005,11.257c3.026,2.622,7.682,2.615,10.709,0
		l13.005-11.257c3.417-2.957,3.788-8.124,0.831-11.54C108.233,187.868,103.435,187.374,100.033,189.866z"/>
	<path style="fill:#E0E0E3;" d="M428.339,189.865v-6.13c0-4.518-3.662-8.182-8.182-8.182s-8.182,3.663-8.182,8.182v6.13
		c-3.4-2.491-8.2-1.999-11.01,1.246c-2.957,3.417-2.584,8.584,0.832,11.541l13.005,11.257c3.018,2.625,7.689,2.614,10.709-0.001
		l13.003-11.257c3.417-2.957,3.789-8.124,0.832-11.54C436.538,187.867,431.739,187.374,428.339,189.865z"/>
	<path style="fill:#E0E0E3;" d="M501.176,191.112c-2.81-3.245-7.608-3.738-11.009-1.247v-6.13c0-4.518-3.662-8.182-8.182-8.182
		s-8.182,3.663-8.182,8.182v6.13c-3.4-2.49-8.198-1.999-11.009,1.247c-2.957,3.417-2.584,8.583,0.832,11.54l13.003,11.257
		c3.024,2.618,7.686,2.62,10.71,0l13.003-11.257C503.761,199.695,504.134,194.529,501.176,191.112
		C498.368,187.867,504.134,194.529,501.176,191.112z"/>
	<path style="fill:#E0E0E3;" d="M37.719,191.086v-6.13c0-4.518-3.663-8.182-8.182-8.182s-8.182,3.663-8.182,8.182v6.13
		c-3.401-2.49-8.2-1.997-11.009,1.247c-2.957,3.417-2.585,8.584,0.832,11.541l13.005,11.257c3.021,2.619,7.687,2.62,10.708,0
		l13.005-11.257c3.417-2.957,3.789-8.124,0.832-11.541C45.919,189.089,41.121,188.594,37.719,191.086z"/>
</g>
<g>
	<path style="fill:#BFBFBF;" d="M321.359,157.171c-2.519,0-5.005-1.16-6.607-3.348l-34.902-47.657
		c-2.67-3.646-1.879-8.766,1.766-11.434c3.646-2.67,8.765-1.879,11.434,1.766l34.902,47.657c2.67,3.646,1.879,8.765-1.766,11.434
		C324.73,156.656,323.037,157.171,321.359,157.171z"/>
	<path style="fill:#BFBFBF;" d="M190.641,157.171c-1.678,0-3.371-0.514-4.827-1.581c-3.646-2.67-4.437-7.789-1.767-11.434
		l34.902-47.657c2.67-3.646,7.791-4.436,11.434-1.767c3.646,2.67,4.437,7.789,1.767,11.434l-34.902,47.657
		C195.645,156.011,193.16,157.171,190.641,157.171z"/>
</g>
<g>
	<path style="fill:#CCCCCC;" d="M198.549,218.998c-4.518,0-8.182-3.663-8.182-8.182v-54.108c0-4.518,3.663-8.182,8.182-8.182
		s8.182,3.663,8.182,8.182v54.108C206.73,215.335,203.067,218.998,198.549,218.998z"/>
	<path style="fill:#CCCCCC;" d="M313.458,218.998c-4.519,0-8.182-3.663-8.182-8.182v-54.108c0-4.518,3.662-8.182,8.182-8.182
		s8.182,3.663,8.182,8.182v54.108C321.64,215.335,317.977,218.998,313.458,218.998z"/>
	<rect x="174.613" y="159.378" style="fill:#CCCCCC;" width="162.774" height="15.694"/>
	<rect x="174.613" y="202.972" style="fill:#CCCCCC;" width="162.774" height="15.694"/>
	<path style="fill:#CCCCCC;" d="M292.662,218.998c-4.519,0-8.182-3.663-8.182-8.182v-54.108c0-4.518,3.662-8.182,8.182-8.182
		s8.182,3.663,8.182,8.182v54.108C300.843,215.335,297.181,218.998,292.662,218.998z"/>
	<path style="fill:#CCCCCC;" d="M219.345,218.998c-4.518,0-8.182-3.663-8.182-8.182v-54.108c0-4.518,3.663-8.182,8.182-8.182
		s8.182,3.663,8.182,8.182v54.108C227.527,215.335,223.863,218.998,219.345,218.998z"/>
</g>
<path style="fill:#E0E0E3;" d="M337.383,159.37c-3.252-24.368-38.431-43.559-81.383-43.559s-78.13,19.191-81.383,43.559H337.383z"/>
<path style="fill:#BFBFBF;" d="M318.431,175.076H193.406c-3.552,0-6.698-2.291-7.788-5.672c-1.089-3.38,0.127-7.078,3.011-9.152
	l62.513-44.952c2.853-2.052,6.698-2.052,9.552,0l62.513,44.952c2.884,2.073,4.099,5.771,3.01,9.152
	C325.129,172.784,321.983,175.076,318.431,175.076z M218.797,158.713h74.243l-37.122-26.693L218.797,158.713z"/>
<path style="fill:#E0E0E3;" d="M505.043,297.334H6.985v-81.063c0-3.012,2.442-5.454,5.454-5.454h487.15
	c3.012,0,5.454,2.442,5.454,5.454v81.063H505.043z"/>
<g>
	<path style="fill:#BFBFBF;" d="M179.132,288.647c-4.518,0-8.182-3.663-8.182-8.182v-27.281c0-4.518,3.663-8.182,8.182-8.182
		s8.182,3.663,8.182,8.182v27.281C187.314,284.985,183.651,288.647,179.132,288.647z"/>
	<path style="fill:#BFBFBF;" d="M332.876,288.647c-4.519,0-8.182-3.663-8.182-8.182v-27.281c0-4.518,3.662-8.182,8.182-8.182
		s8.182,3.663,8.182,8.182v27.281C341.056,284.985,337.394,288.647,332.876,288.647z"/>
	<path style="fill:#BFBFBF;" d="M505.043,266.825H6.985v-50.554c0-3.012,2.442-5.454,5.454-5.454h487.15
		c3.012,0,5.454,2.442,5.454,5.454v50.554H505.043z"/>
</g>
<g>
	<path style="fill:#E0E0E3;" d="M505.768,253.184l5.722-12.355c1.674-3.614-0.966-7.747-4.95-7.747H5.461
		c-3.983,0-6.624,4.132-4.95,7.747l5.722,12.355H505.768z"/>
	<path style="fill:#E0E0E3;" d="M6.985,280.466v111.609H31.24v-61.38h49.252v61.38h23.446v-66.579
		c0-15.936,12.564-29.36,28.495-29.686c8.279-0.169,15.79,3.119,21.196,8.523c5.263,5.263,8.522,12.54,8.522,20.576v88.485
		c0,3.012,2.442,5.454,5.454,5.454h53.849c3.012,0,5.454-2.442,5.454-5.454v-75.255c0-15.936,12.564-29.36,28.495-29.686
		c8.279-0.169,15.791,3.119,21.196,8.523c5.263,5.263,8.522,12.54,8.522,20.576v75.84c0,3.012,2.442,5.454,5.454,5.454h53.849
		c3.012,0,5.454-2.442,5.454-5.454v-87.898c0-15.936,12.564-29.36,28.495-29.686c8.279-0.169,15.79,3.119,21.196,8.523
		c5.263,5.263,8.522,12.54,8.522,20.576v67.163h23.446v-61.38h50.145v61.38h23.361V280.466H6.985z"/>
	<path style="fill:#E0E0E3;" d="M505.04,280.457v111.616h-23.356v-61.381h-50.147v61.381h-23.453v-58.076
		c0-8.029-3.251-15.305-8.519-20.573c-5.399-5.399-12.906-8.69-21.181-8.524c-15.937,0.319-28.507,13.745-28.507,29.685v78.805
		c0,3.012-2.442,5.454-5.454,5.454h-53.855c-3.012,0-5.454-2.442-5.454-5.454v-75.836c0-8.039-3.251-15.315-8.519-20.573
		c-5.268-5.28-12.545-8.531-20.585-8.531c-16.068,0-29.104,13.025-29.104,29.104v75.836c0,3.012-2.442,5.454-5.454,5.454h-53.845
		c-3.012,0-5.454-2.442-5.454-5.454v-79.391c0-8.029-3.261-15.305-8.531-20.573c-5.399-5.399-12.904-8.69-21.181-8.524
		c-15.937,0.319-28.508,13.745-28.508,29.684v57.49h-23.44v-61.381H31.242v61.381H6.981V280.459H505.04V280.457z"/>
</g>
<g>
	<path style="fill:#CCCCCC;" d="M162.155,384.993h64.752v28.395c0,3.012-2.442,5.454-5.454,5.454h-53.845
		c-3.012,0-5.454-2.442-5.454-5.454v-28.395H162.155z"/>
	<path style="fill:#CCCCCC;" d="M349.878,384.993v28.395c0,3.012-2.442,5.454-5.454,5.454h-53.855c-3.012,0-5.454-2.442-5.454-5.454
		v-28.395H349.878z"/>
</g>
<rect x="6.981" y="280.461" style="fill:#BFBFBF;" width="498.061" height="16.875"/>
<g>
	<path style="fill:#A5A5A5;" d="M140.458,281.461v5.312c0,4.516-3.654,8.182-8.182,8.182c-4.516,0-8.182-3.665-8.182-8.182v-5.312
		c0-0.339,0.022-0.676,0.066-1.004h16.231C140.436,280.784,140.458,281.123,140.458,281.461z"/>
	<path style="fill:#A5A5A5;" d="M387.905,281.461v5.312c0,4.516-3.665,8.182-8.182,8.182c-4.516,0-8.182-3.665-8.182-8.182v-5.312
		c0-0.339,0.022-0.676,0.066-1.004h16.231C387.884,280.784,387.905,281.123,387.905,281.461z"/>
</g>
<g>
	<rect x="6.985" y="280.472" style="fill:#CCCCCC;" width="24.252" height="117.948"/>
	<rect x="79.726" y="280.472" style="fill:#CCCCCC;" width="24.252" height="117.948"/>
	<rect x="480.768" y="280.472" style="fill:#CCCCCC;" width="24.252" height="117.948"/>
	<rect x="408.033" y="280.472" style="fill:#CCCCCC;" width="24.252" height="117.948"/>
	<rect x="325.528" y="280.472" style="fill:#CCCCCC;" width="24.252" height="117.948"/>
	<path style="fill:#CCCCCC;" d="M481.927,418.851h21.936c3.281,0,5.94-2.659,5.94-5.94v-14.895c0-3.281-2.659-5.94-5.94-5.94
		h-21.936c-3.281,0-5.94,2.659-5.94,5.94v14.895C475.987,416.19,478.647,418.851,481.927,418.851z"/>
</g>
<path style="fill:#E0E0E3;" d="M475.987,405.462h33.816v-7.447c0-3.281-2.659-5.94-5.94-5.94h-21.936c-3.281,0-5.94,2.659-5.94,5.94
	V405.462z"/>
<path style="fill:#CCCCCC;" d="M409.189,418.851h21.936c3.281,0,5.94-2.659,5.94-5.94v-15.381c0-3.012-2.442-5.454-5.454-5.454
	h-22.907c-3.012,0-5.454,2.442-5.454,5.454v15.381C403.248,416.19,405.908,418.851,409.189,418.851z"/>
<path style="fill:#E0E0E3;" d="M403.248,405.462h33.816v-7.934c0-3.012-2.442-5.454-5.454-5.454h-22.907
	c-3.012,0-5.454,2.442-5.454,5.454V405.462z"/>
<path style="fill:#CCCCCC;" d="M286.533,418.85h61.852c3.102,0,5.617-2.515,5.617-5.617v-15.704c0-3.012-2.442-5.454-5.454-5.454
	h-62.179c-3.012,0-5.454,2.442-5.454,5.454v15.704C280.916,416.334,283.431,418.85,286.533,418.85z"/>
<path style="fill:#E0E0E3;" d="M280.916,405.462h73.086v-7.934c0-3.012-2.442-5.454-5.454-5.454h-62.179
	c-3.012,0-5.454,2.442-5.454,5.454v7.934H280.916z"/>
<path style="fill:#CCCCCC;" d="M102.818,418.851H80.883c-3.281,0-5.94-2.659-5.94-5.94v-14.895c0-3.281,2.659-5.94,5.94-5.94h21.936
	c3.281,0,5.94,2.659,5.94,5.94v14.895C108.759,416.19,106.099,418.851,102.818,418.851z"/>
<path style="fill:#E0E0E3;" d="M74.943,405.462h33.816v-7.447c0-3.281-2.659-5.94-5.94-5.94H80.883c-3.281,0-5.94,2.659-5.94,5.94
	V405.462z"/>
<path style="fill:#CCCCCC;" d="M30.08,418.851H8.144c-3.281,0-5.94-2.659-5.94-5.94v-14.895c0-3.281,2.659-5.94,5.94-5.94H30.08
	c3.281,0,5.94,2.659,5.94,5.94v14.895C36.02,416.19,33.361,418.851,30.08,418.851z"/>
<path style="fill:#E0E0E3;" d="M2.204,405.462H36.02v-7.447c0-3.281-2.659-5.94-5.94-5.94H8.144c-3.281,0-5.94,2.659-5.94,5.94
	C2.204,398.015,2.204,405.462,2.204,405.462z"/>
<g>
	<rect x="162.221" y="280.472" style="fill:#CCCCCC;" width="24.252" height="117.948"/>
	<path style="fill:#CCCCCC;" d="M225.414,418.851h-61.767c-3.126,0-5.66-2.534-5.66-5.66v-15.662c0-3.012,2.442-5.454,5.454-5.454
		h62.179c3.012,0,5.454,2.442,5.454,5.454v15.662C231.074,416.317,228.54,418.851,225.414,418.851z"/>
</g>
<path style="fill:#E0E0E3;" d="M157.988,405.462h73.086v-7.934c0-3.012-2.442-5.454-5.454-5.454h-62.179
	c-3.012,0-5.454,2.442-5.454,5.454v7.934H157.988z"/>
<g>
	<path style="fill:#CCCCCC;" d="M213.959,280.457v64.48c0,4.516-3.665,8.182-8.182,8.182c-4.528,0-8.182-3.665-8.182-8.182v-64.48
		H213.959z"/>
	<path style="fill:#CCCCCC;" d="M312.298,280.457v64.48c0,4.516-3.665,8.182-8.182,8.182c-4.516,0-8.182-3.665-8.182-8.182v-64.48
		H312.298z"/>
</g>
<path style="fill:#E0E0E3;" d="M355.104,216.261v37.034c0,3.022-2.444,5.454-5.454,5.454H162.351c-3.01,0-5.454-2.433-5.454-5.454
	v-37.034c0-3.01,2.443-5.454,5.454-5.454h187.298C352.661,210.807,355.104,213.25,355.104,216.261z"/>
<path style="fill:#CCCCCC;" d="M355.104,237.838v15.457c0,3.022-2.444,5.454-5.454,5.454H162.351c-3.01,0-5.454-2.433-5.454-5.454
	v-15.457H355.104z"/>
<path style="fill:#A5A5A5;" d="M263.549,281.461v5.312c0,4.516-3.665,8.182-8.182,8.182c-4.516,0-8.182-3.665-8.182-8.182v-5.312
	c0-0.339,0.022-0.676,0.066-1.004h16.231C263.527,280.784,263.549,281.123,263.549,281.461z"/>
<g>
</g>
<g>
</g>
<g>
</g>
<g>
</g>
<g>
</g>
<g>
</g>
<g>
</g>
<g>
</g>
<g>
</g>
<g>
</g>
<g>
</g>
<g>
</g>
<g>
</g>
<g>
</g>
<g>
</g>
</svg>
