<svg height="481pt" viewBox="0 -6 481.158 481" width="481pt" xmlns="http://www.w3.org/2000/svg"><path d="m364.285156 364.085938h25.753906c3.699219 0 6.664063-3.164063 6.546876-6.984376l-7.640626-243.289062h-23.566406l-7.640625 243.289062c-.117187 3.820313 2.847657 6.984376 6.546875 6.984376zm0 0" fill="#ffdf74"/><path d="m377.382812 357.101562 7.636719-243.289062h-19.640625l-7.636718 243.289062c-.121094 3.820313 2.84375 6.984376 6.542968 6.984376h19.640625c-3.699219 0-6.664062-3.164063-6.542969-6.984376zm0 0" fill="#ffd551"/><path d="m358.402344 336.058594h37.523437l-.640625-20.292969h-36.246094zm0 0" fill="#eacf32"/><path d="m359.675781 295.472656h34.972657l-.636719-20.292968h-33.699219zm0 0" fill="#eacf32"/><path d="m360.949219 254.886719h32.425781l-.636719-20.289063h-31.148437zm0 0" fill="#eacf32"/><path d="m362.222656 214.304688h29.878906l-.636718-20.292969h-28.601563zm0 0" fill="#eacf32"/><path d="m359.039062 315.765625-.332031 10.59375-.304687 9.699219h19.640625l.636719-20.292969zm0 0" fill="#ccc033"/><path d="m360.3125 275.179688-.066406 2.078124-.570313 18.214844h19.640625l.636719-20.292968zm0 0" fill="#ccc033"/><path d="m361.589844 234.597656-.144532 4.535156-.496093 15.753907h19.640625l.636718-20.289063zm0 0" fill="#ccc033"/><path d="m362.863281 194.011719-.332031 10.539062-.308594 9.753907h19.640625l.640625-20.292969zm0 0" fill="#ccc033"/><path d="m375.5625 124.175781c6.199219-22.773437-7.285156-50.777343-33.503906-66.414062-26.21875-15.640625-56.433594-13.703125-72.421875 3.230469zm0 0" fill="#ccc033"/><path d="m362.070312 99.023438c-2.203124 0-4.328124-1.222657-5.375-3.328126-4.6875-9.425781-12.753906-17.886718-22.710937-23.828124-2.847656-1.699219-3.777344-5.382813-2.078125-8.226563 1.695312-2.847656 5.375-3.777344 8.226562-2.078125 11.90625 7.101562 21.605469 17.324219 27.308594 28.785156 1.472656 2.964844.265625 6.566406-2.703125 8.042969-.859375.429687-1.769531.632813-2.667969.632813zm0 0" fill="#eacf32"/><path d="m299.660156 60.988281c5.503906-5.828125 12.695313-9.878906 20.828125-12.046875-19.808593-4.695312-39.140625-.347656-50.851562 12.046875l105.925781 63.1875c1.5-5.523437 1.835938-11.351562 1.125-17.234375zm0 0" fill="#99af17"/><path d="m300.886719 120.992188c-25.128907 17-36.644531 45.613281-28.828125 67.941406l23.53125-15.921875-2.855469-22.285157 17.394531 12.453126 63.464844-42.9375c-17.199219-15.976563-47.574219-16.253907-72.707031.75zm0 0" fill="#ccc033"/><path d="m408.476562 57.761719c26.21875-15.640625 56.429688-13.703125 72.417969 3.226562l-24.546875 14.644531-18.195312-12.359374 3.027344 21.410156-66.207032 39.492187c-6.199218-22.773437 7.285156-50.777343 33.503906-66.414062zm0 0" fill="#ccc033"/><path d="m317.792969 118.9375c7.542969-5.101562 15.558593-8.636719 23.546875-10.671875-13.199219-.1875-27.519532 3.976563-40.453125 12.722656-25.128907 17.003907-36.644531 45.617188-28.828125 67.941407l14.960937-10.121094c-2.980469-20.792969 8.582031-44.859375 30.773438-59.871094zm0 0" fill="#99af17"/><path d="m428.488281 57.761719c8.71875-5.203125 17.875-8.449219 26.808594-9.855469-14.507813-2.472656-31.359375.628906-46.820313 9.855469-26.21875 15.636719-39.703124 43.640625-33.503906 66.414062l18.523438-11.050781c-.15625-20.214844 12.894531-42.179688 34.992187-55.363281zm0 0" fill="#99af17"/><path d="m375.402344 119.53125c18.648437-14.261719 48.910156-11.628906 72.300781 7.699219s32.113281 48.910156 22.199219 70.386719zm0 0" fill="#ccc033"/><path d="m463.859375 185.242188c-1.34375 0-2.699219-.449219-3.820313-1.375l-40.113281-33.144532c-2.554687-2.109375-2.914062-5.894531-.800781-8.449218 2.109375-2.554688 5.890625-2.914063 8.445312-.800782l40.117188 33.144532c2.550781 2.109374 2.914062 5.890624.800781 8.445312-1.1875 1.4375-2.898437 2.179688-4.628906 2.179688zm0 0" fill="#eacf32"/><path d="m455.894531 149.769531c7.226563 5.972657 13.050781 12.925781 17.359375 20.316407-2.40625-15.320313-11.21875-31.011719-25.550781-42.855469-23.390625-19.328125-53.652344-21.960938-72.300781-7.699219l19.746094 16.3125c18.164062-6.464844 41.726562-1.789062 60.746093 13.925781zm0 0" fill="#99af17"/><path d="m385.097656 165.757812h-.15625c-10.550781 0-19.101562-8.554687-19.101562-19.105468v-1.429688c0-10.546875 8.550781-19.101562 19.101562-19.101562h.15625c10.546875 0 19.101563 8.550781 19.101563 19.101562v1.429688c0 10.550781-8.554688 19.105468-19.101563 19.105468zm0 0" fill="#f9bb32"/><path d="m361.734375 143.992188h-.152344c-10.550781 0-19.105469-8.550782-19.105469-19.105469v-1.425781c0-10.550782 8.554688-19.105469 19.105469-19.105469h.152344c10.550781 0 19.105469 8.550781 19.105469 19.105469v1.425781c0 10.554687-8.554688 19.105469-19.105469 19.105469zm0 0" fill="#f9bb32"/><path d="m359.15625 124.191406v-.035156c0-7.851562 4.425781-14.636719 10.839844-17.839844-2.515625-1.253906-5.339844-1.957031-8.320313-1.957031h-.035156c-10.582031 0-19.164063 8.863281-19.164063 19.796875v.035156c0 10.9375 8.582032 19.800782 19.164063 19.800782h.035156c2.980469 0 5.804688-.703126 8.320313-1.960938-6.414063-3.199219-10.839844-9.984375-10.839844-17.839844zm0 0" fill="#db9c2e"/><path d="m382.515625 145.957031v-.035156c0-7.855469 4.425781-14.640625 10.84375-17.839844-2.519531-1.257812-5.339844-1.960937-8.324219-1.960937h-.03125c-10.585937 0-19.164062 8.863281-19.164062 19.800781v.035156c0 10.933594 8.578125 19.800781 19.164062 19.800781h.03125c2.984375 0 5.808594-.707031 8.324219-1.960937-6.417969-3.199219-10.84375-9.988281-10.84375-17.839844zm0 0" fill="#db9c2e"/><path d="m473.15625 469.386719h-464.074219c-4.417969 0-8-3.582031-8-8v-97.300781c0-4.421876 3.582031-8 8-8h464.074219c4.417969 0 8 3.578124 8 8v97.300781c0 4.417969-3.582031 8-8 8zm0 0" fill="#f9bb32"/><path d="m45.082031 380.085938c0-4.421876 3.582031-8 8-8h428.074219v-8c0-4.421876-3.582031-8-8-8h-464.074219c-4.417969 0-8 3.578124-8 8v97.300781c0 4.417969 3.582031 8 8 8h36zm0 0" fill="#db9c2e"/><path d="m54.058594 121.023438h243.332031v224.144531h-243.332031zm0 0" fill="#ffdf74"/><path d="m281.390625 260.886719c-3.3125 0-6-2.683594-6-6v-60.875c0-3.3125 2.6875-6 6-6 3.316406 0 6 2.6875 6 6v60.875c0 3.316406-2.683594 6-6 6zm0 0" fill="#fce575"/><path d="m54.058594 121.023438h56v224.144531h-56zm0 0" fill="#ffd551"/><path d="m337.316406 153.28125h-323.179687l157.429687-151.523438c2.324219-2.238281 5.996094-2.238281 8.320313 0zm0 0" fill="#a56021"/><path d="m179.886719 1.757812c-2.324219-2.238281-5.996094-2.238281-8.320313 0l-157.429687 151.523438h56l133.589843-128.578125zm0 0" fill="#8c4c17"/><path d="m298.84375 153.28125h-246.230469l118.953125-114.496094c2.324219-2.234375 5.996094-2.234375 8.320313 0zm0 0" fill="#f9bb32"/><path d="m179.886719 38.789062c-2.324219-2.238281-5.996094-2.238281-8.320313 0l-118.953125 114.492188h40l103.113281-99.25zm0 0" fill="#db9c2e"/><path d="m42.058594 341.085938h24v128.300781h-24zm0 0" fill="#bf6c0d"/><path d="m285.390625 341.085938h24v128.300781h-24zm0 0" fill="#bf6c0d"/><path d="m42.058594 341.085938h16v128.300781h-16zm0 0" fill="#a56021"/><path d="m285.390625 341.085938h16v128.300781h-16zm0 0" fill="#a56021"/><path d="m213.035156 325.046875h-80v-116c0-2.210937 1.789063-4 4-4h72c2.207032 0 4 1.789063 4 4zm0 0" fill="#a56021"/><path d="m157.035156 225.046875c0-2.207031 1.789063-4 4-4h52v-12c0-2.207031-1.792968-4-4-4h-72c-2.210937 0-4 1.792969-4 4v116h24zm0 0" fill="#8c4c17"/><path d="m345.453125 184.925781h-339.453125c-3.3125 0-6-2.6875-6-6v-20.316406c0-3.316406 2.6875-6 6-6h339.457031c3.3125 0 6 2.683594 6 6v20.316406c-.003906 3.3125-2.6875 6-6.003906 6zm0 0" fill="#bf6c0d"/><path d="m333.316406 345.167969h-315.179687c-2.207031 0-4-1.789063-4-4v-12.199219c0-2.207031 1.792969-4 4-4h315.179687c2.210938 0 4 1.792969 4 4v12.199219c0 2.207031-1.792968 4-4 4zm0 0" fill="#ffc34c"/><g fill="#e58d23"><path d="m203.070312 268.890625h13.28125v56h-13.28125zm0 0"/><path d="m235.070312 268.890625h13.28125v56h-13.28125zm0 0"/><path d="m275.070312 268.890625h13.28125v56h-13.28125zm0 0"/><path d="m311.070312 268.890625h13.28125v56h-13.28125zm0 0"/><path d="m23.070312 268.890625h13.28125v56h-13.28125zm0 0"/><path d="m55.070312 268.890625h13.28125v56h-13.28125zm0 0"/><path d="m95.070312 268.890625h13.28125v56h-13.28125zm0 0"/><path d="m131.070312 268.890625h13.28125v56h-13.28125zm0 0"/></g><path d="m216.796875 350.332031v13.464844h-87.527344v-13.464844zm0 0" fill="#bf6c0d"/><path d="m216.796875 390.730469v13.464843h-87.527344v-13.464843zm0 0" fill="#bf6c0d"/><path d="m216.796875 431.128906v13.464844h-87.527344v-13.464844zm0 0" fill="#bf6c0d"/><path d="m56 178.925781v-20.316406c0-3.316406 2.6875-6 6-6h-56c-3.3125 0-6 2.683594-6 6v20.316406c0 3.3125 2.6875 6 6 6h56c-3.3125 0-6-2.6875-6-6zm0 0" fill="#a56021"/><path d="m23.070312 268.890625h8v56h-8zm0 0" fill="#bf6c0d"/><path d="m55.070312 268.890625h8v56h-8zm0 0" fill="#bf6c0d"/><path d="m95.070312 268.890625h8v56h-8zm0 0" fill="#bf6c0d"/><path d="m131.070312 268.890625h8v56h-8zm0 0" fill="#bf6c0d"/><path d="m148.488281 281.109375h-132c-2.210937 0-4-1.792969-4-4v-8c0-2.210937 1.789063-4 4-4h132c2.210938 0 4 1.789063 4 4v8c0 2.207031-1.789062 4-4 4zm0 0" fill="#ffc34c"/><path d="m68.488281 277.109375v-8c0-2.210937 1.789063-4 4-4h-56c-2.210937 0-4 1.789063-4 4v8c0 2.207031 1.789063 4 4 4h56c-2.207031 0-4-1.792969-4-4zm0 0" fill="#f9bb32"/><path d="m203.070312 268.890625h8v56h-8zm0 0" fill="#bf6c0d"/><path d="m235.070312 268.890625h8v56h-8zm0 0" fill="#bf6c0d"/><path d="m275.070312 268.890625h8v56h-8zm0 0" fill="#bf6c0d"/><path d="m311.070312 268.890625h8v56h-8zm0 0" fill="#bf6c0d"/><path d="m333.054688 281.109375h-132c-2.207032 0-4-1.792969-4-4v-8c0-2.210937 1.792968-4 4-4h132c2.210937 0 4 1.789063 4 4v8c0 2.207031-1.789063 4-4 4zm0 0" fill="#ffc34c"/><path d="m253.054688 277.109375v-8c0-2.210937 1.792968-4 4-4h-56c-2.207032 0-4 1.789063-4 4v8c0 2.207031 1.792968 4 4 4h56c-2.207032 0-4-1.792969-4-4zm0 0" fill="#f9bb32"/><path d="m203.332031 325.046875h13.464844v144.339844h-13.464844zm0 0" fill="#bf6c0d"/><path d="m203.332031 325.046875h8v144.339844h-8zm0 0" fill="#a56021"/><path d="m129.269531 350.332031h36v13.464844h-36zm0 0" fill="#a56021"/><path d="m129.269531 390.730469h36v13.464843h-36zm0 0" fill="#a56021"/><path d="m129.269531 431.128906h36v13.464844h-36zm0 0" fill="#a56021"/><path d="m129.269531 325.046875h13.464844v144.339844h-13.464844zm0 0" fill="#bf6c0d"/><path d="m129.269531 325.046875h8v144.339844h-8zm0 0" fill="#a56021"/><path d="m165.269531 131.8125c0 9.941406-8.058593 18-18 18-9.941406 0-18-8.058594-18-18s8.058594-18 18-18c9.941407 0 18 8.058594 18 18zm0 0" fill="#db9c2e"/></svg>