<?xml version="1.0" encoding="iso-8859-1"?>
<!-- Generator: Adobe Illustrator 19.0.0, SVG Export Plug-In . SVG Version: 6.00 Build 0)  -->
<svg version="1.1" id="Capa_1" xmlns="http://www.w3.org/2000/svg" xmlns:xlink="http://www.w3.org/1999/xlink" x="0px" y="0px"
	 viewBox="0 0 512 512" style="enable-background:new 0 0 512 512;" xml:space="preserve">
<path style="fill:#FF0021;" d="M390.87,116.19v0.08L357.29,166H211l45-91C304.78,75,351.36,89.4,390.87,116.19z"/>
<path style="fill:#FF4B37;" d="M256,75v91H154.71l-33.58-49.73v-0.08C160.64,89.4,207.22,75,256,75z"/>
<polygon style="fill:#FFD237;" points="256,15 226,15 226,75 271,75 "/>
<rect x="256" y="15" style="fill:#FFB037;" width="30" height="60"/>
<path style="fill:#FFD237;" d="M200.994,65.904C210.254,44.664,231.4,30,256,30l15-15L256,0c-18.773,0-36.192,5.714-50.618,15.505
	C202.269,15.182,199.134,15,196,15c-48.404,0-87.902,37.859-89.921,86.19l-0.015,0.348l0.091,19.354l36.124,53.497l24.863-16.789
	l-24.956-36.957c9.479-5.544,19.315-10.362,29.441-14.431l13.867,42.412l28.514-9.323l-13.856-42.379
	C218.23,92.348,236.96,90,256,90l15-15l-15-15C237.321,60,218.902,62.001,200.994,65.904z M167.134,75.783
	c-9.86,3.642-19.493,7.905-28.856,12.764c5.321-18.867,19.554-33.825,37.849-40.201C171.744,56.775,168.672,66.009,167.134,75.783z"
	/>
<g>
	<path style="fill:#FFB037;" d="M405.921,101.19C403.902,52.859,364.404,15,316,15c-3.133,0-6.268,0.182-9.381,0.505
		C292.192,5.714,274.773,0,256,0v30c24.6,0,45.746,14.665,55.006,35.904C293.098,62.001,274.679,60,256,60v30
		c19.049,0,37.788,2.351,55.874,6.928l-13.88,42.364l28.51,9.341l13.895-42.41c10.117,4.067,19.944,8.882,29.415,14.421
		l-24.956,36.957l24.863,16.789l36.124-53.497l0.091-19.354L405.921,101.19z M344.866,75.783
		c-1.538-9.775-4.611-19.008-8.993-27.436c18.295,6.375,32.528,21.333,37.85,40.201C364.359,83.688,354.726,79.425,344.866,75.783z"
		/>
	<path style="fill:#FFB037;" d="M256,120L136,316l120,196c108.075,0,196-87.925,196-196S364.075,120,256,120z"/>
</g>
<path style="fill:#FFD237;" d="M60,316c0,108.075,87.925,196,196,196V120C147.925,120,60,207.925,60,316z"/>
<path style="fill:#EFF6F9;" d="M256,150L154.367,316L256,482c91.533,0,166-74.467,166-166S347.533,150,256,150z"/>
<path style="fill:#FFFFFF;" d="M90,316c0,91.533,74.467,166,166,166V150C164.467,150,90,224.467,90,316z"/>
<path style="fill:#015E82;" d="M340.814,379.6l-75.459-75.459l-39.341,57.837l80.35,80.35c17.273-6.911,32.806-17.266,45.751-30.212
	L340.814,379.6z"/>
<polygon style="fill:#007CAA;" points="171.074,239.86 136.269,272.234 256,391.964 256,294.786 "/>
<g>
	<path style="fill:#FFB037;" d="M309.74,369.74l-21.213-21.213c-8.968,8.968-20.748,13.452-32.527,13.452l-15,14.986l15,15
		C275.462,391.964,294.924,384.556,309.74,369.74z"/>
	<path style="fill:#FFB037;" d="M352.166,219.833l-10.606-10.607l-43.483,43.483c-12.694-8.445-27.385-12.667-42.077-12.667
		l-15,14.992l15,15c6.899,0,13.799,1.539,20.135,4.618L256,294.787l-15,12.427l15,30l84.816-84.817
		c13.711,18.227,21.127,40.332,21.127,63.604c0,28.35-11.006,54.969-30.99,74.954l21.213,21.213
		c25.651-25.65,39.777-59.803,39.777-96.167S377.817,245.484,352.166,219.833z"/>
</g>
<path style="fill:#FFD237;" d="M235.865,274.651c6.336-3.078,13.236-4.618,20.135-4.618v-29.992
	c-14.692,0-29.383,4.222-42.077,12.667l-43.482-43.482l-10.606,10.607c-25.651,25.65-39.777,59.803-39.777,96.167
	s14.126,70.516,39.777,96.167l21.213-21.213c-19.984-19.984-30.99-46.604-30.99-74.954c0-23.271,7.416-45.377,21.127-63.604
	l21.526,21.526c-19.631,29.508-16.452,69.815,9.551,95.818c14.816,14.816,34.278,22.225,53.74,22.225v-29.986
	c-11.78,0-23.56-4.484-32.527-13.452c-14.222-14.222-17.155-35.512-8.821-52.663L256,337.213v-42.427L235.865,274.651z"/>
<g>
</g>
<g>
</g>
<g>
</g>
<g>
</g>
<g>
</g>
<g>
</g>
<g>
</g>
<g>
</g>
<g>
</g>
<g>
</g>
<g>
</g>
<g>
</g>
<g>
</g>
<g>
</g>
<g>
</g>
</svg>
