<?xml version="1.0" encoding="iso-8859-1"?>
<!-- Generator: Adobe Illustrator 19.0.0, SVG Export Plug-In . SVG Version: 6.00 Build 0)  -->
<svg xmlns="http://www.w3.org/2000/svg" xmlns:xlink="http://www.w3.org/1999/xlink" version="1.1" id="Layer_1" x="0px" y="0px" viewBox="0 0 512 512" style="enable-background:new 0 0 512 512;" xml:space="preserve" width="512" height="512">
<g>
	<path style="fill:#EFE2DD;" d="M211,91H102.341c-16.084,0-30.22-8.467-37.822-22.646c-7.573-14.165-6.797-32.23,2.08-45.604   l3.296-4.116L46.384,0L19.878,34.149C-27.246,93.08,15.713,181,91.168,181H211V91z"/>
	<path style="fill:#CDBFBA;" d="M492.1,34.149L465.594,0l-23.511,18.633l3.296,4.116c8.877,13.374,9.653,31.439,2.08,45.604   C439.856,82.533,424.721,91,408.637,91H331v90h89.81C496.266,181,539.224,93.08,492.1,34.149z"/>
	<g>
		<path style="fill:#523522;" d="M397.328,283.261l-79.351-61.187l10.664-12.026c18.574-20.933,44.165-32.915,72.041-33.75    c27.627-0.791,55.199,9.814,74.564,29.165L512,242.216c-1.854,3.002-8.842,41.366-50.947,53.203    C439.272,301.543,415.424,297.199,397.328,283.261z"/>
	</g>
	<g>
		<path style="fill:#714C2F;" d="M71.269,298.012c-47.842,0-61.75-33.114-71.269-55.781l37.768-36.768    c19.614-19.629,46.699-30.322,74.282-29.326c27.671,0.996,52.983,13.14,71.25,34.204l10.4,12.012l-79.014,60.908    C101.781,293.207,86.474,298.012,71.269,298.012z"/>
	</g>
	<path style="fill:#895D3C;" d="M415,218.8l-4.499-27.001C397.899,115.901,332.8,61,256,61s-141.899,54.901-154.501,130.8L97,218.8   c-4.501,26.7,4.2,53.699,23.399,72.599C140.2,311.201,151,338.599,151,366.799v48.301l6.599,4.499c30,19.801,64.2,29.7,98.401,29.7   s68.401-9.899,98.401-29.7l6.599-4.499v-48.301c0-28.2,10.8-55.598,30.601-75.399C410.799,272.5,419.5,245.501,415,218.8z"/>
	<path style="fill:#714C2F;" d="M391.601,291.4C371.8,311.201,361,338.599,361,366.799v48.301l-6.599,4.499   c-30,19.801-64.2,29.7-98.401,29.7V61c76.8,0,141.899,54.901,154.501,130.8L415,218.8C419.5,245.501,410.799,272.5,391.601,291.4z"/>
	<g>
		<path style="fill:#DEECF1;" d="M256,362c-41.4,0-75,33.6-75,75s33.6,75,75,75s75-33.6,75-75S297.4,362,256,362z M256,482    c-24.901,0-45-20.099-45-45s20.099-45,45-45s45,20.099,45,45S280.901,482,256,482z"/>
	</g>
	<g>
		
			<rect x="159.787" y="226.002" transform="matrix(0.7071 0.7071 -0.7071 0.7071 223.4264 -57.3991)" style="fill:#714C2F;" width="42.426" height="29.997"/>
	</g>
	<g>
		
			<rect x="316.002" y="219.787" transform="matrix(0.7071 0.7071 -0.7071 0.7071 267.3604 -163.4651)" style="fill:#523522;" width="29.997" height="42.426"/>
	</g>
	<g>
		<rect x="211" y="317" style="fill:#714C2F;" width="30" height="30"/>
	</g>
	<g>
		<rect x="271" y="317" style="fill:#523522;" width="30" height="30"/>
	</g>
	<path style="fill:#714C2F;" d="M322.599,149.5l-19.499,9.901c-19.801,9.598-32.1,29.7-32.1,51.599h-30   c0-21.899-12.299-42.001-32.1-51.599l-19.499-9.901l13.198-27.001L222.4,132.4c13.801,6.899,25.199,17.1,33.6,29.399   c8.401-12.299,19.799-22.5,33.6-29.399l19.801-9.901L322.599,149.5z"/>
	<path style="fill:#C5D3DD;" d="M331,437c0,41.4-33.6,75-75,75v-30c24.901,0,45-20.099,45-45s-20.099-45-45-45v-30   C297.4,362,331,395.6,331,437z"/>
	<path style="fill:#523522;" d="M271,211h-15v-49.2c8.401-12.299,19.799-22.5,33.6-29.399l19.801-9.901l13.198,27.001l-19.499,9.901   C283.299,168.999,271,189.101,271,211z"/>
</g>















</svg>
