<?xml version="1.0" encoding="iso-8859-1"?>
<!-- Generator: Adobe Illustrator 19.0.0, SVG Export Plug-In . SVG Version: 6.00 Build 0)  -->
<svg version="1.1" id="Capa_1" xmlns="http://www.w3.org/2000/svg" xmlns:xlink="http://www.w3.org/1999/xlink" x="0px" y="0px"
	 viewBox="0 0 512.001 512.001" style="enable-background:new 0 0 512.001 512.001;" xml:space="preserve">
<path d="M489.5,73.656V37.443h-82.833c-24.435,0-47.421-9.531-64.727-26.836L331.334,0l-10.606,10.607
	c-17.306,17.305-40.293,26.836-64.727,26.836l-60,218.545l60,255.888l0.125,0.125l43.378-43.378
	c50.249-1.229,97.298-21.381,132.944-57.06c36.791-36.823,57.052-85.79,57.052-137.881v-37.453l-4.394-4.393
	c-20.558-20.558-31.88-47.866-31.88-76.894s11.322-56.335,31.88-76.894L489.5,73.656z"/>
<path style="fill:#012231;" d="M191.273,10.607L180.666,0L170.06,10.607c-17.305,17.305-40.292,26.835-64.726,26.836H22.5v36.213
	l4.394,4.393c20.558,20.558,31.88,47.866,31.88,76.894s-11.322,56.335-31.88,76.894L22.5,236.23v37.453
	c0,52.091,20.261,101.058,57.052,137.881c35.708,35.739,82.856,55.898,133.202,57.065L256,511.876V37.443
	C231.565,37.443,208.578,27.912,191.273,10.607z"/>
<path style="fill:#FF9037;" d="M454.317,67.443h-47.65c-27.677,0-53.949-9.203-75.333-26.165
	c-21.384,16.962-47.657,26.165-75.333,26.165l-60,188.545l60,213.461l0.125,0.125l30.892-30.892h7.598
	c90.918,0,164.885-74.019,164.885-165v-25.23C413.054,197.601,411.329,120.267,454.317,67.443z"/>
<path style="fill:#FFB037;" d="M180.666,41.278c-21.383,16.962-47.656,26.165-75.332,26.165H57.683
	c42.987,52.824,41.262,130.158-5.183,181.01v25.23c0,90.981,73.967,165,164.885,165h7.849L256,469.45V67.443
	C228.323,67.443,202.05,58.24,180.666,41.278z"/>
<path style="fill:#014059;" d="M82.5,249.538v24.145c0,57.474,36.076,106.666,86.75,126.107l30-75.126l-30-75.126L82.5,249.538
	L82.5,249.538z"/>
<path style="fill:#AA011A;" d="M342.75,399.79c50.674-19.441,86.75-68.633,86.75-126.107v-24.145h-86.75l-30,79.572L342.75,399.79z"
	/>
<path style="fill:#014059;" d="M256,249.538l-30,79.572l30,79.572h38.615c16.951,0,33.177-3.155,48.135-8.893V249.538H256z"/>
<path style="fill:#AA011A;" d="M169.25,249.538V399.79c14.958,5.739,31.184,8.893,48.135,8.893H256V249.538H169.25z"/>
<path style="fill:#FFD237;" d="M399.567,200.513c-7.81-28.037-8.272-57.797-1.336-86.063l3.967-16.167l-16.492-2.268
	c-3.262-0.448-6.497-1.004-9.705-1.66l-20,64.136l20,61.048h28.867L399.567,200.513z"/>
<path style="fill:#FF0021;" d="M346,84.849l-20,73.641l20,61.048h30V94.355C365.668,92.244,355.632,89.063,346,84.849z"/>
<path style="fill:#FFD237;" d="M338.133,81.138l-6.799-3.458l-6.799,3.458c-2.813,1.431-5.66,2.762-8.534,4.005l-20,73.347
	l20,61.048h30V84.849C343.347,83.688,340.722,82.455,338.133,81.138z"/>
<path style="fill:#FF0021;" d="M286,94.507l-20,63.983l20,61.048h30V85.143C306.318,89.333,296.299,92.455,286,94.507z"/>
<path style="fill:#FFD237;" d="M256,97.443l-20,61.048l20,61.048h30V94.507C276.235,96.453,266.221,97.443,256,97.443z"/>
<path style="fill:#FF9037;" d="M256,289.111l-25,40l25,40c22.091,0,40-17.909,40-40S278.091,289.111,256,289.111z"/>
<path style="fill:#FFB037;" d="M216,329.111c0,22.091,17.909,40,40,40v-80C233.908,289.111,216,307.02,216,329.111z"/>
<path style="fill:#FFFFFF;" d="M107.134,219.538l5.3-19.025c7.81-28.037,8.272-57.797,1.336-86.063l-3.967-16.167l16.492-2.268
	c10.447-1.436,20.637-3.941,30.461-7.479l24.811,53.405l24.811-52.767c15.813,5.485,32.427,8.269,49.622,8.269v32.102l-15,24.812
	l15,24.812v40.371h-49.622l-24.811-46.605l-24.811,46.605h-49.622V219.538z"/>
<path style="fill:#FF0021;" d="M156.756,219.538v-40.371h-39.837c2.364-16.442,2.299-33.183-0.179-49.622h40.016V88.536
	c5.841-2.104,11.553-4.571,17.112-7.398l6.799-3.458l6.799,3.458c6.158,3.132,12.47,5.802,18.912,8.036v40.371H256v49.622h-49.622
	v40.371H156.756z"/>
<g>
</g>
<g>
</g>
<g>
</g>
<g>
</g>
<g>
</g>
<g>
</g>
<g>
</g>
<g>
</g>
<g>
</g>
<g>
</g>
<g>
</g>
<g>
</g>
<g>
</g>
<g>
</g>
<g>
</g>
</svg>
