<?xml version="1.0" encoding="iso-8859-1"?>
<!-- Generator: Adobe Illustrator 19.1.1, SVG Export Plug-In . SVG Version: 6.00 Build 0)  -->
<svg version="1.1"  xmlns="http://www.w3.org/2000/svg" xmlns:xlink="http://www.w3.org/1999/xlink" x="0px" y="0px"
	 viewBox="0 0 48 48" style="enable-background:new 0 0 48 48;" xml:space="preserve">
<path style="fill:#D7CCC8;" d="M39,45H9c0,0,0-28.833,0-32c0-2,8-4,8-4c1.039-0.346,1.854-1.161,2.2-2.2l0.659-2.377
	c0.092-0.275,0.294-0.497,0.562-0.606C21.126,3.528,22.607,3,24,3s2.874,0.528,3.58,0.817c0.268,0.11,0.47,0.332,0.562,0.606
	l1.363,4.089c0.195,0.586,0.972,0.721,1.343,0.227C31.464,7.918,32.308,7,33,7c1.25,0,6,2.583,6,6S39,45,39,45z"/>
<path style="fill:#BCAAA4;" d="M39,36.294C39,41.242,39,45,39,45H9c0,0,0-3.759,0-8.706C9.792,34.953,11.009,34,12.5,34
	s2.708,0.953,3.5,2.294C16.792,34.953,18.009,34,19.5,34c1.078,0,1.998,0.24,2.794,0.533C22.779,34.197,23.367,34,24,34
	c0.591,0,1.142,0.172,1.607,0.467C26.49,34.159,27.466,34,28.5,34c1.491,0,2.708,0.953,3.5,2.294C32.792,34.953,34.009,34,35.5,34
	S38.208,34.953,39,36.294z M9,25c0-1.963,2-2,2-2h5v-9H9V25z M19,14v5l3-7L19,14z"/>
<path style="fill:#D32F2F;" d="M39,18c-1.333,0-3.111-1.889-4.148-2.481C34.265,15.183,33.603,15,32.928,15h-1.76
	c-1.258,0-2.489-0.33-3.589-0.94C26.642,13.541,25.343,13,24,13c-1.343,0-2.642,0.541-3.579,1.06C19.321,14.67,18.09,15,16.832,15
	h-2.11c-0.996,0-1.969,0.298-2.783,0.871C11.173,16.41,10.086,18,9,18c0,0,0-1.833,0-5c0-2,8-4,8-4c1.039-0.346,1.854-1.161,2.2-2.2
	l0.659-2.377c0.092-0.275,0.294-0.497,0.562-0.606C21.126,3.528,22.607,3,24,3s2.874,0.528,3.58,0.817
	c0.268,0.11,0.47,0.332,0.562,0.606l1.363,4.089c0.195,0.586,0.972,0.721,1.343,0.227C31.464,7.918,32.308,7,33,7
	c1.25,0,6,2.583,6,6S39,18,39,18z"/>
<g>
	<g>
		<path style="fill:#4CAF50;" d="M37.362,17.362L37,17l-0.065,0.065C37.077,17.167,37.219,17.269,37.362,17.362z"/>
		
			<rect x="35.586" y="13.586" transform="matrix(-0.7071 -0.7071 0.7071 -0.7071 52.5564 51.7696)" style="fill:#4CAF50;" width="2.828" height="2.828"/>
		<path style="fill:#4CAF50;" d="M36.907,9.093L35,11l2,2l1.632-1.632C38.255,10.511,37.627,9.739,36.907,9.093z"/>
	</g>
	<g>
		<path style="fill:#8BC34A;" d="M37.362,17.362C37.929,17.73,38.496,18,39,18c0,0,0-0.97,0-3l-2,2L37.362,17.362z"/>
		<path style="fill:#8BC34A;" d="M38.632,11.368L37,13l2,2c0-0.582,0-1.238,0-2C39,12.429,38.859,11.884,38.632,11.368z"/>
	</g>
	<g>
		
			<rect x="33.586" y="11.586" transform="matrix(0.7071 -0.7071 0.7071 0.7071 1.0589 28.5563)" style="fill:#43A047;" width="2.828" height="2.828"/>
		<path style="fill:#43A047;" d="M34.516,7.484L33,9l2,2l1.907-1.907C36.133,8.397,35.264,7.845,34.516,7.484z"/>
		<path style="fill:#43A047;" d="M34.852,15.518c0.546,0.312,1.299,0.98,2.083,1.547L37,17l-2-2l-0.397,0.397
			C34.687,15.437,34.771,15.473,34.852,15.518z"/>
	</g>
	<g>
		<path style="fill:#009688;" d="M33,7c-0.399,0-0.848,0.309-1.275,0.725L33,9l1.516-1.516C33.874,7.173,33.321,7,33,7z"/>
		<path style="fill:#009688;" d="M35,15l-2-2l-1.99,1.99c0.053,0.001,0.105,0.01,0.158,0.01h1.76c0.583,0,1.153,0.144,1.676,0.397
			L35,15z"/>
		
			<rect x="31.586" y="9.586" transform="matrix(0.7071 -0.7071 0.7071 0.7071 1.8873 26.5563)" style="fill:#009688;" width="2.828" height="2.828"/>
	</g>
	<g>
		<path style="fill:#2196F3;" d="M30.988,14.988L29,13l-1.177,1.177C28.808,14.678,29.884,14.961,30.988,14.988z"/>
		<polygon style="fill:#2196F3;" points="28.5,5.5 27,7 29,9 29.5,8.5 		"/>
		
			<rect x="27.586" y="9.586" transform="matrix(0.7071 -0.7071 0.7071 0.7071 0.7157 23.7279)" style="fill:#2196F3;" width="2.828" height="2.828"/>
	</g>
	<g>
		<path style="fill:#00BCD4;" d="M31.725,7.725c-0.314,0.305-0.617,0.667-0.878,1.014c-0.371,0.494-1.148,0.359-1.343-0.227
			L29.5,8.5L29,9l2,2l2-2L31.725,7.725z"/>
		<path style="fill:#00BCD4;" d="M33,13l-2-2l-2,2l1.988,1.988c0.007,0,0.015,0.001,0.022,0.001L33,13z"/>
	</g>
	<g>
		<path style="fill:#9575CD;" d="M28.141,4.423c-0.091-0.275-0.294-0.497-0.562-0.606c-0.254-0.104-0.612-0.239-1.027-0.369L25,5
			l2,2l1.5-1.5L28.141,4.423z"/>
		
			<rect x="25.586" y="7.586" transform="matrix(0.7071 -0.7071 0.7071 0.7071 1.5442 21.7279)" style="fill:#9575CD;" width="2.828" height="2.828"/>
		<path style="fill:#9575CD;" d="M27,11l-2,2l0.126,0.126c0.924,0.188,1.782,0.562,2.452,0.934c0.079,0.044,0.164,0.076,0.245,0.117
			L29,13L27,11z"/>
	</g>
	<g>
		
			<rect x="23.586" y="9.586" transform="matrix(-0.7071 0.7071 -0.7071 -0.7071 50.4558 1.1005)" style="fill:#D81B60;" width="2.828" height="2.828"/>
		<path style="fill:#D81B60;" d="M24,3c-0.308,0-0.62,0.029-0.928,0.072L25,5l1.553-1.553C25.815,3.216,24.891,3,24,3z"/>
		
			<rect x="23.586" y="5.586" transform="matrix(-0.7071 0.7071 -0.7071 -0.7071 47.6274 -5.7279)" style="fill:#D81B60;" width="2.828" height="2.828"/>
	</g>
	<g>
		<path style="fill:#E91E63;" d="M21.538,13.538C22.286,13.236,23.128,13,24,13c0.309,0,0.614,0.035,0.915,0.085L25,13l-2-2l-2,2
			L21.538,13.538z"/>
		
			<rect x="21.586" y="7.586" transform="matrix(-0.7071 0.7071 -0.7071 -0.7071 45.6274 -0.8995)" style="fill:#E91E63;" width="2.828" height="2.828"/>
		<path style="fill:#E91E63;" d="M23.072,3.072c-0.056,0.008-0.112,0.015-0.168,0.024L21,5l2,2l2-2L23.072,3.072z"/>
	</g>
	<g>
		
			<rect x="19.586" y="9.586" transform="matrix(-0.7071 0.7071 -0.7071 -0.7071 43.6274 3.9289)" style="fill:#F44336;" width="2.828" height="2.828"/>
		<path style="fill:#F44336;" d="M20.421,14.06c0.329-0.182,0.713-0.359,1.117-0.522L21,13l-1.483,1.483
			C19.826,14.361,20.129,14.222,20.421,14.06z"/>
		<path style="fill:#F44336;" d="M20.42,3.817c-0.138,0.056-0.256,0.143-0.353,0.251L21,5l1.904-1.904
			C21.885,3.261,20.941,3.604,20.42,3.817z"/>
		<path style="fill:#F44336;" d="M19.072,7.072L21,9l2-2l-2-2l-1.8,1.8C19.168,6.896,19.112,6.98,19.072,7.072z"/>
	</g>
	<g>
		<path style="fill:#D32F2F;" d="M21,9l-1.928-1.928C18.681,7.975,17.942,8.686,17,9l2,2L21,9z"/>
		<path style="fill:#D32F2F;" d="M15,11l2-2c0,0-1.43,0.359-3.078,0.922L15,11z"/>
		<path style="fill:#D32F2F;" d="M21,5l-0.932-0.932c-0.092,0.102-0.164,0.222-0.209,0.355L19.2,6.8l0,0L21,5z"/>
		
			<rect x="13.586" y="11.586" transform="matrix(-0.7071 -0.7071 0.7071 -0.7071 16.4142 32.799)" style="fill:#D32F2F;" width="2.828" height="2.828"/>
		<path style="fill:#D32F2F;" d="M18.741,14.741c0.263-0.072,0.522-0.158,0.777-0.258L21,13l-2-2l-2,2L18.741,14.741z"/>
	</g>
	<g>
		<path style="fill:#B71C1C;" d="M11,15l0.901,0.901c0.012-0.009,0.026-0.022,0.037-0.031C12.753,15.298,13.726,15,14.722,15H15
			l-2-2L11,15z"/>
		<path style="fill:#B71C1C;" d="M13.922,9.922c-0.955,0.326-1.975,0.72-2.844,1.156L13,13l2-2L13.922,9.922z"/>
	</g>
	<g>
		<path style="fill:#AD1457;" d="M11.077,11.077c-0.108,0.054-0.216,0.108-0.319,0.164L9,13l2,2l2-2L11.077,11.077z"/>
		<path style="fill:#AD1457;" d="M9.764,17.764c0.8-0.452,1.556-1.435,2.137-1.863L11,15l-2,2L9.764,17.764z"/>
	</g>
</g>
<g>
	<path style="fill:#880E4F;" d="M9,13l1.759-1.759C9.738,11.791,9,12.395,9,13z"/>
	<path style="fill:#880E4F;" d="M11,15l-2-2c0,1.802,0,3.154,0,4L11,15z"/>
	<path style="fill:#880E4F;" d="M9.764,17.764L9,17c0,0.641,0,1,0,1C9.256,18,9.512,17.907,9.764,17.764z"/>
</g>
<g>
	<rect x="16" y="11" style="fill:#D7CCC8;" width="3" height="11"/>
	<path style="fill:#D7CCC8;" d="M18,8c0,1.833,2,2.895,2,4s-1.119,1-2.5,1S15,13.105,15,12s2-2.167,2-4H18z"/>
	<path style="fill:#D7CCC8;" d="M17.5,11L17.5,11c-0.275,0-0.5-0.225-0.5-0.5v-5C17,5.225,17.225,5,17.5,5l0,0
		C17.775,5,18,5.225,18,5.5v5C18,10.775,17.775,11,17.5,11z"/>
	<path style="fill:#D7CCC8;" d="M18.5,7h-2C16.225,7,16,6.775,16,6.5v0C16,6.225,16.225,6,16.5,6h2C18.775,6,19,6.225,19,6.5v0
		C19,6.775,18.775,7,18.5,7z"/>
</g>
<rect x="16" y="13" style="fill:#BCAAA4;" width="3" height="1"/>
<path style="fill:#004D40;" d="M12.5,43c-1.381,0-2.5-1.067-2.5-3s1.119-4,2.5-4s2.5,2.067,2.5,4S13.881,43,12.5,43z M32,23h4v-5h-4
	V23z M12,23h4v-5h-4V23z M22,23h4v-5h-4V23z M12,32h4v-5h-4V32z M32,32h4v-5h-4V32z M38,40c0-1.933-1.119-4-2.5-4S33,38.067,33,40
	s1.119,3,2.5,3S38,41.933,38,40z M28,42v-5c0-0.265-0.105-0.52-0.293-0.707l-0.281-0.212C26.493,36.216,25.667,36.528,25,37v5
	c0,0.265,0.105,0.52,0.293,0.707L25.68,43h1.641l0.387-0.293C27.895,42.52,28,42.265,28,42z M23,42v-5
	c-0.772-0.336-1.555-0.714-2.462-0.893l-0.245,0.186C20.105,36.48,20,36.735,20,37v5c0,0.265,0.105,0.52,0.293,0.707L20.68,43h1.641
	l0.387-0.293C22.895,42.52,23,42.265,23,42z M18.565,42.815l0.142-0.108C18.895,42.52,19,42.265,19,42v-5
	c0-0.265-0.105-0.52-0.293-0.707l-0.03-0.023C17.703,36.879,17,38.473,17,40C17,41.469,17.648,42.435,18.565,42.815z M29.323,36.27
	l-0.03,0.023C29.105,36.48,29,36.735,29,37v5c0,0.265,0.105,0.52,0.293,0.707l0.142,0.108C30.352,42.435,31,41.469,31,40
	C31,38.473,30.297,36.879,29.323,36.27z M22,31h4v-5h-4V31z"/>
<path style="fill:#EFEBE9;" d="M18,23.51c0,0.863-0.551,1.49-2,1.49c-0.579,0-1.59-0.104-2-0.279C13.59,24.896,12.579,25,12,25
	c-1.449,0-2-0.627-2-1.49c0-0.1,0-0.432,0-0.51c0-0.55,0.45-1,1-1h6c0.55,0,1,0.45,1,1C18,23.078,18,23.409,18,23.51z M28,31
	c0-0.55-0.45-1-1-1h-6c-0.55,0-1,0.45-1,1c0,0.078,0,0.409,0,0.51c0,0.863,0.551,1.49,2,1.49c0.579,0,1.59-0.104,2-0.279
	C24.41,32.896,25.421,33,26,33c1.449,0,2-0.627,2-1.49C28,31.409,28,31.078,28,31z M38,23c0-0.55-0.45-1-1-1h-6c-0.55,0-1,0.45-1,1
	c0,0.078,0,0.409,0,0.51c0,0.863,0.551,1.49,2,1.49c0.579,0,1.59-0.104,2-0.279C34.41,24.896,35.421,25,36,25
	c1.449,0,2-0.627,2-1.49C38,23.409,38,23.078,38,23z"/>
<path style="fill:#5D4037;" d="M17,23.51c0,0.271-0.448,0.49-1,0.49c-0.552,0-1-0.219-1-0.49c0-0.271,0.448-0.49,1-0.49
	C16.552,23.02,17,23.239,17,23.51z M12,23.02c-0.552,0-1,0.219-1,0.49c0,0.271,0.448,0.49,1,0.49s1-0.219,1-0.49
	C13,23.239,12.552,23.02,12,23.02z M27,31.51c0,0.271-0.448,0.49-1,0.49s-1-0.219-1-0.49c0-0.271,0.448-0.49,1-0.49
	S27,31.239,27,31.51z M22,31.02c-0.552,0-1,0.219-1,0.49c0,0.271,0.448,0.49,1,0.49s1-0.219,1-0.49C23,31.239,22.552,31.02,22,31.02
	z M37,23.51c0,0.271-0.448,0.49-1,0.49s-1-0.219-1-0.49c0-0.271,0.448-0.49,1-0.49S37,23.239,37,23.51z M32,23.02
	c-0.552,0-1,0.219-1,0.49c0,0.271,0.448,0.49,1,0.49s1-0.219,1-0.49C33,23.239,32.552,23.02,32,23.02z"/>
</svg>
