<?xml version="1.0" encoding="iso-8859-1"?>
<!-- Generator: Adobe Illustrator 19.0.0, SVG Export Plug-In . SVG Version: 6.00 Build 0)  -->
<svg version="1.1" id="Layer_1" xmlns="http://www.w3.org/2000/svg" xmlns:xlink="http://www.w3.org/1999/xlink" x="0px" y="0px"
	 viewBox="0 0 512 512" style="enable-background:new 0 0 512 512;" xml:space="preserve">
<polygon style="fill:#F4E8B3;" points="503.916,499.874 8.084,499.874 8.084,338.189 256,79.495 503.916,338.189 "/>
<path style="fill:#ACABB1;" d="M299.116,499.874h-86.232v-75.453c0-23.812,19.304-43.116,43.116-43.116l0,0
	c23.812,0,43.116,19.304,43.116,43.116V499.874z"/>
<g>
	<polygon style="fill:#E5CD80;" points="202.105,164.078 198.348,139.654 105.095,236.961 105.095,499.874 202.105,499.874 	"/>
	<polygon style="fill:#E5CD80;" points="72.758,270.704 8.084,338.189 8.084,499.874 72.758,499.874 	"/>
	<polygon style="fill:#E5CD80;" points="406.905,499.874 406.905,236.961 313.652,139.654 309.895,164.078 309.895,499.874 	"/>
	<polygon style="fill:#E5CD80;" points="503.916,338.189 439.242,270.704 439.242,499.874 503.916,499.874 	"/>
</g>
<g>
	<polygon style="fill:#F4E8B3;" points="45.811,187.284 40.421,144.168 18.863,144.168 13.474,187.284 8.084,219.621 8.084,499.874 
		51.2,499.874 51.2,219.621 	"/>
	<polygon style="fill:#F4E8B3;" points="498.526,187.284 493.137,144.168 471.579,144.168 466.189,187.284 460.8,219.621 
		460.8,499.874 503.916,499.874 503.916,219.621 	"/>
</g>
<path style="fill:#ACABB1;" d="M288.337,284.295h-64.674v-58.147c0-24.28,12.135-46.954,32.337-60.421l0,0l0,0
	c20.202,13.468,32.337,36.142,32.337,60.421V284.295z"/>
<g>
	<path style="fill:#787680;" d="M256,165.726c-20.202,13.468-32.337,36.142-32.337,60.421v43.116
		c0-24.28,12.135-46.954,32.337-60.421c20.202,13.468,32.337,36.142,32.337,60.421v-43.116
		C288.337,201.868,276.202,179.195,256,165.726z"/>
	<path style="fill:#787680;" d="M256,381.305L256,381.305c-23.812,0-43.116,19.304-43.116,43.116v32.337
		c0-23.812,19.304-43.116,43.116-43.116l0,0c23.812,0,43.116,19.304,43.116,43.116v-32.337
		C299.116,400.609,279.812,381.305,256,381.305z"/>
</g>
<g>
	<polygon style="fill:#F4E8B3;" points="169.768,74.105 137.432,74.105 126.653,165.726 126.653,499.874 180.547,499.874 
		180.547,165.726 	"/>
	<polygon style="fill:#F4E8B3;" points="374.568,74.105 342.232,74.105 331.453,165.726 331.453,499.874 385.347,499.874 
		385.347,165.726 	"/>
</g>
<g>
	<path style="fill:#FFFFFF;" d="M37.726,305.853H21.558v-16.168h16.168V305.853z M37.726,273.516H21.558v-53.895h16.168V273.516z"/>
	<path style="fill:#FFFFFF;" d="M490.442,305.853h-16.168v-16.168h16.168V305.853z M490.442,273.516h-16.168v-53.895h16.168V273.516
		z"/>
	<path style="fill:#FFFFFF;" d="M161.684,230.4h-16.168v-16.168h16.168V230.4z M161.684,198.063h-16.168v-53.895h16.168V198.063z"/>
	<path style="fill:#FFFFFF;" d="M365.406,230.4h-16.168v-16.168h16.168V230.4z M365.406,198.063h-16.168v-53.895h16.168V198.063z"/>
</g>
<rect x="21.558" y="74.105" width="16.168" height="16.168"/>
<rect x="75.453" y="181.895" width="16.168" height="16.168"/>
<path d="M506.527,186.117l-6.254-50.033h-9.831v-35.032h-16.168v35.032h-9.831l-6.254,50.033l-5.472,32.835v55.518l-16.168-17.435
	v-48.193h-16.168v30.759l-7.546-8.137l-11.855,10.995l51.738,55.789v193.542h-45.811v16.168h45.811h16.168H512V218.952
	L506.527,186.117z M495.832,491.789h-26.947V220.29l5.28-31.677l4.552-36.361h7.285l4.505,36.034l5.327,32.003v271.5H495.832z"/>
<rect x="474.274" y="74.105" width="16.168" height="16.168"/>
<rect x="129.347" y="4.042" width="16.168" height="16.168"/>
<path d="M177.853,30.989h-16.168v35.032h-16.168V30.989h-16.168v42.642l-10.779,91.622v342.705h70.063V165.253l-10.779-91.622
	V30.989z M172.463,491.789h-11.857V251.958h-16.168v239.832h-9.701v-325.59l9.883-84.01h17.959l9.884,84.01V491.789z"/>
<rect x="161.684" y="4.042" width="16.168" height="16.168"/>
<rect x="215.579" y="47.158" width="16.168" height="16.168"/>
<rect x="280.253" y="47.158" width="16.168" height="16.168"/>
<rect x="247.916" y="25.6" width="16.168" height="16.168"/>
<path d="M260.484,159L256,156.01l-4.484,2.99c-22.503,15.002-35.937,40.104-35.937,67.149v50.062h-13.474v16.168h13.474h80.842
	h13.474v-16.168h-13.474v-50.062C296.421,199.104,282.987,174.002,260.484,159z M280.253,276.211h-48.505v-50.062
	c0-19.763,8.973-38.231,24.253-50.422c15.279,12.191,24.253,30.657,24.253,50.422V276.211z"/>
<polygon points="197.946,363.594 206.265,377.458 256,347.618 305.735,377.458 314.054,363.594 256,328.761 "/>
<path d="M256,373.221c-28.231,0-51.2,22.969-51.2,51.2v83.537h102.4v-83.537C307.2,396.19,284.231,373.221,256,373.221z
	 M291.032,491.789h-70.063v-67.368c0-19.316,15.716-35.032,35.032-35.032s35.032,15.716,35.032,35.032V491.789z"/>
<polygon points="296.421,74.105 280.253,74.105 280.253,93.117 264.084,76.246 264.084,57.937 247.916,57.937 247.916,76.246 
	231.747,93.117 231.747,74.105 215.579,74.105 215.579,109.989 192.161,134.425 203.834,145.613 256,91.179 306.713,144.096 
	318.386,132.909 296.421,109.988 "/>
<rect x="409.6" y="413.642" width="16.168" height="16.168"/>
<rect x="409.6" y="316.632" width="16.168" height="16.168"/>
<rect x="409.6" y="445.979" width="16.168" height="16.168"/>
<rect x="409.6" y="348.968" width="16.168" height="16.168"/>
<rect x="409.6" y="381.305" width="16.168" height="16.168"/>
<rect x="86.232" y="381.305" width="16.168" height="16.168"/>
<rect x="86.232" y="445.979" width="16.168" height="16.168"/>
<rect x="86.232" y="348.968" width="16.168" height="16.168"/>
<rect x="86.232" y="316.632" width="16.168" height="16.168"/>
<rect x="86.232" y="413.642" width="16.168" height="16.168"/>
<path d="M97.821,231.535l-6.2,6.849v-29.542H75.453v47.4l-16.168,17.859v-55.149l-5.472-32.835l-6.254-50.033h-9.831v-35.032H21.558
	v35.032h-9.831l-6.254,50.033L0,218.952v289.006h43.116h16.168h44.531v-16.168H59.284V298.192l32.1-35.455h0.237v-0.262
	l18.187-20.088L97.821,231.535z M43.116,291.96v199.83H16.168V220.29l5.28-31.677L26,152.253h7.285l4.505,36.034l5.326,32.004
	V291.96z"/>
<rect x="334.147" y="4.042" width="16.168" height="16.168"/>
<path d="M382.653,30.989h-16.168v35.032h-16.168V30.989h-16.168v42.642l-10.779,91.622v342.705h70.063V165.253l-10.779-91.622
	V30.989z M377.263,491.789h-11.857V251.958h-16.168v239.832h-9.701v-325.59l9.883-84.01h17.959l9.884,84.01V491.789z"/>
<rect x="366.484" y="4.042" width="16.168" height="16.168"/>
<rect x="420.379" y="181.895" width="16.168" height="16.168"/>
<g>
</g>
<g>
</g>
<g>
</g>
<g>
</g>
<g>
</g>
<g>
</g>
<g>
</g>
<g>
</g>
<g>
</g>
<g>
</g>
<g>
</g>
<g>
</g>
<g>
</g>
<g>
</g>
<g>
</g>
</svg>
