<svg xmlns="http://www.w3.org/2000/svg" viewBox="0 0 720.5 512.64"><defs><style>.cls-1{fill:#012231;}.cls-2{fill:#ff9037;}.cls-3{fill:#ffb037;}.cls-4{fill:#014059;}.cls-5{fill:#aa011a;}.cls-6{fill:#ffd237;}.cls-7{fill:#ff0021;}.cls-8{fill:#fff;}.cls-9{fill:#ff4b37;}.cls-10{fill:#eff6f9;}.cls-11{fill:#015e82;}.cls-12{fill:#007caa;}</style></defs><title>clasico</title><g id="Layer_2" data-name="Layer 2"><g id="Layer_1-2" data-name="Layer 1"><path d="M467,74.29V38.08H384.17a90.94,90.94,0,0,1-64.73-26.84L308.83.64l-10.6,10.6A90.94,90.94,0,0,1,233.5,38.08l-60,218.54,60,255.89.13.13L277,469.26A194.9,194.9,0,0,0,467,274.32V236.86l-4.39-4.39a108.68,108.68,0,0,1,0-153.79Z"/><path class="cls-1" d="M168.77,11.24,158.17.64l-10.61,10.6A90.92,90.92,0,0,1,82.83,38.08H0V74.29l4.39,4.39a108.05,108.05,0,0,1,31.88,76.9A108,108,0,0,1,4.39,232.47L0,236.87v37.45A194.89,194.89,0,0,0,190.25,469.26l43.25,43.25V38.08A91,91,0,0,1,168.77,11.24Z"/><path class="cls-2" d="M431.82,68.08H384.17a120.57,120.57,0,0,1-75.34-26.17A120.52,120.52,0,0,1,233.5,68.08l-60,188.54,60,213.46.13.13,30.89-30.89h7.6c90.91,0,164.88-74,164.88-165V249.09C390.55,198.24,388.83,120.9,431.82,68.08Z"/><path class="cls-3" d="M158.17,41.91A120.57,120.57,0,0,1,82.83,68.08H35.18c43,52.82,41.26,130.16-5.18,181v25.23c0,91,74,165,164.88,165h7.85l30.77,30.77v-402A120.52,120.52,0,0,1,158.17,41.91Z"/><path class="cls-4" d="M60,250.17v24.15a135.24,135.24,0,0,0,86.75,126.11l30-75.13-30-75.13Z"/><path class="cls-5" d="M320.25,400.43A135.24,135.24,0,0,0,407,274.32V250.17H320.25l-30,79.58Z"/><path class="cls-4" d="M233.5,250.17l-30,79.58,30,79.57h38.61a134.07,134.07,0,0,0,48.14-8.9V250.17Z"/><path class="cls-5" d="M146.75,250.17V400.43a134.05,134.05,0,0,0,48.13,8.89H233.5V250.17Z"/><path class="cls-6" d="M377.07,201.15a170.16,170.16,0,0,1-1.34-86.06l4-16.17-16.49-2.27c-3.27-.45-6.5-1-9.71-1.66l-20,64.14,20,61h28.87Z"/><path class="cls-7" d="M323.5,85.48l-20,73.65,20,61h30V95A148.94,148.94,0,0,1,323.5,85.48Z"/><path class="cls-6" d="M315.63,81.77l-6.8-3.45L302,81.77q-4.21,2.15-8.53,4l-20,73.35,20,61h30V85.48C320.85,84.32,318.22,83.09,315.63,81.77Z"/><path class="cls-7" d="M263.5,95.14l-20,64,20,61h30V85.78A148.21,148.21,0,0,1,263.5,95.14Z"/><path class="cls-6" d="M233.5,98.08l-20,61.05,20,61h30v-125A153,153,0,0,1,233.5,98.08Z"/><path class="cls-2" d="M233.5,289.75l-25,40,25,40a40,40,0,0,0,0-80Z"/><path class="cls-3" d="M193.5,329.75a40,40,0,0,0,40,40v-80A40,40,0,0,0,193.5,329.75Z"/><path class="cls-8" d="M84.63,220.17l5.3-19a170.16,170.16,0,0,0,1.34-86.06l-4-16.17,16.49-2.27a150.43,150.43,0,0,0,30.47-7.48l24.81,53.41,24.81-52.77a150.81,150.81,0,0,0,49.62,8.27v32.1L218.5,155l15,24.81v40.38H183.88l-24.81-46.61-24.81,46.61H84.63Z"/><path class="cls-7" d="M134.26,220.17V179.8H94.42a170.48,170.48,0,0,0-.18-49.62h40v-41a148.43,148.43,0,0,0,17.11-7.4l6.8-3.45,6.8,3.45a148.18,148.18,0,0,0,18.91,8v40.37H233.5V179.8H183.88v40.37Z"/><path class="cls-7" d="M659.37,116.19v.08L625.79,166H479.5l45-91A239.3,239.3,0,0,1,659.37,116.19Z"/><path class="cls-9" d="M524.5,75v91H423.21l-33.58-49.73v-.08A239.3,239.3,0,0,1,524.5,75Z"/><polygon class="cls-6" points="524.5 15 494.5 15 494.5 75 539.5 75 524.5 15"/><rect class="cls-3" x="524.5" y="15" width="30" height="60"/><path class="cls-6" d="M469.49,65.9a59.86,59.86,0,0,1,55-35.9l15-15-15-15a89.77,89.77,0,0,0-50.62,15.51,89.81,89.81,0,0,0-99.3,85.68l0,.35.1,19.35,36.12,53.5,24.86-16.79-24.95-37a223.4,223.4,0,0,1,29.44-14.43L454,148.62l28.52-9.32L468.65,96.92A227.74,227.74,0,0,1,524.5,90l15-15-15-15A258.4,258.4,0,0,0,469.49,65.9Zm-33.86,9.88a252,252,0,0,0-28.85,12.77,59.77,59.77,0,0,1,37.85-40.2A89.45,89.45,0,0,0,435.63,75.78Z"/><path class="cls-3" d="M674.42,101.19a89.81,89.81,0,0,0-99.3-85.68A89.77,89.77,0,0,0,524.5,0V30a59.87,59.87,0,0,1,55,35.9,258.4,258.4,0,0,0-55-5.9V90a227.36,227.36,0,0,1,55.87,6.93l-13.88,42.36L595,148.63l13.9-42.41a223,223,0,0,1,29.41,14.42l-24.95,37,24.86,16.79,36.13-53.5.09-19.35Zm-61-25.41a89.37,89.37,0,0,0-9-27.43,59.77,59.77,0,0,1,37.85,40.2A253.75,253.75,0,0,0,613.37,75.78Z"/><path class="cls-3" d="M524.5,120l-120,196,120,196c108.08,0,196-87.92,196-196S632.58,120,524.5,120Z"/><path class="cls-6" d="M328.5,316c0,108.08,87.93,196,196,196V120C416.43,120,328.5,207.93,328.5,316Z"/><path class="cls-10" d="M524.5,150,422.87,316,524.5,482c91.53,0,166-74.47,166-166S616,150,524.5,150Z"/><path class="cls-8" d="M358.5,316c0,91.53,74.47,166,166,166V150C433,150,358.5,224.47,358.5,316Z"/><path class="cls-11" d="M609.31,379.6l-75.46-75.46L494.51,362l80.35,80.35a136.35,136.35,0,0,0,45.75-30.21Z"/><polygon class="cls-12" points="439.57 239.86 404.77 272.23 524.5 391.96 524.5 294.79 439.57 239.86"/><path class="cls-3" d="M578.24,369.74,557,348.53A45.9,45.9,0,0,1,524.5,362l-15,15,15,15A75.75,75.75,0,0,0,578.24,369.74Z"/><path class="cls-3" d="M620.67,219.83l-10.61-10.6-43.48,43.48A75.91,75.91,0,0,0,524.5,240l-15,15,15,15a46.1,46.1,0,0,1,20.14,4.62L524.5,294.79l-15,12.42,15,30,84.82-84.81A106.21,106.21,0,0,1,599.45,391l21.22,21.22a136.16,136.16,0,0,0,0-192.34Z"/><path class="cls-6" d="M504.37,274.65A46,46,0,0,1,524.5,270V240a75.91,75.91,0,0,0-42.08,12.67l-43.48-43.48-10.6,10.6a136.14,136.14,0,0,0,0,192.34L449.55,391a106.21,106.21,0,0,1-9.87-138.55l21.53,21.52A76,76,0,0,0,524.5,392V362a46,46,0,0,1-41.35-66.12l41.35,41.35V294.79Z"/></g></g></svg>