<svg height="512pt" viewBox="-4 0 512 512" width="512pt" xmlns="http://www.w3.org/2000/svg"><path d="m373.152344 399.1875c-4.789063 0-8.679688-3.878906-8.679688-8.679688v-86.777343c0-4.800781 3.890625-8.679688 8.679688-8.679688 4.789062 0 8.679687 3.878907 8.679687 8.679688v86.777343c0 4.800782-3.890625 8.679688-8.679687 8.679688zm0 0" fill="#8db0c6"/><path d="m184.15625 168.71875c-6.96875-13.9375-10.597656-29.308594-10.597656-44.882812 0-7.324219-.796875-14.625-2.386719-21.773438l-14.96875-67.351562v-8.675782h-69.421875v8.675782l-14.972656 67.351562c-1.585938 7.140625-2.386719 14.449219-2.386719 21.773438 0 15.585937-3.625 30.953124-10.59375 44.882812-10.152344 20.304688-15.4375 42.695312-15.4375 65.394531v199.785157h156.203125v-199.785157c0-22.699219-5.285156-45.089843-15.4375-65.394531zm0 0" fill="#426d5f"/><path d="m442.578125 147.527344h-138.847656s-26.035157 26.03125-26.035157 60.742187c0 52.765625 42.695313 95.460938 95.457032 95.460938 52.761718 0 95.457031-42.695313 95.457031-95.460938 0-34.710937-26.03125-60.742187-26.03125-60.742187zm0 0" fill="#c6e2f7"/><path d="m312.40625 208.269531c0 33.488281 27.25 60.746094 60.746094 60.746094s60.746094-27.257813 60.746094-60.746094zm0 0" fill="#dd352e"/><path d="m390.507812 390.507812h-34.710937c-19.167969 0-34.710937 15.542969-34.710937 34.710938v8.679688h104.132812v-8.679688c0-19.167969-15.539062-34.710938-34.710938-34.710938zm0 0" fill="#c6e2f7"/><path d="m104.144531 121.492188c-.53125 0-1.066406-.050782-1.613281-.15625-4.714844-.886719-7.8125-5.414063-6.933594-10.128907 1.683594-8.988281 3.914063-17.46875 6.066406-25.660156 1.542969-5.890625 3.105469-11.820313 4.484376-18.007813 1.042968-4.675781 5.675781-7.582031 10.351562-6.59375 4.679688 1.042969 7.628906 5.675782 6.589844 10.351563-1.425782 6.414063-3.039063 12.550781-4.636719 18.660156-2.167969 8.261719-4.214844 16.0625-5.785156 24.445313-.78125 4.183594-4.425781 7.089844-8.523438 7.089844zm0 0" fill="#6f9b8b"/><path d="m89.867188 192.917969c-1.292969 0-2.609376-.285157-3.84375-.902344-4.292969-2.125-6.046876-7.332031-3.921876-11.625 1.503907-3.039063 2.941407-5.746094 4.289063-8.296875 4.738281-8.972656 7.871094-14.910156 9.128906-25.582031.5625-4.765625 4.867188-8.167969 9.640625-7.601563 4.761719.5625 8.15625 4.875 7.601563 9.628906-1.640625 13.894532-5.988281 22.121094-11.019531 31.648438-1.285157 2.421875-2.648438 5.019531-4.082032 7.90625-1.527344 3.054688-4.597656 4.824219-7.792968 4.824219zm0 0" fill="#6f9b8b"/><path d="m160.542969 34.710938h-78.101563c-7.1875 0-13.019531-7.765626-13.019531-17.355469 0-9.589844 5.832031-17.355469 13.019531-17.355469h78.101563c7.183593 0 13.015625 7.765625 13.015625 17.355469 0 9.589843-5.832032 17.355469-13.015625 17.355469zm0 0" fill="#2d5144"/><path d="m43.390625 225.628906h156.203125v156.203125h-156.203125zm0 0" fill="#f7e6a1"/><path d="m78.09375 303.726562 43.390625-43.386718 43.386719 43.386718-43.386719 43.390626zm0 0" fill="#c4b36c"/><path d="m69.421875 459.933594v17.355468c0 19.167969 15.542969 34.710938 34.714844 34.710938h295.050781c19.167969 0 34.710938-15.542969 34.710938-34.710938v-17.355468zm0 0" fill="#afb6bb"/><path d="m451.253906 477.289062h-399.1875c-28.757812 0-52.066406-23.308593-52.066406-52.070312h503.320312c0 28.761719-23.308593 52.070312-52.066406 52.070312zm0 0" fill="#e7eced"/><path d="m373.144531 216.949219c-1.746093 0-3.507812-.53125-5.042969-1.621094-3.894531-2.777344-4.796874-8.203125-2.011718-12.109375l86.777344-121.488281c2.785156-3.90625 8.210937-4.808594 12.105468-2.015625 3.898438 2.777344 4.800782 8.203125 2.015625 12.105468l-86.78125 121.492188c-1.683593 2.371094-4.355469 3.636719-7.0625 3.636719zm0 0" fill="#8db0c6"/></svg>