<svg xmlns="http://www.w3.org/2000/svg" height="511pt" version="1.1" viewBox="0 -49 511.99988 511" width="511pt">
<g id="surface1">
<path d="M 337.902344 165.109375 L 204.175781 165.109375 L 298.734375 70.550781 L 288.101562 59.917969 L 193.542969 154.472656 L 193.542969 20.75 L 178.503906 20.75 L 178.503906 154.472656 L 83.949219 59.917969 L 73.3125 70.550781 L 167.871094 165.109375 L 34.148438 165.109375 L 34.148438 180.144531 L 167.871094 180.144531 L 73.3125 274.703125 L 83.949219 285.335938 L 178.503906 190.78125 L 178.503906 324.503906 L 193.542969 324.503906 L 193.542969 190.78125 L 288.101562 285.335938 L 298.734375 274.703125 L 204.175781 180.144531 L 337.902344 180.144531 Z M 337.902344 165.109375 " style=" stroke:none;fill-rule:nonzero;fill:rgb(78.431373%,90.196078%,92.156863%);fill-opacity:1;" />
<path d="M 186.023438 332.023438 C 98.132812 332.023438 26.628906 260.519531 26.628906 172.625 C 26.628906 84.734375 98.132812 13.230469 186.023438 13.230469 C 273.917969 13.230469 345.421875 84.734375 345.421875 172.625 C 345.421875 260.519531 273.917969 332.023438 186.023438 332.023438 Z M 186.023438 28.269531 C 106.425781 28.269531 41.664062 93.027344 41.664062 172.625 C 41.664062 252.226562 106.425781 316.984375 186.023438 316.984375 C 265.625 316.984375 330.382812 252.226562 330.382812 172.625 C 330.382812 93.027344 265.625 28.269531 186.023438 28.269531 Z M 186.023438 28.269531 " style=" stroke:none;fill-rule:nonzero;fill:rgb(78.431373%,90.196078%,92.156863%);fill-opacity:1;" />
<path d="M 116.199219 378.800781 C 111.253906 378.800781 107.984375 373.597656 110.183594 369.128906 L 178.59375 230.335938 C 181.628906 224.175781 190.417969 224.175781 193.457031 230.335938 L 261.863281 369.128906 C 264.050781 373.570312 260.828125 378.800781 255.847656 378.800781 Z M 116.199219 378.800781 " style=" stroke:none;fill-rule:nonzero;fill:rgb(42.352941%,60.784314%,66.666667%);fill-opacity:1;" />
<path d="M 62.808594 165.109375 L 62.808594 164.777344 C 62.808594 157.929688 57.257812 152.378906 50.410156 152.378906 L 19.917969 152.378906 C 13.070312 152.378906 7.519531 157.929688 7.519531 164.777344 L 7.519531 165.109375 C 3.367188 165.109375 0 168.476562 0 172.625 C 0 176.777344 3.367188 180.144531 7.519531 180.144531 L 7.519531 180.476562 C 7.519531 187.324219 13.070312 192.875 19.917969 192.875 L 50.410156 192.875 C 57.257812 192.875 62.808594 187.324219 62.808594 180.476562 L 62.808594 180.144531 C 66.960938 180.144531 70.328125 176.777344 70.328125 172.625 C 70.328125 168.476562 66.960938 165.109375 62.808594 165.109375 Z M 62.808594 165.109375 " style=" stroke:none;fill-rule:nonzero;fill:rgb(52.941176%,68.627451%,72.54902%);fill-opacity:1;" />
<path d="M 106.277344 272.5 L 106.277344 272.171875 C 106.277344 265.324219 100.722656 259.773438 93.875 259.773438 L 63.386719 259.773438 C 56.539062 259.773438 50.984375 265.324219 50.984375 272.171875 L 50.984375 272.5 C 46.832031 272.5 43.46875 275.867188 43.46875 280.019531 C 43.46875 284.171875 46.832031 287.539062 50.984375 287.539062 L 50.984375 287.871094 C 50.984375 294.71875 56.539062 300.269531 63.386719 300.269531 L 93.875 300.269531 C 100.722656 300.269531 106.277344 294.71875 106.277344 287.871094 L 106.277344 287.539062 C 110.425781 287.539062 113.792969 284.171875 113.792969 280.019531 C 113.796875 275.867188 110.429688 272.5 106.277344 272.5 Z M 106.277344 272.5 " style=" stroke:none;fill-rule:nonzero;fill:rgb(52.941176%,68.627451%,72.54902%);fill-opacity:1;" />
<path d="M 106.277344 57.714844 L 106.277344 57.382812 C 106.277344 50.535156 100.722656 44.984375 93.875 44.984375 L 63.386719 44.984375 C 56.539062 44.984375 50.984375 50.535156 50.984375 57.382812 L 50.984375 57.714844 C 46.832031 57.714844 43.46875 61.082031 43.46875 65.234375 C 43.46875 69.386719 46.832031 72.753906 50.984375 72.753906 L 50.984375 73.082031 C 50.984375 79.929688 56.539062 85.480469 63.386719 85.480469 L 93.875 85.480469 C 100.722656 85.480469 106.277344 79.929688 106.277344 73.082031 L 106.277344 72.753906 C 110.425781 72.753906 113.792969 69.386719 113.792969 65.234375 C 113.792969 61.082031 110.429688 57.714844 106.277344 57.714844 Z M 106.277344 57.714844 " style=" stroke:none;fill-rule:nonzero;fill:rgb(52.941176%,68.627451%,72.54902%);fill-opacity:1;" />
<path d="M 213.667969 13.230469 L 213.667969 12.898438 C 213.667969 6.050781 208.117188 0.5 201.269531 0.5 L 170.777344 0.5 C 163.929688 0.5 158.378906 6.050781 158.378906 12.898438 L 158.378906 13.230469 C 154.226562 13.230469 150.859375 16.597656 150.859375 20.75 C 150.859375 24.902344 154.226562 28.269531 158.378906 28.269531 L 158.378906 28.597656 C 158.378906 35.445312 163.929688 40.996094 170.777344 40.996094 L 201.269531 40.996094 C 208.117188 40.996094 213.667969 35.445312 213.667969 28.597656 L 213.667969 28.269531 C 217.820312 28.269531 221.1875 24.902344 221.1875 20.75 C 221.1875 16.597656 217.824219 13.230469 213.667969 13.230469 Z M 213.667969 13.230469 " style=" stroke:none;fill-rule:nonzero;fill:rgb(52.941176%,68.627451%,72.54902%);fill-opacity:1;" />
<path d="M 321.0625 57.714844 L 321.0625 57.382812 C 321.0625 50.535156 315.511719 44.984375 308.664062 44.984375 L 278.171875 44.984375 C 271.324219 44.984375 265.773438 50.535156 265.773438 57.382812 L 265.773438 57.714844 C 261.621094 57.714844 258.253906 61.082031 258.253906 65.234375 C 258.253906 69.386719 261.621094 72.753906 265.773438 72.753906 L 265.773438 73.082031 C 265.773438 79.929688 271.324219 85.480469 278.171875 85.480469 L 308.664062 85.480469 C 315.511719 85.480469 321.0625 79.929688 321.0625 73.082031 L 321.0625 72.753906 C 325.214844 72.753906 328.582031 69.386719 328.582031 65.234375 C 328.582031 61.082031 325.214844 57.714844 321.0625 57.714844 Z M 321.0625 57.714844 " style=" stroke:none;fill-rule:nonzero;fill:rgb(52.941176%,68.627451%,72.54902%);fill-opacity:1;" />
<path d="M 365.546875 165.109375 L 365.546875 164.777344 C 365.546875 157.929688 359.996094 152.378906 353.148438 152.378906 L 322.65625 152.378906 C 315.808594 152.378906 310.257812 157.929688 310.257812 164.777344 L 310.257812 165.109375 C 306.105469 165.109375 302.738281 168.476562 302.738281 172.625 C 302.738281 176.777344 306.105469 180.144531 310.257812 180.144531 L 310.257812 180.476562 C 310.257812 187.324219 315.808594 192.875 322.65625 192.875 L 353.148438 192.875 C 359.996094 192.875 365.546875 187.324219 365.546875 180.476562 L 365.546875 180.144531 C 369.699219 180.144531 373.066406 176.777344 373.066406 172.625 C 373.066406 168.476562 369.699219 165.109375 365.546875 165.109375 Z M 365.546875 165.109375 " style=" stroke:none;fill-rule:nonzero;fill:rgb(52.941176%,68.627451%,72.54902%);fill-opacity:1;" />
<path d="M 251.277344 414.460938 C 242.152344 414.460938 234.753906 407.0625 234.753906 397.933594 L 234.753906 265.855469 C 234.753906 256.730469 242.152344 249.332031 251.277344 249.332031 C 260.40625 249.332031 267.800781 256.730469 267.800781 265.855469 L 267.800781 397.9375 C 267.800781 407.0625 260.40625 414.460938 251.277344 414.460938 Z M 251.277344 414.460938 " style=" stroke:none;fill-rule:nonzero;fill:rgb(37.254902%,43.137255%,60.784314%);fill-opacity:1;" />
<path d="M 291.460938 414.460938 C 282.332031 414.460938 274.9375 407.0625 274.9375 397.933594 L 274.9375 265.855469 C 274.9375 256.730469 282.332031 249.332031 291.460938 249.332031 C 300.585938 249.332031 307.984375 256.730469 307.984375 265.855469 L 307.984375 397.9375 C 307.984375 407.0625 300.585938 414.460938 291.460938 414.460938 Z M 291.460938 414.460938 " style=" stroke:none;fill-rule:nonzero;fill:rgb(25.490196%,29.411765%,50.980392%);fill-opacity:1;" />
<path d="M 407.511719 211.566406 C 369.386719 173.921875 346.839844 156.164062 341.90625 151.710938 C 334.046875 144.617188 322.167969 133.894531 308.402344 133.894531 C 270.988281 133.894531 262.472656 133.894531 234.332031 133.894531 C 216.453125 133.894531 201.835938 148.4375 201.746094 166.316406 C 201.746094 166.351562 201.746094 166.386719 201.746094 166.417969 L 201.988281 267.582031 C 202.007812 275.175781 208.167969 281.320312 215.757812 281.320312 C 215.769531 281.320312 215.78125 281.320312 215.792969 281.320312 C 223.398438 281.300781 229.546875 275.121094 229.527344 267.515625 L 229.285156 166.417969 C 229.316406 163.667969 231.574219 161.433594 234.332031 161.433594 L 234.75 161.433594 L 234.75 265.855469 L 307.6875 265.855469 L 307.6875 161.433594 L 308.328125 161.433594 C 311.949219 161.769531 320.609375 169.585938 323.457031 172.15625 C 329.378906 177.5 350.261719 193.789062 388.164062 231.164062 C 393.566406 236.5 402.285156 236.460938 407.636719 231.039062 C 412.980469 225.625 412.921875 216.910156 407.511719 211.566406 Z M 407.511719 211.566406 " style=" stroke:none;fill-rule:nonzero;fill:rgb(100%,71.372549%,61.960784%);fill-opacity:1;" />
<path d="M 350.957031 159.414062 C 346.425781 155.5625 343.375 153.035156 341.90625 151.710938 C 334.046875 144.617188 322.167969 133.894531 308.402344 133.894531 L 287.488281 133.894531 C 287.75 142.402344 279.84375 149.613281 271.585938 149.613281 C 262.734375 149.613281 256.171875 142.429688 255.695312 133.894531 L 234.332031 133.894531 C 216.453125 133.894531 201.832031 148.4375 201.746094 166.320312 L 201.746094 166.421875 L 201.8125 195.027344 L 229.351562 195.027344 L 229.285156 166.421875 C 229.316406 163.667969 231.574219 161.4375 234.332031 161.4375 L 234.746094 161.4375 L 234.746094 265.859375 L 307.683594 265.859375 L 307.683594 161.433594 L 308.328125 161.433594 C 311.945312 161.769531 320.609375 169.585938 323.453125 172.15625 C 325.824219 174.292969 330.597656 178.195312 337.902344 184.496094 Z M 350.957031 159.414062 " style=" stroke:none;fill-rule:nonzero;fill:rgb(39.215686%,68.627451%,100%);fill-opacity:1;" />
<path d="M 339.847656 414.460938 C 331.125 414.460938 324.054688 407.390625 324.054688 398.667969 L 324.054688 273.355469 C 324.054688 264.636719 331.125 257.566406 339.847656 257.566406 C 348.566406 257.566406 355.636719 264.636719 355.636719 273.355469 L 355.636719 398.667969 C 355.636719 407.390625 348.566406 414.460938 339.847656 414.460938 Z M 339.847656 414.460938 " style=" stroke:none;fill-rule:nonzero;fill:rgb(100%,71.372549%,61.960784%);fill-opacity:1;" />
<path d="M 377.96875 414.460938 C 369.25 414.460938 362.179688 407.390625 362.179688 398.667969 L 362.179688 273.355469 C 362.179688 264.636719 369.25 257.566406 377.96875 257.566406 C 386.691406 257.566406 393.761719 264.636719 393.761719 273.355469 L 393.761719 398.667969 C 393.761719 407.390625 386.691406 414.460938 377.96875 414.460938 Z M 377.96875 414.460938 " style=" stroke:none;fill-rule:nonzero;fill:rgb(100%,71.372549%,61.960784%);fill-opacity:1;" />
<path d="M 482.425781 161.730469 L 440.371094 163.027344 L 404.664062 151.289062 C 397.804688 149.035156 390.667969 147.890625 383.449219 147.890625 C 370.460938 147.890625 359.304688 147.890625 336.277344 147.890625 C 322.527344 147.890625 315.015625 154.6875 308.386719 160.6875 C 308.375 160.695312 286.015625 180.539062 275.132812 190.308594 C 269.671875 195.207031 269.269531 203.625 274.230469 209.019531 L 303.933594 241.300781 C 307.117188 244.757812 311.949219 246.332031 316.742188 245.160156 L 307.074219 295.085938 C 306.203125 299.578125 309.667969 303.730469 314.199219 303.730469 C 334.386719 303.730469 383.445312 303.730469 403.617188 303.730469 C 408.171875 303.730469 411.613281 299.574219 410.742188 295.085938 L 389.351562 174.636719 C 389.351562 174.636719 404.554688 179.246094 434.355469 188.753906 C 435.839844 189.238281 437.382812 189.453125 438.867188 189.402344 L 483.234375 188.035156 C 490.5 187.8125 496.207031 181.742188 495.980469 174.476562 C 495.757812 167.214844 489.707031 161.5 482.425781 161.730469 Z M 302.636719 201.023438 C 302.746094 200.921875 327.878906 178.554688 327.996094 178.449219 L 321.351562 221.367188 Z M 302.636719 201.023438 " style=" stroke:none;fill-rule:nonzero;fill:rgb(100%,71.372549%,61.960784%);fill-opacity:1;" />
<path d="M 424.519531 157.816406 L 404.664062 151.289062 C 397.804688 149.035156 390.667969 147.890625 383.449219 147.890625 L 371.273438 147.890625 C 371.140625 154.226562 367 160.464844 358.839844 160.464844 C 350.671875 160.464844 346.535156 154.230469 346.40625 147.890625 L 336.277344 147.890625 C 322.527344 147.890625 315.015625 154.6875 308.386719 160.6875 C 308.378906 160.691406 299.703125 168.390625 290.527344 176.5625 L 309.832031 194.617188 C 309.832031 194.617188 327.917969 178.515625 327.996094 178.449219 L 307.074219 295.085938 C 306.203125 299.578125 309.664062 303.730469 314.199219 303.730469 L 403.617188 303.730469 C 408.171875 303.730469 411.609375 299.574219 410.738281 295.085938 L 389.351562 174.636719 C 389.351562 174.636719 398.476562 177.402344 416.429688 183.066406 Z M 424.519531 157.816406 " style=" stroke:none;fill-rule:nonzero;fill:rgb(98.039216%,31.372549%,23.529412%);fill-opacity:1;" />
<path d="M 491.9375 169.925781 L 477.332031 163.101562 C 474.40625 161.734375 473.140625 158.253906 474.511719 155.328125 L 486.246094 130.207031 C 487.613281 127.28125 491.097656 126.015625 494.023438 127.382812 L 508.625 134.207031 C 511.550781 135.574219 512.816406 139.058594 511.449219 141.984375 L 499.710938 167.101562 C 498.34375 170.027344 494.863281 171.292969 491.9375 169.925781 Z M 491.9375 169.925781 " style=" stroke:none;fill-rule:nonzero;fill:rgb(27.45098%,45.098039%,54.901961%);fill-opacity:1;" />
<path d="M 319.066406 96.257812 C 319.066406 112.019531 306.289062 124.796875 290.527344 124.796875 C 274.765625 124.796875 261.992188 112.019531 261.992188 96.257812 C 261.992188 80.496094 274.765625 67.71875 290.527344 67.71875 C 306.289062 67.71875 319.066406 80.496094 319.066406 96.257812 Z M 319.066406 96.257812 " style=" stroke:none;fill-rule:nonzero;fill:rgb(100%,71.372549%,61.960784%);fill-opacity:1;" />
<path d="M 385.984375 109.269531 C 385.984375 124.226562 373.863281 136.347656 358.90625 136.347656 C 343.953125 136.347656 331.832031 124.226562 331.832031 109.269531 C 331.832031 94.316406 343.953125 82.195312 358.90625 82.195312 C 373.863281 82.195312 385.984375 94.316406 385.984375 109.269531 Z M 385.984375 109.269531 " style=" stroke:none;fill-rule:nonzero;fill:rgb(100%,71.372549%,61.960784%);fill-opacity:1;" />
<path d="M 303.933594 241.300781 L 274.230469 209.019531 C 269.3125 203.667969 269.65625 195.34375 275.003906 190.425781 C 280.351562 185.503906 288.675781 185.851562 293.597656 191.199219 L 323.296875 223.480469 C 328.21875 228.832031 327.871094 237.15625 322.523438 242.074219 C 317.164062 247.007812 308.839844 246.636719 303.933594 241.300781 Z M 303.933594 241.300781 " style=" stroke:none;fill-rule:nonzero;fill:rgb(100%,71.372549%,61.960784%);fill-opacity:1;" />
</g>
</svg>