<?xml version="1.0" encoding="iso-8859-1"?>
<!-- Generator: Adobe Illustrator 19.0.0, SVG Export Plug-In . SVG Version: 6.00 Build 0)  -->
<svg version="1.1" id="Capa_1" xmlns="http://www.w3.org/2000/svg" xmlns:xlink="http://www.w3.org/1999/xlink" x="0px" y="0px"
	 viewBox="0 0 480 480" style="enable-background:new 0 0 480 480;" xml:space="preserve">
<path style="fill:#F7931E;" d="M288,404h72v40h-72V404z"/>
<path style="fill:#754C24;" d="M88,396h32v72H88V396z"/>
<path style="fill:#29ABE2;" d="M192,396h48v72h-48V396z"/>
<path style="fill:#80CAEC;" d="M240,396h48v72h-48V396z"/>
<path style="fill:#754C24;" d="M360,396h32v72h-32V396z"/>
<path style="fill:#FBB03B;" d="M120,340V52L248,4v336H120z"/>
<path style="fill:#F7931E;" d="M248,356V68l96,40v248H248z"/>
<path style="fill:#754C24;" d="M248,292h96v72h-96V292z"/>
<path style="fill:#8C6239;" d="M120,268h128v72H120V268z"/>
<g>
	<path style="fill:#F15A24;" d="M208,228h16v16h-16V228z"/>
	<path style="fill:#F15A24;" d="M176,228h16v16h-16V228z"/>
	<path style="fill:#F15A24;" d="M304,252h16v16h-16V252z"/>
	<path style="fill:#F15A24;" d="M272,252h16v16h-16V252z"/>
	<path style="fill:#F15A24;" d="M304,220h16v16h-16V220z"/>
	<path style="fill:#F15A24;" d="M272,220h16v16h-16V220z"/>
	<path style="fill:#F15A24;" d="M304,188h16v16h-16V188z"/>
	<path style="fill:#F15A24;" d="M272,188h16v16h-16V188z"/>
	<path style="fill:#F15A24;" d="M304,156h16v16h-16V156z"/>
	<path style="fill:#F15A24;" d="M272,156h16v16h-16V156z"/>
	<path style="fill:#F15A24;" d="M304,124h16v16h-16V124z"/>
	<path style="fill:#F15A24;" d="M272,124h16v16h-16V124z"/>
	<path style="fill:#F15A24;" d="M144,228h16v16h-16V228z"/>
	<path style="fill:#F15A24;" d="M208,196h16v16h-16V196z"/>
	<path style="fill:#F15A24;" d="M176,196h16v16h-16V196z"/>
	<path style="fill:#F15A24;" d="M144,196h16v16h-16V196z"/>
	<path style="fill:#F15A24;" d="M208,164h16v16h-16V164z"/>
	<path style="fill:#F15A24;" d="M176,164h16v16h-16V164z"/>
	<path style="fill:#F15A24;" d="M144,164h16v16h-16V164z"/>
	<path style="fill:#F15A24;" d="M208,132h16v16h-16V132z"/>
	<path style="fill:#F15A24;" d="M176,132h16v16h-16V132z"/>
	<path style="fill:#F15A24;" d="M144,132h16v16h-16V132z"/>
	<path style="fill:#F15A24;" d="M208,100h16v16h-16V100z"/>
	<path style="fill:#F15A24;" d="M176,100h16v16h-16V100z"/>
	<path style="fill:#F15A24;" d="M144,100h16v16h-16V100z"/>
	<path style="fill:#F15A24;" d="M208,68h16v16h-16V68z"/>
	<path style="fill:#F15A24;" d="M176,68h16v16h-16V68z"/>
	<path style="fill:#F15A24;" d="M144,68h16v16h-16V68z"/>
</g>
<path style="fill:#FBB03B;" d="M373.688,332c-16.008,10.336-34.634,15.886-53.688,16c-56,0-64-48-136-48S72,356,72,356v48h336v-56
	L373.688,332z"/>
<path style="fill:#39B54A;" d="M72,292c0,17.673-14.327,32-32,32S8,309.673,8,292c0-56,14.328-88,32-88S72,236,72,292z"/>
<path style="fill:#8C6239;" d="M32,292h16v176H32V292z"/>
<path style="fill:#39B54A;" d="M472,292c0,17.673-14.327,32-32,32s-32-14.327-32-32c0-56,14.328-88,32-88S472,236,472,292z"/>
<g>
	<path style="fill:#8C6239;" d="M432,292h16v176h-16V292z"/>
	<path style="fill:#8C6239;" d="M0,460h480v16H0V460z"/>
</g>
<g>
	<path style="fill:#F15A24;" d="M104,364h168v16H104V364z"/>
	<path style="fill:#F15A24;" d="M368,364h16v16h-16V364z"/>
	<path style="fill:#F15A24;" d="M136,332h16v16h-16V332z"/>
	<path style="fill:#F15A24;" d="M168,332h64v16h-64V332z"/>
</g>
<path style="fill:#FBB03B;" d="M288,436h72v24h-72V436z"/>
<path style="fill:#F7931E;" d="M120,404h72v40h-72V404z"/>
<path style="fill:#FBB03B;" d="M120,436h72v24h-72V436z"/>
<g>
</g>
<g>
</g>
<g>
</g>
<g>
</g>
<g>
</g>
<g>
</g>
<g>
</g>
<g>
</g>
<g>
</g>
<g>
</g>
<g>
</g>
<g>
</g>
<g>
</g>
<g>
</g>
<g>
</g>
</svg>
