<svg height="512pt" viewBox="-48 0 512 512" width="512pt" xmlns="http://www.w3.org/2000/svg"><path d="m253.425781 512c-15.609375 0-28.261719-12.652344-28.261719-28.261719v-98.199219c0-15.605468 12.652344-28.257812 28.261719-28.257812 15.605469 0 28.261719 12.652344 28.261719 28.257812v98.199219c0 15.609375-12.65625 28.261719-28.261719 28.261719zm0 0" fill="#5f75a1"/><path d="m225.164062 470.285156v13.453125c0 15.609375 12.652344 28.261719 28.261719 28.261719 15.605469 0 28.261719-12.652344 28.261719-28.261719v-13.453125zm0 0" fill="#404656"/><path d="m162.195312 512c-15.605468 0-28.257812-12.652344-28.257812-28.261719v-98.199219c0-15.605468 12.652344-28.257812 28.257812-28.257812 15.609376 0 28.261719 12.652344 28.261719 28.257812v98.199219c0 15.609375-12.652343 28.261719-28.261719 28.261719zm0 0" fill="#5f75a1"/><path d="m133.9375 470.285156v13.453125c0 15.609375 12.652344 28.261719 28.257812 28.261719 15.609376 0 28.261719-12.652344 28.261719-28.261719v-13.453125zm0 0" fill="#404656"/><path d="m310.546875 320.363281c0-65.203125-45.996094-118.0625-102.734375-118.0625-56.742188 0-102.738281 52.859375-102.738281 118.0625 0 65.207031 45.996093 103.816407 102.738281 103.816407 56.738281 0 102.734375-38.609376 102.734375-103.816407zm0 0" fill="#a0d9e7"/><path d="m116.652344 371.695312c17.128906 33.609376 51.507812 52.484376 91.160156 52.484376 39.648438 0 74.03125-18.875 91.15625-52.484376zm0 0" fill="#5f75a1"/><path d="m415.621094 153.652344c0-20.757813-19.804688-37.582032-44.238282-37.582032-24.433593 0-44.242187 16.824219-44.242187 37.582032 0 20.753906 19.808594 37.578125 44.242187 37.578125 24.433594 0 44.238282-16.824219 44.238282-37.578125zm0 0" fill="#f0cdb9"/><path d="m88.480469 153.652344c0-20.757813-19.804688-37.582032-44.238281-37.582032-24.433594 0-44.242188 16.824219-44.242188 37.582032 0 20.753906 19.808594 37.578125 44.242188 37.578125 24.433593 0 44.238281-16.824219 44.238281-37.578125zm0 0" fill="#f8dccc"/><path d="m376.640625 153.652344c0-84.859375-75.589844-153.652344-168.828125-153.652344-93.242188 0-168.828125 68.792969-168.828125 153.652344s75.585937 134.242187 168.828125 134.242187c93.238281 0 168.828125-49.382812 168.828125-134.242187zm0 0" fill="#f8dccc"/><path d="m123.792969 20.347656c-50.679688 26.515625-84.808594 76.28125-84.808594 133.304688 0 84.859375 75.585937 134.242187 168.828125 134.242187 8.519531 0 16.890625-.414062 25.074219-1.230469-170.699219-42.269531-156.566407-193.390624-109.09375-266.316406zm0 0" fill="#f0cdb9"/><path d="m142.605469 196.855469c0-16.769531-17.070313-30.367188-38.128907-30.367188-21.058593 0-38.128906 13.597657-38.128906 30.367188s17.070313 30.363281 38.128906 30.363281c21.058594 0 38.128907-13.59375 38.128907-30.363281zm0 0" fill="#f8b8bd"/><path d="m349.273438 196.855469c0-16.769531-17.070313-30.367188-38.128907-30.367188-21.054687 0-38.128906 13.597657-38.128906 30.367188s17.074219 30.363281 38.128906 30.363281c21.058594 0 38.128907-13.59375 38.128907-30.363281zm0 0" fill="#f8b8bd"/><g fill="#404656"><path d="m110.851562 168.5c-4.144531 0-7.5-3.355469-7.5-7.5v-16.363281c0-4.144531 3.355469-7.5 7.5-7.5 4.140626 0 7.5 3.355469 7.5 7.5v16.363281c0 4.144531-3.359374 7.5-7.5 7.5zm0 0"/><path d="m238.550781 173.523438c0-18.996094-13.761719-34.398438-30.738281-34.398438-16.980469 0-30.742188 15.402344-30.742188 34.398438 0 19 13.761719 34.398437 30.742188 34.398437 16.976562 0 30.738281-15.398437 30.738281-34.398437zm0 0"/><path d="m304.773438 168.5c-4.144532 0-7.5-3.355469-7.5-7.5v-16.363281c0-4.144531 3.355468-7.5 7.5-7.5 4.140624 0 7.5 3.355469 7.5 7.5v16.363281c0 4.144531-3.359376 7.5-7.5 7.5zm0 0"/><path d="m374.652344 130.019531c-12.492188-73.640625-82.429688-130.019531-166.839844-130.019531s-154.351562 56.378906-166.839844 130.019531c27.070313-4.542969 62.507813-27.109375 82.074219-53.140625 1.007813 11.21875 4.332031 19.328125 7.773437 25.296875.953126 1.648438 2.855469 2.53125 4.714844 2.105469 20.453125-4.6875 64.167969-31.765625 72.277344-50.636719 8.109375 18.871094 51.824219 45.949219 72.277344 50.636719 1.859375.425781 3.757812-.457031 4.710937-2.105469 3.445313-5.96875 6.769531-14.078125 7.777344-25.296875 19.5625 26.03125 55 48.597656 82.074219 53.140625zm0 0"/></g><path d="m123.785156 20.359375c-43.53125 22.777344-74.851562 62.707031-82.8125 109.660156 16.324219-2.738281 35.683594-12.035156 52.777344-24.691406 3.773438-32.132813 15.296875-62.320313 30.035156-84.96875zm0 0" fill="#353947"/><path d="m328.253906 439.261719-47.988281-11.105469c-12.453125-2.882812-25.402344-2.882812-37.855469 0l-69.199218 16.015625c-12.453126 2.882813-25.402344 2.882813-37.855469 0l-62.757813-14.527344c-14.855468-3.4375-25.371094-16.664062-25.371094-31.910156v-148.027344c0-21.074219 19.613282-36.664062 40.140626-31.910156l47.988281 11.105469c12.453125 2.882812 25.402343 2.882812 37.855469 0l69.199218-16.015625c12.453125-2.882813 25.402344-2.882813 37.855469 0l62.761719 14.523437c14.851562 3.4375 25.367187 16.667969 25.367187 31.914063v148.027343c0 21.074219-19.609375 36.664063-40.140625 31.910157zm0 0" fill="#69ab8d"/><path d="m242.410156 212.886719-69.199218 16.019531c-6.226563 1.441406-12.578126 2.160156-18.929688 2.160156v215.269532c6.351562 0 12.703125-.722657 18.929688-2.164063l69.199218-16.015625c6.230469-1.441406 12.578125-2.164062 18.929688-2.164062v-215.265626c-6.351563 0-12.699219.71875-18.929688 2.160157zm0 0" fill="#99da90"/><path d="m73.777344 392.921875v-135.597656c0-7.886719 7.339844-13.722657 15.023437-11.941407l46.554688 10.773438c12.453125 2.882812 25.402343 2.882812 37.855469 0l69.199218-16.015625c12.453125-2.882813 25.402344-2.882813 37.855469 0l52.082031 12.054687c5.558594 1.285157 9.496094 6.238282 9.496094 11.941407v135.597656c0 7.886719-7.339844 13.71875-15.023438 11.941406l-46.554687-10.773437c-12.453125-2.882813-25.398437-2.882813-37.851563 0l-69.203124 16.015625c-12.453126 2.882812-25.398438 2.882812-37.855469 0l-52.082031-12.054688c-5.558594-1.285156-9.496094-6.238281-9.496094-11.941406zm0 0" fill="#eab65f"/><path d="m261.339844 237.976562c-6.351563 0-12.699219.722657-18.929688 2.164063l-69.199218 16.015625c-6.226563 1.441406-12.578126 2.164062-18.929688 2.164062v160.761719c6.351562 0 12.703125-.722656 18.929688-2.164062l69.199218-16.015625c6.230469-1.441406 12.578125-2.164063 18.929688-2.164063zm0 0" fill="#f5ea72"/><path d="m210.410156 362.75-7.761718-17.664062c-.566407-1.296876-1.597657-2.328126-2.890626-2.898438l-17.65625-7.785156c-4.730468-2.085938-4.410156-8.902344.496094-10.535156l46.847656-15.582032c4.417969-1.46875 8.621094 2.738282 7.144532 7.15625l-15.644532 46.824219c-1.636718 4.90625-8.453124 5.21875-10.535156.484375zm0 0" fill="#404656"/><path d="m341.84375 336.027344v-15c-13.855469 0-27.019531 11.316406-37.066406 31.863281-7.746094 15.839844-12.648438 35.070313-12.992188 50.675781l14.769532 3.417969c.125-.542969.199218-1.105469.199218-1.6875 0-13.550781 4.511719-31.53125 11.5-45.816406 7.179688-14.683594 16-23.453125 23.589844-23.453125zm0 0" fill="#fff"/><path d="m152.878906 292.296875c-16.261718 3.097656-35.339844-.355469-52.167968-3.40625-10.410157-1.882813-19.398438-3.511719-26.933594-3.511719v15c6.191406 0 14.964844 1.589844 24.257812 3.273438 12.289063 2.222656 26.71875 4.835937 40.878906 4.835937 5.6875 0 11.328126-.421875 16.773438-1.457031 11.636719-2.214844 23.515625-9.289062 32.589844-19.402344 9.761718-10.886718 15.140625-23.929687 15.140625-36.726562 0-.582032-.074219-1.148438-.199219-1.691406l-14.851562 3.4375c-1.054688 19.140624-19.207032 36.546874-35.488282 39.648437zm0 0" fill="#fff"/><path d="m47.253906 352.769531c-10.085937 0-19.84375-5.40625-24.9375-14.917969-7.371094-13.757812-2.195312-30.886718 11.5625-38.257812 5.234375-2.804688 11.234375-4.21875 20.488282-6.214844 1.191406-.257812 2.253906-.484375 3.058593-.675781 15.195313-3.566406 30.40625 5.863281 33.972657 21.058594 3.566406 15.191406-5.863282 30.402343-21.058594 33.96875-1.0625.25-2.472656.554687-4.046875.894531-2.011719.433594-6 1.296875-7.839844 1.816406-3.628906 1.574219-7.4375 2.328125-11.199219 2.328125zm13.320313-3.355469c-.007813.003907-.015625.007813-.019531.011719.007812-.003906.011718-.007812.019531-.011719zm0 0" fill="#f8dccc"/><path d="m368.371094 352.769531c-3.765625 0-7.574219-.753906-11.203125-2.328125-1.839844-.519531-5.828125-1.378906-7.839844-1.8125-1.574219-.34375-2.984375-.648437-4.046875-.898437-15.195312-3.566407-24.625-18.773438-21.058594-33.96875 3.566406-15.195313 18.773438-24.625 33.972656-21.058594.800782.191406 1.867188.417969 3.058594.675781 9.253906 1.996094 15.253906 3.410156 20.488282 6.214844 13.753906 7.371094 18.933593 24.5 11.5625 38.257812-5.09375 9.507813-14.851563 14.917969-24.933594 14.917969zm-13.324219-3.355469c.007813.007813.015625.007813.019531.011719-.003906-.003906-.011718-.007812-.019531-.011719zm0 0" fill="#f8dccc"/></svg>