<?xml version="1.0" encoding="iso-8859-1"?>
<!-- Generator: Adobe Illustrator 22.1.0, SVG Export Plug-In . SVG Version: 6.00 Build 0)  -->
<svg xmlns="http://www.w3.org/2000/svg" xmlns:xlink="http://www.w3.org/1999/xlink" version="1.1" id="Layer_3" x="0px" y="0px" viewBox="0 0 64 64" style="enable-background:new 0 0 64 64;" xml:space="preserve" width="512" height="512">
<g>
	<rect x="4" y="28" style="fill:#7D4B35;" width="56" height="30"/>
	<rect x="4" y="28" style="fill:#A76447;" width="53" height="30"/>
	<rect x="18" y="32" style="fill:#DBE0E1;" width="28" height="26"/>
	<rect x="24" y="44" style="fill:#A76447;" width="8" height="14"/>
	<rect x="32" y="44" style="fill:#7D4B35;" width="8" height="14"/>
	<rect x="24" y="36" style="fill:#B9A33E;" width="16" height="4"/>
	<rect x="24" y="36" style="fill:#F7DA52;" width="13" height="4"/>
	<polyline style="fill:#7E8488;" points="50,54 50,36 46,36 46,54  "/>
	<rect x="46" y="36" style="fill:#B2B5B8;" width="2" height="18"/>
	<polyline style="fill:#7E8488;" points="18,54 18,36 14,36 14,54  "/>
	<rect x="14" y="36" style="fill:#B2B5B8;" width="2" height="18"/>
	<polyline style="fill:#5F6366;" points="12,32 12,36 20,36 20,32  "/>
	<polyline style="fill:#5F6366;" points="12,54 12,58 20,58 20,54  "/>
	<polyline style="fill:#5F6366;" points="44,54 44,58 52,58 52,54  "/>
	<polyline style="fill:#5F6366;" points="44,32 44,36 52,36 52,32  "/>
	<rect x="2" y="6" style="fill:#7D4B35;" width="60" height="4"/>
	<rect x="2" y="6" style="fill:#A76447;" width="57" height="4"/>
	<rect x="2" y="10" style="fill:#AE895D;" width="60" height="18"/>
	<rect x="2" y="10" style="fill:#E8B67C;" width="57" height="18"/>
	<rect x="12" y="24" style="fill:#7E8488;" width="4" height="8"/>
	<rect x="16" y="24" style="fill:#A4A8A9;" width="4" height="8"/>
	<rect x="20" y="24" style="fill:#7E8488;" width="4" height="8"/>
	<rect x="24" y="24" style="fill:#A4A8A9;" width="4" height="8"/>
	<rect x="28" y="24" style="fill:#7E8488;" width="4" height="8"/>
	<rect x="32" y="24" style="fill:#A4A8A9;" width="4" height="8"/>
	<rect x="36" y="24" style="fill:#7E8488;" width="4" height="8"/>
	<rect x="40" y="24" style="fill:#A4A8A9;" width="4" height="8"/>
	<rect x="44" y="24" style="fill:#7E8488;" width="4" height="8"/>
	<rect x="48" y="24" style="fill:#A4A8A9;" width="4" height="8"/>
	<polygon style="fill:#7E8488;" points="10,24 32,2 54,24  "/>
	<polygon style="fill:#B2B5B8;" points="10,24 51,24 30.5,3.5  "/>
	<circle style="fill:#A4A8A9;" cx="32" cy="15" r="5"/>
	<ellipse style="fill:#DBE0E1;" cx="30.5" cy="15" rx="3.5" ry="4.746"/>
	<rect x="2" y="58" style="fill:#AE895D;" width="60" height="4"/>
	<rect x="2" y="58" style="fill:#E8B67C;" width="57" height="4"/>
</g>
</svg>
