<svg height="512pt" viewBox="0 0 512 512" width="512pt" xmlns="http://www.w3.org/2000/svg"><path d="m512 512h-15c-15.578125 0-24.011719-4.199219-30.785156-7.570312-5.355469-2.667969-8.890625-4.429688-17.414063-4.429688-8.523437 0-12.058593 1.761719-17.414062 4.429688-6.773438 3.371093-15.207031 7.570312-30.785157 7.570312-15.578124 0-24.011718-4.199219-30.785156-7.570312-5.355468-2.667969-8.890625-4.429688-17.414062-4.429688-8.519532 0-12.058594 1.761719-17.414063 4.429688-6.773437 3.371093-15.207031 7.570312-30.785156 7.570312s-24.007813-4.199219-30.785156-7.570312c-5.351563-2.667969-8.890625-4.429688-17.410157-4.429688-8.523437 0-12.0625 1.761719-17.414062 4.429688-6.777344 3.371093-15.207031 7.570312-30.785156 7.570312s-24.011719-4.199219-30.785156-7.570312c-5.355469-2.667969-8.894532-4.429688-17.414063-4.429688-8.523437 0-12.058594 1.761719-17.414063 4.429688-6.773437 3.371093-15.207031 7.570312-30.785156 7.570312s-24.011718-4.199219-30.789062-7.570312c-5.355469-2.667969-8.890625-4.429688-17.417969-4.429688-8.523437 0-12.058594 1.761719-17.414063 4.429688-6.777343 3.371093-15.210937 7.570312-30.789062 7.570312h-15v-15c0-15.578125 4.199219-24.011719 7.570312-30.785156 2.667969-5.355469 4.429688-8.894532 4.429688-17.414063s-1.761719-12.058593-4.429688-17.414062c-3.371093-6.777344-7.570312-15.207031-7.570312-30.785157 0-15.578124 4.199219-24.007812 7.570312-30.785156 2.667969-5.351562 4.429688-8.890625 4.429688-17.414062 0-8.519532-1.761719-12.058594-4.429688-17.414063-3.371093-6.773437-7.570312-15.207031-7.570312-30.785156 0-15.574219 4.199219-24.007813 7.574219-30.785156 2.664062-5.351563 4.425781-8.890625 4.425781-17.410157 0-8.523437-1.761719-12.058593-4.425781-17.414062-3.375-6.773438-7.574219-15.207031-7.574219-30.785156s4.199219-24.007813 7.570312-30.785156c2.667969-5.351563 4.429688-8.890626 4.429688-17.414063 0-8.519531-1.761719-12.058594-4.425781-17.414063-3.375-6.773437-7.574219-15.207031-7.574219-30.785156s4.199219-24.011718 7.570312-30.789062c2.667969-5.355469 4.429688-8.890625 4.429688-17.417969 0-8.523437-1.761719-12.058594-4.429688-17.414063-3.371093-6.777343-7.570312-15.210937-7.570312-30.789062v-15h15c15.578125 0 24.011719 4.199219 30.785156 7.570312 5.355469 2.667969 8.890625 4.429688 17.414063 4.429688 8.523437 0 12.058593-1.761719 17.414062-4.429688 6.773438-3.371093 15.207031-7.570312 30.785157-7.570312 15.578124 0 24.007812 4.199219 30.785156 7.570312 5.351562 2.667969 8.890625 4.429688 17.414062 4.429688 8.519532 0 12.058594-1.761719 17.414063-4.429688 6.773437-3.371093 15.207031-7.570312 30.785156-7.570312 15.574219 0 24.007813 4.199219 30.78125 7.570312 5.355469 2.667969 8.894531 4.429688 17.414063 4.429688 8.523437 0 12.058593-1.761719 17.414062-4.429688 6.773438-3.371093 15.207031-7.570312 30.785156-7.570312s24.007813 4.199219 30.785156 7.570312c5.355469 2.667969 8.890626 4.429688 17.414063 4.429688 8.519531 0 12.058594-1.761719 17.414063-4.429688 6.773437-3.371093 15.207031-7.570312 30.785156-7.570312s24.011718 4.199219 30.789062 7.570312c5.351563 2.667969 8.890625 4.429688 17.414063 4.429688 8.523437 0 12.0625-1.761719 17.417969-4.429688 6.777343-3.371093 15.210937-7.570312 30.789062-7.570312h15v15c0 15.578125-4.199219 24.011719-7.570312 30.785156-2.667969 5.355469-4.429688 8.890625-4.429688 17.414063 0 8.519531 1.761719 12.058593 4.429688 17.414062 3.371093 6.773438 7.570312 15.207031 7.570312 30.785157 0 15.574218-4.199219 24.007812-7.570312 30.78125-2.667969 5.355468-4.429688 8.894531-4.429688 17.414062 0 8.523438 1.761719 12.0625 4.429688 17.414062 3.371093 6.777344 7.570312 15.207032 7.570312 30.785157s-4.199219 24.011719-7.574219 30.785156c-2.664062 5.355469-4.425781 8.890625-4.425781 17.414063 0 8.519531 1.761719 12.058593 4.429688 17.414062 3.371093 6.773438 7.570312 15.207031 7.570312 30.78125 0 15.578125-4.199219 24.011719-7.570312 30.785156-2.667969 5.355469-4.429688 8.894532-4.429688 17.417969 0 8.519531 1.761719 12.058594 4.429688 17.414063 3.371093 6.773437 7.570312 15.207031 7.570312 30.78125 0 15.578124-4.199219 24.011718-7.570312 30.789062-2.667969 5.355469-4.429688 8.894531-4.429688 17.417969 0 8.523437 1.761719 12.0625 4.429688 17.417969 3.371093 6.777343 7.570312 15.210937 7.570312 30.789062zm0 0" fill="#a0401a"/><path d="m512 15v-15h-15c-15.578125 0-24.011719 4.199219-30.789062 7.570312-5.355469 2.667969-8.890626 4.429688-17.414063 4.429688-8.527344 0-12.0625-1.761719-17.417969-4.429688-6.777344-3.371093-15.210937-7.570312-30.789062-7.570312s-24.011719 4.199219-30.785156 7.570312c-5.355469 2.667969-8.890626 4.429688-17.414063 4.429688s-12.058594-1.761719-17.414063-4.429688c-6.777343-3.371093-15.207031-7.570312-30.785156-7.570312s-24.011718 4.199219-30.785156 7.570312c-5.351562 2.667969-8.890625 4.429688-17.40625 4.429688v488h.007812c8.519532 0 12.058594 1.761719 17.414063 4.429688 6.773437 3.371093 15.207031 7.570312 30.78125 7.570312 15.578125 0 24.011719-4.199219 30.785156-7.570312 5.355469-2.667969 8.894531-4.429688 17.414063-4.429688 8.523437 0 12.0625 1.761719 17.414062 4.429688 6.777344 3.371093 15.207032 7.570312 30.785156 7.570312 15.578126 0 24.011719-4.199219 30.785157-7.570312 5.355469-2.667969 8.894531-4.429688 17.414062-4.429688 8.523438 0 12.058594 1.761719 17.414063 4.429688 6.773437 3.371093 15.207031 7.570312 30.785156 7.570312h15v-15c0-15.578125-4.199219-24.011719-7.570312-30.789062-2.667969-5.355469-4.429688-8.894532-4.429688-17.417969 0-8.523438 1.761719-12.0625 4.429688-17.414063 3.371093-6.777344 7.570312-15.210937 7.570312-30.789062s-4.199219-24.011719-7.570312-30.785156c-2.667969-5.355469-4.429688-8.890626-4.429688-17.414063s1.761719-12.058594 4.429688-17.414063c3.371093-6.777343 7.570312-15.207031 7.570312-30.785156s-4.199219-24.011718-7.570312-30.785156c-2.667969-5.355469-4.429688-8.894531-4.429688-17.414062 0-8.519532 1.761719-12.058594 4.425781-17.414063 3.375-6.773437 7.574219-15.207031 7.574219-30.78125 0-15.578125-4.199219-24.011719-7.570312-30.785156-2.667969-5.355469-4.429688-8.894531-4.429688-17.414063 0-8.523437 1.761719-12.0625 4.429688-17.414062 3.371093-6.777344 7.570312-15.207032 7.570312-30.785156 0-15.578126-4.199219-24.011719-7.570312-30.785157-2.667969-5.355469-4.429688-8.894531-4.429688-17.414062 0-8.523438 1.761719-12.0625 4.429688-17.414063 3.371093-6.773437 7.570312-15.207031 7.570312-30.785156zm0 0" fill="#862712"/><path d="m445.695312 445.222656h-379.390624v-379.394531h379.390624zm0 0" fill="#fff587"/><path d="m256 65.828125h189.695312v379.394531h-189.695312zm0 0" fill="#fdbf00"/><path d="m169.503906 185.71875h162.699219v162.699219h-162.699219zm0 0" fill="#00aadf"/><path d="m256 185.71875h76.203125v162.695312h-76.203125zm0 0" fill="#005fe4"/><path d="m395.324219 295.632812h-113.941407l-67.277343-52.902343 75.339843-130.488281zm0 0" fill="#8cd95b"/><path d="m395.324219 295.632812-105.878907-183.390624-33.445312 57.925781v105.503906l25.382812 19.960937zm0 0" fill="#61c27c"/><path d="m201.4375 398.808594c-46.738281 0-84.761719-38.023438-84.761719-84.761719s38.023438-84.761719 84.761719-84.761719c46.734375 0 84.757812 38.023438 84.757812 84.761719s-38.023437 84.761719-84.757812 84.761719zm0 0" fill="#fa235e"/><path d="m286.195312 314.046875c0-25.964844-11.746093-49.230469-30.195312-64.789063v129.582032c18.449219-15.5625 30.195312-38.828125 30.195312-64.792969zm0 0" fill="#c91341"/></svg>