<?xml version="1.0" encoding="iso-8859-1"?>
<!-- Generator: Adobe Illustrator 21.0.0, SVG Export Plug-In . SVG Version: 6.00 Build 0)  -->
<svg version="1.1" id="Capa_1" xmlns="http://www.w3.org/2000/svg" xmlns:xlink="http://www.w3.org/1999/xlink" x="0px" y="0px"
	 viewBox="0 0 512 512" style="enable-background:new 0 0 512 512;" xml:space="preserve">
<path style="fill:#FF9D73;" d="M512,150.664c0-4.268-3.458-7.726-7.726-7.726s-7.726,3.458-7.726,7.726v46.358H512V150.664z"/>
<g>
	<path style="fill:#FFC28E;" d="M83.068,142.938c-4.268,0-7.726,3.458-7.726,7.726v36.056h15.453v-36.056
		C90.794,146.396,87.335,142.938,83.068,142.938z"/>
	<path style="fill:#FFC28E;" d="M120.737,142.938c-4.268,0-7.726,3.458-7.726,7.726v36.056h15.453v-36.056
		C128.464,146.396,125.005,142.938,120.737,142.938z"/>
	<path style="fill:#FFC28E;" d="M158.408,142.938c-4.268,0-7.726,3.458-7.726,7.726v36.056h15.453v-36.056
		C166.134,146.396,162.675,142.938,158.408,142.938z"/>
	<path style="fill:#FFC28E;" d="M45.396,142.938c-4.268,0-7.726,3.458-7.726,7.726v36.056h15.453v-36.056
		C53.122,146.396,49.664,142.938,45.396,142.938z"/>
	<path style="fill:#FFC28E;" d="M428.932,142.938c-4.268,0-7.726,3.458-7.726,7.726v36.056h15.453v-36.056
		C436.659,146.396,433.2,142.938,428.932,142.938z"/>
	<path style="fill:#FFC28E;" d="M391.263,142.938c-4.268,0-7.726,3.458-7.726,7.726v36.056h15.453v-36.056
		C398.989,146.396,395.53,142.938,391.263,142.938z"/>
	<path style="fill:#FFC28E;" d="M353.592,142.938c-4.268,0-7.726,3.458-7.726,7.726v36.056h15.453v-36.056
		C361.318,146.396,357.86,142.938,353.592,142.938z"/>
	<path style="fill:#FFC28E;" d="M466.604,142.938c-4.268,0-7.726,3.458-7.726,7.726v36.056h15.453v-36.056
		C474.33,146.396,470.871,142.938,466.604,142.938z"/>
</g>
<g>
	<path style="fill:#FFE9B0;" d="M196.077,19.316c-4.268,0-7.726,3.458-7.726,7.726v169.98h15.453V27.042
		C203.804,22.774,200.345,19.316,196.077,19.316z"/>
	<path style="fill:#FFE9B0;" d="M313.004,19.316c-4.268,0-7.726,3.458-7.726,7.726v169.98h15.453V27.042
		C320.73,22.774,317.272,19.316,313.004,19.316z"/>
</g>
<polygon style="fill:#FFCE53;" points="434.736,345.286 481.095,492.684 512,492.684 512,376.191 "/>
<polygon style="fill:#FFE373;" points="481.095,376.191 256,290.945 0,376.191 0,492.684 111.084,492.684 135.726,468.908 
	160.368,492.684 191.274,492.684 256,430.019 320.726,492.684 351.632,492.684 376.274,468.908 400.916,492.684 481.095,492.684 
	481.095,462.634 447.274,434.865 481.095,407.097 "/>
<polygon style="fill:#FF533E;" points="320.726,407.097 320.726,492.684 289.821,492.684 258.915,376.191 "/>
<polygon style="fill:#FF7859;" points="289.821,376.191 289.821,492.684 191.274,492.684 191.274,407.097 "/>
<polygon style="fill:#FF9D73;" points="320.726,345.286 320.726,407.097 289.821,407.097 258.915,345.286 "/>
<rect x="191.274" y="345.286" style="fill:#FFC28E;" width="98.547" height="61.811"/>
<path style="fill:#7A4235;" d="M280.642,82.59v52.622h-49.284V82.59c0-13.609,11.033-24.642,24.642-24.642
	C269.609,57.948,280.642,68.981,280.642,82.59z"/>
<polygon style="fill:#FFE9B0;" points="280.642,104.306 256,147.326 231.358,104.306 188.348,104.306 188.348,197.022 
	320.726,197.022 320.726,104.306 "/>
<rect x="231.358" y="104.306" style="fill:#FFE373;" width="49.284" height="61.811"/>
<polygon style="fill:#FF9D73;" points="512,166.117 512,197.022 450.189,227.928 481.095,166.117 "/>
<path style="fill:#FFC28E;" d="M15.453,166.117v-15.453c0-4.268-3.458-7.726-7.726-7.726S0,146.396,0,150.664v46.358l15.453,30.905
	h465.642v-61.811H15.453z"/>
<polygon style="fill:#FFE9B0;" points="481.095,197.022 419.284,286.607 481.095,376.191 512,376.191 512,197.022 "/>
<rect y="197.022" style="fill:#FFF5CE;" width="481.095" height="179.169"/>
<g>
	<path style="fill:#81C6F6;" d="M80.179,283.475v61.811H30.905v-61.811c0-13.609,11.033-24.642,24.642-24.642
		S80.179,269.866,80.179,283.475z"/>
	<path style="fill:#81C6F6;" d="M160.368,283.475v61.811h-49.284v-61.811c0-13.609,11.033-24.642,24.642-24.642
		C149.335,258.833,160.368,269.866,160.368,283.475z"/>
	<path style="fill:#81C6F6;" d="M240.547,283.475v61.811h-49.274v-61.811c0-13.609,11.023-24.642,24.632-24.642
		C229.514,258.833,240.547,269.866,240.547,283.475z"/>
	<path style="fill:#81C6F6;" d="M320.726,283.475v61.811h-49.274v-61.811c0-13.609,11.033-24.642,24.642-24.642
		C309.703,258.833,320.726,269.866,320.726,283.475z"/>
	<path style="fill:#81C6F6;" d="M400.916,283.475v61.811h-49.284v-61.811c0-13.609,11.033-24.642,24.642-24.642
		C389.882,258.833,400.916,269.866,400.916,283.475z"/>
	<path style="fill:#81C6F6;" d="M481.095,283.475v61.811h-49.274v-61.811c0-13.609,11.023-24.642,24.632-24.642
		C470.061,258.833,481.095,269.866,481.095,283.475z"/>
</g>
<g>
	<path style="fill:#7A4235;" d="M160.368,431.728v60.956h-49.284v-60.956c0-13.609,11.033-24.632,24.642-24.632
		C149.335,407.097,160.368,418.12,160.368,431.728z"/>
	<path style="fill:#7A4235;" d="M400.916,431.728v60.956h-49.284v-60.956c0-13.609,11.033-24.632,24.642-24.632
		C389.882,407.097,400.916,418.12,400.916,431.728z"/>
</g>
<g>
	<rect x="30.905" y="407.097" style="fill:#43AAF0;" width="49.274" height="55.537"/>
	<rect x="431.821" y="407.097" style="fill:#43AAF0;" width="49.274" height="55.537"/>
</g>
<g>
	<path style="fill:#FFC28E;" d="M63.271,235.654H47.818c-4.268,0-7.726-3.458-7.726-7.726c0-4.268,3.458-7.726,7.726-7.726h15.453
		c4.268,0,7.726,3.458,7.726,7.726C70.997,232.196,67.539,235.654,63.271,235.654z"/>
	<path style="fill:#FFC28E;" d="M143.453,235.654H128c-4.268,0-7.726-3.458-7.726-7.726c0-4.268,3.458-7.726,7.726-7.726h15.453
		c4.268,0,7.726,3.458,7.726,7.726C151.179,232.196,147.721,235.654,143.453,235.654z"/>
	<path style="fill:#FFC28E;" d="M223.635,235.654h-15.453c-4.268,0-7.726-3.458-7.726-7.726c0-4.268,3.458-7.726,7.726-7.726h15.453
		c4.268,0,7.726,3.458,7.726,7.726C231.361,232.196,227.903,235.654,223.635,235.654z"/>
	<path style="fill:#FFC28E;" d="M303.818,235.654h-15.453c-4.268,0-7.726-3.458-7.726-7.726c0-4.268,3.458-7.726,7.726-7.726h15.453
		c4.268,0,7.726,3.458,7.726,7.726C311.544,232.196,308.086,235.654,303.818,235.654z"/>
	<path style="fill:#FFC28E;" d="M384,235.654h-15.453c-4.268,0-7.726-3.458-7.726-7.726c0-4.268,3.458-7.726,7.726-7.726H384
		c4.268,0,7.726,3.458,7.726,7.726C391.726,232.196,388.268,235.654,384,235.654z"/>
	<path style="fill:#FFC28E;" d="M464.183,235.654H448.73c-4.268,0-7.726-3.458-7.726-7.726c0-4.268,3.458-7.726,7.726-7.726h15.453
		c4.268,0,7.726,3.458,7.726,7.726C471.909,232.196,468.451,235.654,464.183,235.654z"/>
</g>
<g>
</g>
<g>
</g>
<g>
</g>
<g>
</g>
<g>
</g>
<g>
</g>
<g>
</g>
<g>
</g>
<g>
</g>
<g>
</g>
<g>
</g>
<g>
</g>
<g>
</g>
<g>
</g>
<g>
</g>
</svg>
