<svg height="512pt" viewBox="-47 0 512 512" width="512pt" xmlns="http://www.w3.org/2000/svg"><path d="m418.953125 12.042969c-.070313-3.113281-1.296875-5.945313-3.253906-8.066407-2.265625-2.441406-5.5-3.976562-9.097657-3.976562h-394.238281c-3.597656 0-6.839843 1.535156-9.097656 3.988281-2.03125 2.191407-3.265625 5.140625-3.265625 8.375v487.273438c0 3.234375 1.234375 6.183593 3.265625 8.375 2.253906 2.453125 5.5 3.988281 9.097656 3.988281h394.238281c3.59375 0 6.832032-1.535156 9.097657-3.976562 1.957031-2.121094 3.183593-4.957032 3.253906-8.066407.011719-.101562.011719-.214843.011719-.320312v-487.273438c0-.105469 0-.21875-.011719-.320312zm0 0" fill="#ffd480"/><path d="m306.4375 86.152344c-.265625 9.230468-.535156 18.441406-.792969 27.671875-.019531.742187-.039062 1.492187-.0625 2.234375-.203125-.121094-.410156-.234375-.628906-.339844-4.40625-20.519531-16.304687-39.351562-32.953125-52.117188-8.273438-6.34375-17.679688-11.164062-27.621094-14.277343h-37.917968c-.527344.535156-1.050782 1.050781-1.585938 1.535156-19.347656 17.574219-43.320312 29.019531-65.605469 42.679687-7.230469 4.429688-14.246093 9.394532-20.847656 14.867188l.101563.121094 30.90625 110.128906c0 13.1875-28.1875 40.753906-23.285157 52.136719 1.722657 4.019531 3.730469 7.890625 5.976563 11.601562.976562 1.605469 2.007812 3.183594 3.078125 4.726563 7.59375 10.960937 17.464843 20.222656 28.917969 27.117187-5.367188 29.328125-32.695313 51.785157-62.34375 56.699219-28.640626 4.75-57.824219-15.84375-61.421876-36.859375v-2.308594c21.53125-12.90625 36.550782-35.808593 39.613282-60.71875l.007812-.007812c-5.375-3.75-10.238281-8.097657-14.371094-12.921875-14.390624-16.832032-21.890624-39.0625-21.890624-61.222656 0-3.070313.144531-6.140626.433593-9.199219 2.390625-25.105469 14.265625-48.945313 31.8125-67.054688l1.328125-.515625c-6.335937-16.535156-8.46875-34.707031-5.863281-52.238281.9375-6.316406 2.496094-12.539063 4.605469-18.566406 6.210937-17.738281 17.265625-33.789063 31.78125-45.75v-3.574219h146.113281v.351562c17.523437 1.171876 34.191406 11.457032 43.089844 26.589844 4.050781 6.847656 6.523437 14.523438 7.933593 22.382813.390626 2.144531.699219 4.296875.949219 6.460937 1.121094 10.0625.832031 20.242188.542969 30.367188zm0 0" fill="#a5cdff"/><path d="m352.179688 344.082031c-4.050782 15.371094-12.269532 30.699219-23.890626 41.722657-10.816406 10.269531-24.601562 16.800781-40.722656 16.164062-38.117187-1.515625-57.792968-41.734375-60.78125-75.203125v-.011719c-27.949218-39.464844-35.226562-57.65625-20.328125-67.9375 29.464844-20.328125 62.71875 23.226563 62.71875 16.964844v-3.535156c13.414063-6.613282 26.3125 15.320312 34.839844 21.953125 10.332031 8.035156 26.320313 10.972656 36.59375 1.09375 1.097656-1.058594 2.078125-2.230469 2.953125-3.476563 1.976562-2.800781 6.261719-2.171875 7.4375 1.050782 5.917969 16.15625 5.601562 34.457031 1.179688 51.214843zm0 0" fill="#8cb4eb"/><path d="m378.601562 434.191406v28.484375h-338.25v-23.253906s33.121094-35.242187 60.6875-36.28125l64.832032-58.890625 54.546875-16.117188-3.078125-.515624c1.019531 0 2.039062-.03125 3.039062-.09375 2.171875-.125 4.316406-.382813 6.40625-.773438v.011719c2.988282 33.46875 22.664063 73.6875 60.78125 75.203125 16.121094.636718 29.90625-5.894532 40.722656-16.164063l.566407.585938zm0 0" fill="#736572"/><path d="m206.457031 49.324219c-.523437.535156-1.050781 1.050781-1.585937 1.535156-19.34375 17.574219 3.058594 82.414063-19.222656 96.074219-7.234376 4.429687-60.625-44-67.230469-38.527344-11.238281 9.300781-21.292969 20.035156-29.195313 32.007812l-1.710937-.402343c-4.128907-6.222657-7.558594-12.90625-10.230469-19.882813-6.335938-16.535156-8.464844-34.707031-5.859375-52.238281.9375-6.316406 2.492187-12.539063 4.605469-18.566406 6.210937-17.738281 17.265625-33.789063 31.78125-45.75v-3.574219h110.257812v2.914062c6.390625 14.898438-1.171875 35.667969-11.609375 46.410157zm0 0" fill="#8cb4eb"/><path d="m135.199219 287.121094c-18.820313 1.265625-39.257813-4.871094-55.226563-16.082032-5.375-3.75-10.238281-8.09375-14.371094-12.917968-14.390624-16.832032-21.890624-39.0625-21.890624-61.222656 0-3.070313.144531-6.140626.433593-9.199219 2.390625-25.105469 14.265625-48.945313 31.8125-67.054688l1.328125-.515625c2.667969 6.972656 6.097656 13.660156 10.230469 19.882813l1.710937.402343c-12.363281 18.71875-19.460937 40.453126-17.648437 64.425782 2.222656 29.351562 26.0625 58.617187 54.566406 65.953125 1.722657 4.015625 45.488281 1.566406 26.675781 10.101562-1.710937.78125-18.691406 4.683594-17.621093 6.226563zm0 0" fill="#8cb4eb"/><path d="m164.117188 314.234375c-5.367188 29.332031-32.695313 51.789063-62.34375 56.703125-28.640626 4.75-57.824219-15.84375-61.421876-36.859375v-2.308594c21.53125-12.90625 36.550782-35.808593 39.613282-60.71875l.007812-.011719c15.96875 11.210938 36.40625 17.347657 55.230469 16.082032 3.363281 4.859375 30.589844-16.195313 34.789063-12.0625 5.273437 5.191406-12.253907 35.339844-5.875 39.175781zm0 0" fill="#a5cdff"/><path d="m304.945312 49.324219h-98.484374c10.433593-10.742188 17.996093-31.511719 11.609374-46.410157v-2.914062h35.851563v.351562c17.523437 1.171876 34.191406 11.457032 43.089844 26.589844 4.046875 6.847656 6.519531 14.523438 7.933593 22.382813zm0 0" fill="#8cb4eb"/><path d="m301.585938 236.878906-30.628907-.300781c-.972656-.011719-1.769531.769531-1.78125 1.742187v37.457032c0 6.265625-1.113281 12.269531-3.140625 17.824218-6.222656 17-21.078125 29.8125-39.25 33.152344-2.09375.390625-4.234375.648438-6.410156.769532l.042969.609374 2.464843 62.984376c.34375 8.75-6.820312 15.953124-15.570312 15.652343l-106.273438-3.628906 76.132813-82.371094.007813-.023437c-4.542969-1.824219-8.910157-4.015625-13.0625-6.507813-11.457032-6.894531-21.324219-16.15625-28.917969-27.117187-1.070313-1.542969-2.101563-3.121094-3.078125-4.726563-2.246094-3.710937-4.253906-7.582031-5.976563-11.601562-4.902343-11.382813-7.621093-23.929688-7.621093-37.117188v-125.148437l-.105469-.121094c6.605469-5.472656 13.621093-10.4375 20.851562-14.867188 22.28125-13.660156 46.253907-25.105468 65.601563-42.679687.535156-.484375 1.0625-1 1.585937-1.535156h37.921875c9.941406 3.113281 19.347656 7.933593 27.617188 14.277343 16.648437 12.765626 28.546875 31.597657 32.957031 52.117188.214844.105469.421875.21875.628906.339844.019531-.742188.039063-1.492188.0625-2.234375l.605469 30.988281 1.65625 85.679688c.070312 3.53125-2.789062 6.421874-6.320312 6.386718zm0 0" fill="#f2d1a5"/><path d="m131.949219 403.140625 76.128906-82.371094.011719-.023437c-4.542969-1.824219-8.914063-4.015625-13.0625-6.507813-11.457032-6.894531-21.324219-16.15625-28.917969-27.117187-1.070313-1.542969-2.101563-3.121094-3.082031-4.726563-2.246094-3.710937-4.253906-7.582031-5.972656-11.601562-4.90625-11.382813-7.625-23.929688-7.625-37.117188v-109.988281c0-9.75 4.683593-18.914062 12.597656-24.613281 2.925781-2.105469 5.855468-4.128907 8.152344-5.535157 22.28125-13.660156 46.253906-25.105468 65.601562-42.679687.535156-.484375 1.058594-1 1.585938-1.535156h-30.90625c-.527344.535156-1.050782 1.050781-1.585938 1.535156-19.347656 17.574219-43.320312 29.019531-65.605469 42.679687-7.230469 4.429688-14.246093 9.394532-20.847656 14.867188l.101563.121094v125.148437c0 13.1875 2.71875 25.734375 7.625 37.117188 1.71875 4.019531 3.726562 7.890625 5.972656 11.601562.980468 1.605469 2.011718 3.183594 3.082031 4.726563 7.589844 10.960937 17.460937 20.222656 28.917969 27.117187 4.148437 2.492188 8.519531 4.683594 13.0625 6.507813l-.011719.023437-76.128906 82.371094zm0 0" fill="#f2bb88"/><path d="m135.539062 153.167969 40.542969-8.246094c.253907-.054687.519531-.050781.769531.007813l38.890626 8.867187c1.644531.378906 1.941406 2.59375.453124 3.390625l-41.140624 21.941406c-.5625.296875-1.238282.285156-1.785157-.039062l-38.292969-22.566406c-1.4375-.847657-1.074218-3.023438.5625-3.355469zm0 0" fill="#e6e6f0"/><path d="m270.902344 136.625c.386718-.179688.824218-.222656 1.234375-.117188l29.261719 7.484376c1.414062.363281 1.851562 2.160156.757812 3.128906l-24.320312 21.617187c-.558594.5-1.371094.601563-2.039063.261719l-31.90625-16.292969c-1.347656-.6875-1.320313-2.625.046875-3.273437zm0 0" fill="#e6e6f0"/><path d="m166.113281 282.074219 65.269531 2.128906c2.621094.082031 3.699219-3.324219 1.511719-4.761719l-30.722656-20.199218c-.789063-.515626-1.792969-.566407-2.628906-.128907l-34.546875 18.070313c-2.363282 1.234375-1.546875 4.804687 1.117187 4.890625zm0 0" fill="#ff485a"/><path d="m378.601562 462.675781h-338.25v-128.597656c-.121093-.710937-.214843-1.421875-.277343-2.132813.09375-.050781.1875-.113281.277343-.175781v-282.445312h338.25zm40.351563-450.632812c-.070313-3.113281-1.296875-5.945313-3.253906-8.066407-2.265625-2.441406-5.5-3.976562-9.097657-3.976562h-394.238281c-3.597656 0-6.839843 1.535156-9.097656 3.988281-2.03125 2.191407-3.265625 5.140625-3.265625 8.375v487.273438c0 3.234375 1.234375 6.183593 3.265625 8.375 2.253906 2.453125 5.5 3.988281 9.097656 3.988281h394.238281c3.59375 0 6.832032-1.535156 9.097657-3.976562 1.957031-2.121094 3.183593-4.957032 3.253906-8.066407.011719-.101562.011719-.214843.011719-.320312v-487.273438c0-.105469 0-.21875-.011719-.320312zm0 0" fill="#ff636f"/><path d="m40.351562 49.324219v413.351562l-37.085937 45.335938c-2.027344-2.191407-3.265625-5.140625-3.265625-8.375v-487.273438c0-3.234375 1.238281-6.183593 3.265625-8.375zm0 0" fill="#ff485a"/><path d="m418.953125 12.042969v487.914062c-.070313 3.109375-1.296875 5.941407-3.253906 8.066407l-37.097657-45.347657v-413.351562l37.097657-45.347657c1.957031 2.121094 3.183593 4.953126 3.253906 8.066407zm0 0" fill="#ff485a"/><g fill="#152c37"><path d="m142.792969 130.949219c21.367187-8.335938 44.496093-11.136719 67.167969-7.285157 9.726562 1.652344 13.90625-13.234374 4.109374-14.898437-25.390624-4.3125-51.335937-2.097656-75.386718 7.28125-3.871094 1.511719-6.605469 5.191406-5.394532 9.507813 1.035157 3.699218 5.578126 6.925781 9.503907 5.394531zm0 0"/><path d="m257.1875 122.667969c14.386719-6.257813 30.425781-7.710938 44.492188.058593 8.710937 4.8125 16.515624-8.527343 7.800781-13.34375-19.304688-10.664062-40.441407-8.609374-60.089844-.054687-3.855469 1.675781-4.660156 7.253906-2.773437 10.570313 2.261718 3.972656 6.769531 4.425781 10.570312 2.769531zm0 0"/><path d="m175.832031 167.546875c-2.039062 0-4.027343-.832031-5.472656-2.265625-1.429687-1.441406-2.253906-3.429688-2.253906-5.46875 0-.496094.050781-1.007812.144531-1.503906.101562-.496094.246094-.976563.441406-1.441406.195313-.476563.433594-.917969.710938-1.339844s.605468-.8125.957031-1.175782c1.792969-1.789062 4.460937-2.613281 6.976563-2.109374.492187.101562.976562.246093 1.453124.441406.460938.195312.90625.433594 1.328126.710937.421874.277344.8125.605469 1.171874.957031.363282.363282.683594.753907.960938 1.175782s.515625.863281.710938 1.339844c.195312.460937.339843.945312.441406 1.441406.105468.492187.144531 1.007812.144531 1.503906 0 2.039062-.824219 4.027344-2.257813 5.46875-.359374.351562-.75.679688-1.171874.957031-.421876.28125-.867188.515625-1.328126.710938-.476562.195312-.960937.339843-1.453124.445312-.496094.101563-1 .152344-1.503907.152344zm0 0"/><path d="m274.039062 157.617188c-2.039062 0-4.027343-.824219-5.460937-2.265626-.359375-.351562-.679687-.753906-.96875-1.175781-.277344-.410156-.515625-.863281-.710937-1.328125-.183594-.464844-.339844-.957031-.433594-1.441406-.101563-.503906-.152344-1.007812-.152344-1.515625 0-.503906.050781-1.007813.152344-1.503906.09375-.492188.25-.988281.433594-1.453125.195312-.460938.433593-.917969.710937-1.328125.289063-.421875.609375-.824219.96875-1.171875 1.792969-1.804688 4.449219-2.628906 6.972656-2.113282.484375.09375.980469.246094 1.445313.433594.460937.195313.914062.429688 1.328125.710938.421875.289062.824219.605468 1.171875.96875.363281.347656.683594.75.972656 1.171875.277344.414062.515625.867187.707031 1.328125.1875.464844.339844.960937.433594 1.453125.105469.496093.15625 1 .15625 1.503906s-.050781 1.007813-.15625 1.515625c-.09375.484375-.246094.976562-.433594 1.441406-.191406.464844-.429687.917969-.707031 1.328125-.289062.421875-.609375.824219-.972656 1.175781-.347656.359376-.75.679688-1.171875.96875-.414063.277344-.867188.515626-1.328125.710938-.464844.183594-.960938.339844-1.445313.429688-.503906.105468-1.007812.15625-1.511719.15625zm0 0"/></g></svg>