<?xml version="1.0" encoding="iso-8859-1"?>
<!-- Generator: Adobe Illustrator 19.0.0, SVG Export Plug-In . SVG Version: 6.00 Build 0)  -->
<svg version="1.1" id="Layer_1" xmlns="http://www.w3.org/2000/svg" xmlns:xlink="http://www.w3.org/1999/xlink" x="0px" y="0px"
	 viewBox="0 0 512 512" style="enable-background:new 0 0 512 512;" xml:space="preserve">
<path style="fill:#D1E5F5;" d="M420.346,360.296V18.963c-202.272,0-341.333,178.104-341.333,366.617
	c0,44.665,8.591,87.319,24.192,126.42h317.142"/>
<path style="fill:#B4D8F1;" d="M268.642,56.305V512h151.704V360.296V18.963C364.404,18.963,313.31,32.606,268.642,56.305z"/>
<rect x="344.494" y="360.296" style="fill:#98C8ED;" width="151.704" height="151.704"/>
<rect x="420.346" y="360.296" style="fill:#7AB9E8;" width="75.852" height="151.704"/>
<path style="fill:#EDEDED;" d="M159.605,119.037c-31.533,35.755-56.249,77.164-73.46,123.075
	C68.829,288.3,60.049,336.57,60.049,385.58c0,43.539,7.686,86.027,22.835,126.42h41.007c-15.155-37.988-25.916-85.184-25.916-126.42
	c0-167.195,123.25-347.654,322.37-347.654V0C319.901,0,227.301,42.275,159.605,119.037z"/>
<path style="fill:#D8D8DA;" d="M420.346,0c-53.678,0-105.11,12.083-151.704,35.041v43.004
	c43.56-25.201,94.492-40.119,151.704-40.119V0z"/>
<g>
	<rect x="15.802" y="176.988" style="fill:#F8F8F9;" width="176.988" height="37.926"/>
	<rect x="41.086" y="227.556" style="fill:#F8F8F9;" width="176.988" height="37.926"/>
</g>
<g>
</g>
<g>
</g>
<g>
</g>
<g>
</g>
<g>
</g>
<g>
</g>
<g>
</g>
<g>
</g>
<g>
</g>
<g>
</g>
<g>
</g>
<g>
</g>
<g>
</g>
<g>
</g>
<g>
</g>
</svg>
