<?xml version="1.0" encoding="utf-8"?>
<!-- Generator: Adobe Illustrator 22.1.0, SVG Export Plug-In . SVG Version: 6.00 Build 0)  -->
<svg xmlns="http://www.w3.org/2000/svg" xmlns:xlink="http://www.w3.org/1999/xlink" version="1.1" id="Layer_1" x="0px" y="0px" viewBox="0 0 256 256" style="enable-background:new 0 0 256 256;" xml:space="preserve" width="512" height="512">
<style type="text/css">
	.st0{fill:#FFDF74;}
	.st1{fill:#FCE575;}
	.st2{fill:#FFD551;}
	.st3{fill:#F9BB32;}
	.st4{fill:#FFF4C1;}
	.st5{fill:#DB9C2E;}
	.st6{fill:#FFC34C;}
	.st7{fill:#FFEA63;}
	.st8{fill:#A56021;}
	.st9{fill:#E58D23;}
	.st10{fill:#CCC033;}
	.st11{fill:#99AF17;}
	.st12{fill:#FCDA4F;}
	.st13{fill:#8C4C17;}
	.st14{fill:#BF6C0D;}
	.st15{fill:#FFA730;}
	.st16{fill:#FF624B;}
	.st17{fill:#FCF9DE;}
	.st18{fill:#FFEACF;}
	.st19{fill:#FFD59A;}
	.st20{fill:#EACF32;}
	.st21{fill:#FF4B34;}
	.st22{fill:#FF9079;}
	.st23{fill:#FFB74B;}
</style>
<g>
	<g>
		<rect x="92.228" y="209.887" class="st2" width="69.662" height="27.908"/>
	</g>
	<g>
		<path class="st1" d="M147.66,230.738h-39.32c-1.1,0-1.992-0.892-1.992-1.992v-7.779c0-1.1,0.892-1.992,1.992-1.992h39.32    c1.1,0,1.992,0.892,1.992,1.992v7.779C149.652,229.846,148.76,230.738,147.66,230.738z"/>
	</g>
	<g>
		<rect x="92.228" y="209.887" class="st6" width="25.905" height="27.908"/>
	</g>
	<g>
		<path class="st2" d="M118.133,218.976h-9.792c-1.101,0-1.993,0.891-1.993,1.99v7.781c0,1.099,0.892,1.99,1.993,1.99h9.792V218.976    z"/>
	</g>
	<g>
		<path class="st18" d="M191.965,189.678H63.955c-2.015,0-3.648-1.633-3.648-3.648v-0.031c0-27.679,22.438-50.118,50.118-50.118    h35.07c27.679,0,50.118,22.438,50.118,50.118v0.031C195.612,188.045,193.979,189.678,191.965,189.678z"/>
	</g>
	<g>
		<path class="st17" d="M187.419,184.704c-1.514,0-2.811-1.146-2.968-2.684c-1.041-10.199-5.985-19.463-13.923-26.085    c-1.267-1.057-1.437-2.94-0.38-4.208c1.058-1.267,2.939-1.436,4.208-0.38c9.143,7.628,14.838,18.306,16.038,30.065    c0.168,1.642-1.027,3.108-2.668,3.275C187.623,184.699,187.521,184.704,187.419,184.704z"/>
	</g>
	<g>
		<path class="st19" d="M126.455,144.838h34.892c5.679,0,11.131,0.955,16.222,2.691c-8.712-7.268-19.924-11.647-32.163-11.647    h-34.892c-27.729,0-50.207,22.451-50.207,50.146l0,0c0,2.016,1.636,3.65,3.654,3.65H76.53    C79.185,164.478,100.522,144.838,126.455,144.838z"/>
	</g>
	<g>
		<path class="st18" d="M110.514,144.877h34.892c0.438,0,0.871,0.026,1.306,0.041V96.436h-37.505v48.482    C109.643,144.903,110.075,144.877,110.514,144.877z"/>
	</g>
	<g>
		<path class="st19" d="M110.514,144.877h11.676V96.436h-12.982v48.482C109.643,144.903,110.075,144.877,110.514,144.877z"/>
	</g>
	<g>
		<path class="st19" d="M89.714,25.65h6.352c5.133,0,9.295,4.254,9.295,9.502v8.274C95.302,51.075,88.785,63.319,88.785,77.12    v14.997c-4.697-0.477-8.366-4.527-8.366-9.454v-47.51C80.419,29.905,84.581,25.65,89.714,25.65z"/>
	</g>
	<g>
		<ellipse class="st19" cx="87.855" cy="80.726" rx="13.278" ry="13.574"/>
	</g>
	<g>
		<path class="st19" d="M167.257,25.652h-6.351c-5.133,0-9.294,4.254-9.294,9.501v8.273c10.059,7.648,16.575,19.892,16.575,33.692    v14.996c4.696-0.477,8.365-4.527,8.365-9.453V35.153C176.552,29.906,172.39,25.652,167.257,25.652z"/>
	</g>
	<g>
		<ellipse class="st18" cx="169.115" cy="80.726" rx="13.278" ry="13.574"/>
	</g>
	<g>
		<path class="st18" d="M128.292,128h-0.46c-22.546,0-40.824-18.277-40.824-40.824V64.573c0-22.546,18.277-40.824,40.824-40.824    h0.46c22.546,0,40.824,18.277,40.824,40.824v22.603C169.115,109.723,150.838,128,128.292,128z"/>
	</g>
	<g>
		<path class="st19" d="M101.416,80.804V59.971c0-1.589,0.087-3.157,0.256-4.7c0.262-2.389,2.265-4.181,4.616-4.181h60.611    c-5.536-16.486-20.832-28.335-38.837-28.335c-1.763,0-3.498,0.117-5.202,0.338c0.002-0.001,0.005-0.003,0.008-0.004    c-0.131,0.017-0.26,0.042-0.391,0.06c-0.433,0.06-0.864,0.124-1.293,0.198c-0.208,0.036-0.413,0.077-0.62,0.116    c-0.379,0.071-0.757,0.147-1.132,0.229c-0.218,0.048-0.435,0.098-0.651,0.149c-0.366,0.086-0.729,0.178-1.091,0.274    c-0.212,0.056-0.424,0.113-0.634,0.172c-0.375,0.106-0.746,0.22-1.117,0.337c-0.189,0.06-0.379,0.116-0.567,0.179    c-0.444,0.148-0.883,0.305-1.32,0.467c-0.108,0.04-0.218,0.076-0.325,0.117c-0.544,0.207-1.081,0.426-1.613,0.656    c-0.139,0.06-0.275,0.125-0.413,0.187c-0.39,0.173-0.777,0.35-1.161,0.535c-0.192,0.093-0.381,0.19-0.571,0.286    c-0.326,0.164-0.65,0.33-0.971,0.502c-0.203,0.109-0.405,0.221-0.606,0.334c-0.305,0.17-0.607,0.344-0.907,0.522    c-0.201,0.119-0.402,0.239-0.6,0.362c-0.301,0.186-0.598,0.377-0.894,0.57c-0.187,0.122-0.375,0.243-0.56,0.368    c-0.326,0.221-0.647,0.449-0.966,0.679c-0.147,0.106-0.296,0.208-0.442,0.315c-0.452,0.335-0.897,0.678-1.335,1.03    c-0.136,0.11-0.268,0.225-0.402,0.336c-0.305,0.252-0.61,0.506-0.908,0.767c-0.178,0.156-0.352,0.317-0.527,0.476    c-0.249,0.225-0.496,0.451-0.739,0.683c-0.184,0.175-0.365,0.353-0.546,0.531c-0.228,0.225-0.454,0.452-0.676,0.682    c-0.18,0.186-0.359,0.373-0.536,0.563c-0.218,0.234-0.432,0.471-0.644,0.709c-0.171,0.192-0.342,0.383-0.51,0.578    c-0.219,0.254-0.431,0.515-0.644,0.774c-0.151,0.185-0.306,0.368-0.454,0.556c-0.311,0.394-0.615,0.795-0.912,1.201    c-0.155,0.211-0.303,0.425-0.454,0.639c-0.208,0.295-0.416,0.59-0.617,0.891c-0.147,0.221-0.288,0.446-0.431,0.669    c-0.167,0.261-0.334,0.523-0.496,0.789c-0.145,0.238-0.285,0.478-0.425,0.719c-0.151,0.259-0.3,0.52-0.445,0.782    c-0.137,0.248-0.272,0.496-0.404,0.747c-0.14,0.265-0.275,0.532-0.41,0.8c-0.127,0.253-0.254,0.505-0.375,0.761    c-0.133,0.278-0.258,0.56-0.385,0.841c-0.113,0.25-0.228,0.499-0.336,0.752c-0.145,0.341-0.282,0.688-0.418,1.033    c-0.149,0.377-0.292,0.756-0.431,1.138c-0.113,0.313-0.23,0.625-0.336,0.941h0.003c-1.436,4.275-2.22,8.859-2.22,13.632v20.858    c0,23.089,18.034,42.233,40.619,42.472c7.261,0.077,14.093-1.774,20.036-5.082c-1.792,0.231-3.62,0.345-5.477,0.332    C119.538,123.146,101.416,103.957,101.416,80.804z"/>
	</g>
	<g>
		<path class="st18" d="M158.199,46.565H98.64c-10.201,0-18.471-8.27-18.471-18.471v-1.04c0-10.201,8.27-18.471,18.471-18.471    h59.559c10.201,0,18.471,8.27,18.471,18.471v1.04C176.67,38.295,168.4,46.565,158.199,46.565z"/>
	</g>
	<g>
		<path class="st6" d="M191.57,247.418H64.43c-2.585,0-4.68-2.095-4.68-4.68v-0.264c0-2.585,2.095-4.68,4.68-4.68h127.14    c2.585,0,4.68,2.095,4.68,4.68v0.264C196.25,245.323,194.155,247.418,191.57,247.418z"/>
	</g>
	<g>
		<path class="st19" d="M128,189.678H73.4l4.873,14.945c1.025,3.144,3.903,5.264,7.145,5.264H128h42.582    c3.242,0,6.119-2.12,7.145-5.264l4.873-14.945H128z"/>
	</g>
	<g>
		<circle class="st19" cx="95.12" cy="176.762" r="9"/>
	</g>
	<g>
		<path class="st6" d="M106.171,204.623l-4.873-14.945H73.4l4.873,14.945c1.025,3.144,3.903,5.264,7.145,5.264h27.898    C110.074,209.887,107.196,207.767,106.171,204.623z"/>
	</g>
	<g>
		<path class="st23" d="M87.648,242.741v-0.269c0-2.583,2.097-4.676,4.683-4.676H64.433c-2.586,0-4.683,2.093-4.683,4.676v0.269    c0,2.583,2.097,4.677,4.683,4.677h27.898C89.744,247.418,87.648,245.324,87.648,242.741z"/>
	</g>
	<g>
		<circle class="st19" cx="116.044" cy="22.514" r="9"/>
	</g>
	<g>
		<path class="st19" d="M100.095,28.105v-1.063c0-10.194,8.275-18.46,18.482-18.46H98.651c-10.208,0-18.482,8.265-18.482,18.46    v1.063c0,10.195,8.275,18.46,18.482,18.46h19.927C108.37,46.565,100.095,38.3,100.095,28.105z"/>
	</g>
	<g>
		<g>
			<path class="st15" d="M176.367,111.615l9.031,5.148l-20.546,35.987l-0.094-0.054l-8.923,7.228     c-0.99,0.802-1.793,0.344-1.606-0.915l1.686-11.354l-0.094-0.054L176.367,111.615z"/>
		</g>
		<g>
			<path class="st9" d="M160.159,150.045l0.094,0.054l20.533-35.964l4.612,2.629l-20.546,35.987l-0.094-0.054l-8.923,7.228     c-0.99,0.802-1.793,0.344-1.606-0.915l0.702-4.73L160.159,150.045z"/>
		</g>
	</g>
	<g>
		<g>
			<path class="st15" d="M171.505,109.024l18.913,10.906c0.492,0.284,1.121,0.115,1.405-0.376l2.378-4.113     c0.602-1.042,0.245-2.375-0.798-2.976l-16.916-9.755c-1.043-0.602-2.377-0.245-2.98,0.797l-2.378,4.113     C170.845,108.113,171.013,108.741,171.505,109.024z"/>
		</g>
		<g>
			<path class="st9" d="M185.57,116.052l2.518-4.355c0.55-0.951,0.069-2.257-1.074-2.916l6.208,3.58     c1.143,0.659,1.624,1.965,1.074,2.916l-2.518,4.355c-0.259,0.449-0.906,0.56-1.445,0.249l-6.208-3.58     C184.664,116.612,185.31,116.501,185.57,116.052z"/>
		</g>
	</g>
</g>
</svg>
