<?xml version="1.0" encoding="iso-8859-1"?>
<!-- Generator: Adobe Illustrator 19.0.0, SVG Export Plug-In . SVG Version: 6.00 Build 0)  -->
<svg version="1.1" id="Capa_1" xmlns="http://www.w3.org/2000/svg" xmlns:xlink="http://www.w3.org/1999/xlink" x="0px" y="0px"
	 viewBox="0 0 512 512" style="enable-background:new 0 0 512 512;" xml:space="preserve">
<g>
	<path style="fill:#B874C4;" d="M512,8c0-4.418-3.582-8-8-8s-8,3.582-8,8v20.437l-32,28.8l-32-28.8V8c0-4.418-3.582-8-8-8
		s-8,3.582-8,8v288c0,6.778,8.316,10.472,13.352,5.946L464,270.763l34.648,31.184C503.685,306.474,512,302.777,512,296V8z
		 M432,113.963L452.042,132L432,150.037V113.963z M432,177.963L452.042,196L432,214.037V177.963z M440.403,164L464,142.763
		L487.597,164L464,185.237L440.403,164z M496,150.037L475.958,132L496,113.963V150.037z M496,177.963v36.074L475.958,196
		L496,177.963z M464,121.237L440.403,100L464,78.763L487.597,100L464,121.237z M464,206.763L487.597,228L464,249.237L440.403,228
		L464,206.763z M496,49.963v36.074L475.958,68L496,49.963z M452.042,68L432,86.037V49.963L452.042,68z M432,278.037v-36.074
		L452.042,260L432,278.037z M496,241.963v36.074L475.958,260L496,241.963z"/>
	<path style="fill:#B874C4;" d="M96,8c0-4.418-3.582-8-8-8s-8,3.582-8,8v20.437l-32,28.8l-32-28.8V8c0-4.418-3.582-8-8-8
		S0,3.582,0,8v288c0,6.785,8.313,10.463,13.352,5.946L48,270.763l34.648,31.184C87.685,306.474,96,302.777,96,296V8z M16,113.963
		L36.042,132L16,150.037V113.963z M16,177.963L36.042,196L16,214.037V177.963z M24.403,164L48,142.763L71.597,164L48,185.237
		L24.403,164z M80,150.037L59.958,132L80,113.963V150.037z M80,177.963v36.074L59.958,196L80,177.963z M48,121.237L24.403,100
		L48,78.763L71.597,100L48,121.237z M48,206.763L71.597,228L48,249.237L24.403,228L48,206.763z M80,49.963v36.074L59.958,68
		L80,49.963z M36.042,68L16,86.037V49.963L36.042,68z M16,278.037v-36.074L36.042,260L16,278.037z M80,241.963v36.074L59.958,260
		L80,241.963z"/>
</g>
<path style="fill:#FFEABD;" d="M368.874,202.688l-48-32c-2.628-1.753-5.716-2.688-8.875-2.688h-104c-3.462,0-6.83,1.123-9.6,3.2
	l-64,48c-8.235,6.175-8.432,18.864-0.396,25.294l40,32c6.9,5.521,16.969,4.402,22.489-2.499c5.52-6.9,4.401-16.969-2.499-22.489
	l-23.872-19.098L215.999,200v112h88V200l38.517,23.574l-6.299,37.795c-1.453,8.717,4.436,16.961,13.151,18.413
	c0.891,0.148,1.776,0.221,2.65,0.221c7.68,0,14.459-5.547,15.763-13.372l8-48C376.817,212.42,374.114,206.18,368.874,202.688z"/>
<path style="fill:#FFDD95;" d="M365.369,271.782c-8.716-1.452-14.604-9.696-13.151-18.413l6.299-37.795L311.013,186.5L304,199.095
	V200l38.516,23.574l-6.299,37.795c-1.453,8.717,4.436,16.961,13.151,18.413c0.891,0.148,1.776,0.221,2.65,0.221
	c5.824,0,11.125-3.195,13.917-8.15C365.747,271.828,365.559,271.814,365.369,271.782z"/>
<rect x="216" y="200" style="fill:#FCD308;" width="16" height="112"/>
<path style="fill:#FFDD95;" d="M158.004,244.494c-8.037-6.43-7.839-19.119,0.396-25.294l64-48c2.77-2.077,6.138-3.2,9.6-3.2h-24
	c-3.462,0-6.83,1.123-9.6,3.2l-64,48c-8.235,6.175-8.432,18.864-0.396,25.294l40,32c6.635,5.308,16.186,4.462,21.82-1.744
	L158.004,244.494z"/>
<path style="fill:#45CDD9;" d="M320.875,170.688C318.247,168.935,315.159,168,312,168H208c-3.462,0-6.83,1.123-9.6,3.2
	l-36.694,27.521l22.109,24.015L216,200v112h88V200l26.436,16.18l18.055-27.082L320.875,170.688z"/>
<path style="fill:#5F40A8;" d="M312,128h-92.662c-2.142,4.901-3.338,10.31-3.338,16h96c4.418,0,8-3.582,8-8S316.418,128,312,128z"/>
<circle style="fill:#FFEABD;" cx="256" cy="144" r="40"/>
<path style="fill:#FFDD95;" d="M272,176c-22.091,0-40-17.909-40-40c0-12.428,5.668-23.533,14.561-30.869
	C229.026,109.375,216,125.162,216,144c0,22.091,17.909,40,40,40c9.663,0,18.526-3.427,25.439-9.131
	C278.412,175.602,275.253,176,272,176z"/>
<g>
	<path style="fill:#8759B5;" d="M256,104c-22.091,0-40,17.909-40,40h80C296,121.909,278.091,104,256,104z"/>
	<path style="fill:#8759B5;" d="M176,320c-4.418,0-8-3.582-8-8v-16c0-4.418,3.582-8,8-8s8,3.582,8,8v16
		C184,316.418,180.418,320,176,320z"/>
	<path style="fill:#8759B5;" d="M200,320c-4.418,0-8-3.582-8-8v-16c0-4.418,3.582-8,8-8s8,3.582,8,8v16
		C208,316.418,204.418,320,200,320z"/>
	<path style="fill:#8759B5;" d="M320,320c-4.418,0-8-3.582-8-8v-16c0-4.418,3.582-8,8-8s8,3.582,8,8v16
		C328,316.418,324.418,320,320,320z"/>
	<path style="fill:#8759B5;" d="M344,320c-4.418,0-8-3.582-8-8v-16c0-4.418,3.582-8,8-8s8,3.582,8,8v16
		C352,316.418,348.418,320,344,320z"/>
</g>
<path style="fill:#E9E9EC;" d="M280,280h-48c-4.418,0-8,3.582-8,8v24c0,4.418,3.582,8,8,8h48c4.418,0,8-3.582,8-8v-24
	C288,283.582,284.418,280,280,280z"/>
<path style="fill:#676779;" d="M352,304H160c-4.418,0-8,3.582-8,8v32c0,4.418,3.582,8,8,8h192c4.418,0,8-3.582,8-8v-32
	C360,307.582,356.418,304,352,304z"/>
<path style="fill:#9D5CAD;" d="M504,336H8c-4.418,0-8,3.582-8,8v160c0,4.418,3.582,8,8,8h496c4.418,0,8-3.582,8-8V344
	C512,339.582,508.418,336,504,336z"/>
<g>
	<path style="fill:#6E50B5;" d="M328,368H184c-4.418,0-8,3.582-8,8v32c0,4.418,3.582,8,8,8h144c4.418,0,8-3.582,8-8v-32
		C336,371.582,332.418,368,328,368z"/>
	<path style="fill:#6E50B5;" d="M328,432H184c-4.418,0-8,3.582-8,8v32c0,4.418,3.582,8,8,8h144c4.418,0,8-3.582,8-8v-32
		C336,435.582,332.418,432,328,432z"/>
</g>
<path style="fill:#BEBEC6;" d="M504,288H376c-4.418,0-8,3.582-8,8v208c0,4.418,3.582,8,8,8h128c4.418,0,8-3.582,8-8V296
	C512,291.582,508.418,288,504,288z"/>
<path style="fill:#A8A8B3;" d="M384,504V296c0-4.418,3.582-8,8-8h-16c-4.418,0-8,3.582-8,8v208c0,4.418,3.582,8,8,8h16
	C387.582,512,384,508.418,384,504z"/>
<path style="fill:#7D7D8C;" d="M440,392c-26.468,0-48,21.532-48,48s21.532,48,48,48s48-21.532,48-48S466.468,392,440,392z"/>
<path style="fill:#E9E9EC;" d="M440,408c-17.645,0-32,14.355-32,32s14.355,32,32,32s32-14.355,32-32S457.645,408,440,408z"/>
<path style="fill:#7D7D8C;" d="M440,312c-17.645,0-32,14.355-32,32s14.355,32,32,32s32-14.355,32-32S457.645,312,440,312z"/>
<path style="fill:#E9E9EC;" d="M440,328c-8.822,0-16,7.178-16,16s7.178,16,16,16s16-7.178,16-16S448.822,328,440,328z"/>
<path style="fill:#BEBEC6;" d="M136,288H8c-4.418,0-8,3.582-8,8v208c0,4.418,3.582,8,8,8h128c4.418,0,8-3.582,8-8V296
	C144,291.582,140.418,288,136,288z"/>
<path style="fill:#A8A8B3;" d="M16,504V296c0-4.418,3.582-8,8-8H8c-4.418,0-8,3.582-8,8v208c0,4.418,3.582,8,8,8h16
	C19.582,512,16,508.418,16,504z"/>
<path style="fill:#7D7D8C;" d="M72,392c-26.468,0-48,21.532-48,48s21.532,48,48,48s48-21.532,48-48S98.468,392,72,392z"/>
<path style="fill:#E9E9EC;" d="M72,408c-17.645,0-32,14.355-32,32s14.355,32,32,32s32-14.355,32-32S89.645,408,72,408z"/>
<path style="fill:#7D7D8C;" d="M72,312c-17.645,0-32,14.355-32,32s14.355,32,32,32s32-14.355,32-32S89.645,312,72,312z"/>
<path style="fill:#E9E9EC;" d="M72,328c-8.822,0-16,7.178-16,16s7.178,16,16,16s16-7.178,16-16S80.822,328,72,328z"/>
<path style="fill:#8759B5;" d="M392,136c-4.418,0-8-3.582-8-8V83.747L352,57.08V88c0,4.418-3.582,8-8,8s-8-3.582-8-8V40
	c0-6.64,8.008-10.406,13.121-6.146l48,40C398.945,75.374,400,77.626,400,80v48C400,132.418,396.418,136,392,136z"/>
<g>
	<ellipse style="fill:#FF6BB5;" cx="332" cy="88" rx="20" ry="16"/>
	<path style="fill:#FF6BB5;" d="M332,96c-9.316,0-17.121-5.103-19.344-12c-0.413,1.281-0.656,2.616-0.656,4c0,8.836,8.954,16,20,16
		s20-7.164,20-16c0-1.384-0.243-2.719-0.656-4C349.121,90.897,341.316,96,332,96z"/>
	<ellipse style="fill:#FF6BB5;" cx="380" cy="128" rx="20" ry="16"/>
	<path style="fill:#FF6BB5;" d="M380,136c-9.316,0-17.121-5.103-19.344-12c-0.413,1.281-0.656,2.616-0.656,4c0,8.836,8.954,16,20,16
		s20-7.164,20-16c0-1.384-0.243-2.719-0.656-4C397.121,130.897,389.316,136,380,136z"/>
</g>
<path style="fill:#8759B5;" d="M144,104c-4.418,0-8-3.582-8-8V40c0-2.871,1.538-5.521,4.031-6.946l56-32
	C201.274-1.941,208,1.978,208,8v64c0,4.418-3.582,8-8,8s-8-3.582-8-8V21.785l-40,22.857V96C152,100.418,148.418,104,144,104z"/>
<g>
	<ellipse style="fill:#FF6BB5;" cx="132" cy="96" rx="20" ry="16"/>
	<path style="fill:#FF6BB5;" d="M132,104c-9.316,0-17.121-5.103-19.344-12c-0.413,1.281-0.656,2.616-0.656,4c0,8.836,8.954,16,20,16
		s20-7.164,20-16c0-1.384-0.243-2.719-0.656-4C149.121,98.897,141.316,104,132,104z"/>
	<ellipse style="fill:#FF6BB5;" cx="188" cy="72" rx="20" ry="16"/>
	<path style="fill:#FF6BB5;" d="M188,80c-9.316,0-17.121-5.103-19.344-12c-0.413,1.281-0.656,2.616-0.656,4c0,8.836,8.954,16,20,16
		s20-7.164,20-16c0-1.384-0.243-2.719-0.656-4C205.121,74.897,197.316,80,188,80z"/>
</g>
<g>
</g>
<g>
</g>
<g>
</g>
<g>
</g>
<g>
</g>
<g>
</g>
<g>
</g>
<g>
</g>
<g>
</g>
<g>
</g>
<g>
</g>
<g>
</g>
<g>
</g>
<g>
</g>
<g>
</g>
</svg>
