<?xml version="1.0" encoding="iso-8859-1"?>
<!-- Generator: Adobe Illustrator 19.0.0, SVG Export Plug-In . SVG Version: 6.00 Build 0)  -->
<svg version="1.1" id="Layer_1" xmlns="http://www.w3.org/2000/svg" xmlns:xlink="http://www.w3.org/1999/xlink" x="0px" y="0px"
	 viewBox="0 0 446.639 446.639" style="enable-background:new 0 0 446.639 446.639;" xml:space="preserve">
<g>
	<polygon style="fill:#AACCE5;" points="437.381,117.964 9.259,117.964 223.32,16.368 	"/>
	<rect x="32.295" y="119.492" style="fill:#CDE4F9;" width="382.05" height="309.005"/>
	<path style="fill:#96BED6;" d="M176.591,413.097v-98.543c0-25.766,20.962-46.729,46.729-46.729
		c25.766,0,46.728,20.962,46.728,46.729v98.543H176.591z"/>
	<path style="fill:#8EB6CE;" d="M186.591,403.097v-88.543c0-20.284,16.444-36.728,36.728-36.728l0,0
		c20.284,0,36.728,16.444,36.728,36.728v88.543H186.591z"/>
	<path style="fill:#AACCE5;" d="M223.32,282.825L223.32,282.825c-17.523,0-31.728,14.205-31.728,31.728v83.543h63.457v-83.543
		C255.048,297.03,240.843,282.825,223.32,282.825z"/>
	<polygon style="fill:#AACCE5;" points="240.568,396.764 237.895,396.764 24.961,396.764 24.961,418.588 237.895,418.588 
		240.568,418.588 421.678,418.588 421.678,396.764 	"/>
	<rect x="32.295" y="173.77" style="fill:#DBCEA9;" width="382.05" height="11.346"/>
	<rect x="12.35" y="412.764" style="fill:#96BED6;" width="421.939" height="21.825"/>
	<rect y="428.497" style="fill:#8EB6CE;" width="446.639" height="15.733"/>
	<polygon style="fill:#AACCE5;" points="24.961,131.492 24.961,172.438 24.961,173.304 24.961,192.121 421.678,192.121 
		421.678,173.304 421.678,172.438 421.678,131.492 	"/>
	<rect x="124.126" y="146.492" style="fill:#8EB6CE;" width="198.388" height="30.63"/>
	<rect x="129.126" y="151.492" style="fill:#FFFFFF;" width="188.388" height="20.63"/>
	<path style="fill:#8EB6CE;" d="M439.809,105.16L439.809,105.16L223.32,2.409L6.831,105.16l0,0l0,0v10.906v20.093h432.978v-20.093
		V105.16L439.809,105.16z M17.259,116.065L223.32,18.266l206.061,97.799H17.259z"/>
	<rect x="290.82" y="192.122" style="fill:#AACCE5;" width="39" height="204.642"/>
	<path style="fill:#8EB6CE;" d="M321.32,389.43L321.32,389.43c1.473,0,2.667-1.194,2.667-2.667V202.122
		c0-1.473-1.194-2.667-2.667-2.667l0,0c-1.473,0-2.667,1.194-2.667,2.667v184.642C318.653,388.236,319.847,389.43,321.32,389.43z"/>
	<path style="fill:#8EB6CE;" d="M310.32,389.43L310.32,389.43c1.473,0,2.667-1.194,2.667-2.667V202.122
		c0-1.473-1.194-2.667-2.667-2.667l0,0c-1.473,0-2.667,1.194-2.667,2.667v184.642C307.653,388.236,308.847,389.43,310.32,389.43z"/>
	<path style="fill:#8EB6CE;" d="M299.32,389.43L299.32,389.43c1.473,0,2.667-1.194,2.667-2.667V202.122
		c0-1.473-1.194-2.667-2.667-2.667l0,0c-1.473,0-2.667,1.194-2.667,2.667v184.642C296.653,388.236,297.847,389.43,299.32,389.43z"/>
	<rect x="287.097" y="385.492" style="fill:#8EB6CE;" width="46.445" height="11.272"/>
	<rect x="287.097" y="192.122" style="fill:#8EB6CE;" width="46.445" height="11.272"/>
	<rect x="116.82" y="192.122" style="fill:#AACCE5;" width="39" height="204.642"/>
	<path style="fill:#8EB6CE;" d="M147.32,389.43L147.32,389.43c1.473,0,2.667-1.194,2.667-2.667V202.122
		c0-1.473-1.194-2.667-2.667-2.667l0,0c-1.473,0-2.667,1.194-2.667,2.667v184.642C144.653,388.236,145.847,389.43,147.32,389.43z"/>
	<path style="fill:#8EB6CE;" d="M136.32,389.43L136.32,389.43c1.473,0,2.667-1.194,2.667-2.667V202.122
		c0-1.473-1.194-2.667-2.667-2.667l0,0c-1.473,0-2.667,1.194-2.667,2.667v184.642C133.653,388.236,134.847,389.43,136.32,389.43z"/>
	<path style="fill:#8EB6CE;" d="M125.32,389.43L125.32,389.43c1.473,0,2.667-1.194,2.667-2.667V202.122
		c0-1.473-1.194-2.667-2.667-2.667l0,0c-1.473,0-2.667,1.194-2.667,2.667v184.642C122.653,388.236,123.847,389.43,125.32,389.43z"/>
	<rect x="113.097" y="385.492" style="fill:#8EB6CE;" width="46.445" height="11.272"/>
	<rect x="113.097" y="192.122" style="fill:#8EB6CE;" width="46.445" height="11.272"/>
	<rect x="369.124" y="192.122" style="fill:#AACCE5;" width="39" height="204.642"/>
	<path style="fill:#8EB6CE;" d="M399.624,389.43L399.624,389.43c1.473,0,2.667-1.194,2.667-2.667V202.122
		c0-1.473-1.194-2.667-2.667-2.667l0,0c-1.473,0-2.667,1.194-2.667,2.667v184.642C396.957,388.236,398.151,389.43,399.624,389.43z"
		/>
	<path style="fill:#8EB6CE;" d="M388.624,389.43L388.624,389.43c1.473,0,2.667-1.194,2.667-2.667V202.122
		c0-1.473-1.194-2.667-2.667-2.667l0,0c-1.473,0-2.667,1.194-2.667,2.667v184.642C385.957,388.236,387.151,389.43,388.624,389.43z"
		/>
	<path style="fill:#8EB6CE;" d="M377.624,389.43L377.624,389.43c1.473,0,2.667-1.194,2.667-2.667V202.122
		c0-1.473-1.194-2.667-2.667-2.667l0,0c-1.473,0-2.667,1.194-2.667,2.667v184.642C374.957,388.236,376.151,389.43,377.624,389.43z"
		/>
	<rect x="365.402" y="385.492" style="fill:#8EB6CE;" width="46.445" height="11.272"/>
	<rect x="365.402" y="192.122" style="fill:#8EB6CE;" width="46.445" height="11.272"/>
	<rect x="38.515" y="192.122" style="fill:#AACCE5;" width="39" height="204.642"/>
	<path style="fill:#8EB6CE;" d="M69.015,389.43L69.015,389.43c1.473,0,2.667-1.194,2.667-2.667V202.122
		c0-1.473-1.194-2.667-2.667-2.667l0,0c-1.473,0-2.667,1.194-2.667,2.667v184.642C66.348,388.236,67.542,389.43,69.015,389.43z"/>
	<path style="fill:#8EB6CE;" d="M58.015,389.43L58.015,389.43c1.473,0,2.667-1.194,2.667-2.667V202.122
		c0-1.473-1.194-2.667-2.667-2.667l0,0c-1.473,0-2.667,1.194-2.667,2.667v184.642C55.348,388.236,56.542,389.43,58.015,389.43z"/>
	<path style="fill:#8EB6CE;" d="M47.015,389.43L47.015,389.43c1.473,0,2.667-1.194,2.667-2.667V202.122
		c0-1.473-1.194-2.667-2.667-2.667l0,0c-1.473,0-2.667,1.194-2.667,2.667v184.642C44.348,388.236,45.542,389.43,47.015,389.43z"/>
	<rect x="34.793" y="385.492" style="fill:#8EB6CE;" width="46.445" height="11.272"/>
	<rect x="34.793" y="192.122" style="fill:#8EB6CE;" width="46.445" height="11.272"/>
	<g>
		<path style="fill:#8EB6CE;" d="M177.978,156.727c-0.021-0.021-0.166-0.208-0.748-0.561c-0.498-0.291-1.309-0.498-2.285-0.498
			h-1.35v6.212c0,6.045,0.083,6.128,0.519,6.96l0.187,0.353c0,0-0.499-0.042-1.724-0.042s-1.745,0.042-1.745,0.042l0.187-0.353
			c0.416-0.79,0.519-0.935,0.519-7.167v-6.004h-1.35c-0.977,0-1.787,0.208-2.285,0.498c-0.54,0.333-0.727,0.519-0.748,0.561
			c0-0.021,0.062-0.436,0.062-1.267c0-0.748-0.021-1.08-0.021-1.08h10.741c0,0-0.021,0.332-0.021,1.08
			C177.916,156.291,177.978,156.686,177.978,156.727z"/>
		<path style="fill:#8EB6CE;" d="M194.595,169.15c-1.225,0-1.745,0.042-1.745,0.042l0.187-0.353
			c0.395-0.769,0.519-0.977,0.519-6.523h-6.876c0,5.567,0.083,5.713,0.519,6.523l0.187,0.353c0,0-0.499-0.042-1.724-0.042
			c-1.226,0-1.745,0.042-1.745,0.042l0.187-0.353c0.415-0.79,0.519-0.935,0.519-7.167c0-6.045-0.083-6.128-0.519-6.96l-0.187-0.353
			c0,0,0.499,0.042,1.724,0.042c1.247,0,1.745-0.042,1.745-0.042l-0.187,0.353c-0.395,0.748-0.519,0.956-0.519,6.066h6.876
			c0-5.09-0.104-5.277-0.519-6.066l-0.187-0.353c0,0,0.499,0.042,1.724,0.042c1.247,0,1.745-0.042,1.745-0.042l-0.187,0.353
			c-0.416,0.789-0.519,0.935-0.519,7.167c0,6.045,0.083,6.128,0.519,6.96l0.187,0.353C196.319,169.192,195.82,169.15,194.595,169.15
			z"/>
		<path style="fill:#8EB6CE;" d="M212.395,168.548l-0.042,0.623h-7.126c-1.122,0-1.6,0.021-1.6,0.021l0.187-0.353
			c0.415-0.79,0.519-0.935,0.519-7.167c0-6.045-0.083-6.128-0.519-6.96l-0.187-0.353c0,0,0.457,0.021,1.579,0.021h6.939
			c0,0-0.021,0.332-0.021,1.08c0,0.831,0.062,1.226,0.062,1.267c-0.021-0.021-0.166-0.208-0.748-0.561
			c-0.499-0.291-1.309-0.457-2.285-0.457h-2.742v5.381h2.244c0.976,0,1.787-0.104,2.285-0.395c0.54-0.312,0.706-0.499,0.748-0.54
			c0,0.021-0.063,0.623-0.063,1.621c0,0.956,0.063,1.558,0.063,1.6c-0.021-0.021-0.166-0.208-0.748-0.561
			c-0.498-0.291-1.309-0.395-2.285-0.395h-2.244v5.422h2.534c2.576,0,2.909-0.602,3.677-1.724
			C212.623,166.117,212.52,166.865,212.395,168.548z"/>
		<path style="fill:#8EB6CE;" d="M229.012,169.15c-1.143,0-1.973,0.042-1.973,0.042c0.269-0.187,0.665-0.54,0.665-1.309
			c0-0.706-0.395-1.994-0.81-3.469l-0.374-1.309h-4.633l-0.374,1.309c-0.436,1.496-0.81,2.763-0.81,3.469
			c0,0.769,0.416,1.122,0.686,1.309c0,0-0.727-0.042-1.849-0.042c-1.184,0-1.766,0.042-1.766,0.042
			c0.769-0.748,1.142-2.057,2.057-4.923l2.701-8.663c0.083-0.249,0.166-0.499,0.166-0.769s-0.104-0.395-0.145-0.436h3.926
			c0,0.021-0.125,0.145-0.125,0.436c0,0.27,0.062,0.519,0.145,0.769l2.535,8.663c0.851,2.888,1.226,4.176,1.994,4.923
			C231.027,169.192,230.258,169.15,229.012,169.15z M224.67,156.665c-0.229-0.831-0.395-1.371-0.437-1.558
			c-0.042,0.145-0.187,0.665-0.457,1.558l-1.496,5.069h3.864L224.67,156.665z"/>
		<path style="fill:#8EB6CE;" d="M246.21,156.727c-0.02-0.021-0.166-0.208-0.748-0.561c-0.498-0.291-1.309-0.498-2.285-0.498h-1.35
			v6.212c0,6.045,0.083,6.128,0.52,6.96l0.186,0.353c0,0-0.498-0.042-1.724-0.042s-1.745,0.042-1.745,0.042l0.187-0.353
			c0.415-0.79,0.52-0.935,0.52-7.167v-6.004h-1.35c-0.977,0-1.787,0.208-2.285,0.498c-0.54,0.333-0.727,0.519-0.748,0.561
			c0-0.021,0.062-0.436,0.062-1.267c0-0.748-0.021-1.08-0.021-1.08h10.74c0,0-0.021,0.332-0.021,1.08
			C246.147,156.291,246.21,156.686,246.21,156.727z"/>
		<path style="fill:#8EB6CE;" d="M260.916,168.548l-0.042,0.623h-7.126c-1.122,0-1.6,0.021-1.6,0.021l0.187-0.353
			c0.415-0.79,0.519-0.935,0.519-7.167c0-6.045-0.083-6.128-0.519-6.96l-0.187-0.353c0,0,0.457,0.021,1.579,0.021h6.939
			c0,0-0.021,0.332-0.021,1.08c0,0.831,0.062,1.226,0.062,1.267c-0.021-0.021-0.166-0.208-0.748-0.561
			c-0.498-0.291-1.309-0.457-2.285-0.457h-2.742v5.381h2.243c0.977,0,1.787-0.104,2.285-0.395c0.54-0.312,0.706-0.499,0.748-0.54
			c0,0.021-0.062,0.623-0.062,1.621c0,0.956,0.062,1.558,0.062,1.6c-0.021-0.021-0.167-0.208-0.748-0.561
			c-0.498-0.291-1.309-0.395-2.285-0.395h-2.243v5.422h2.534c2.576,0,2.909-0.602,3.677-1.724
			C261.144,166.117,261.04,166.865,260.916,168.548z"/>
		<path style="fill:#8EB6CE;" d="M278.197,169.254c-1.433,0-1.953-0.644-2.93-2.16l-1.495-2.306c-1.289-1.994-1.516-2.41-2.639-2.41
			c-0.186,0-0.353,0.021-0.353,0.021c0,5.277,0.084,5.609,0.519,6.44l0.187,0.353c0,0-0.498-0.042-1.704-0.042
			c-1.204,0-1.724,0.042-1.724,0.042l0.187-0.353c0.394-0.769,0.519-0.935,0.519-7.167c0-6.045-0.083-6.128-0.519-6.96l-0.187-0.353
			c0,0,0.603,0.042,1.455,0.042c0.602,0,1.641-0.042,2.389-0.042c2.41,0,5.547,0.187,5.547,3.739c0,1.683-0.914,3.968-4.57,3.926
			c1.766,0.229,2.41,1.184,3.49,2.971l0.997,1.641c0.727,1.205,1.267,2.077,2.119,2.451
			C279.485,169.088,279.193,169.254,278.197,169.254z M271.819,155.605c-0.561,0-1.039,0.042-1.039,0.042v5.484
			c0,0,0.416,0.042,1.205,0.042c0.249,0,0.893-0.042,1.246-0.083c1.08-0.166,1.974-1.06,1.974-2.763
			C275.205,155.875,273.709,155.605,271.819,155.605z"/>
	</g>
	<g>
		<g>
			<path style="fill:#FFFFFF;" d="M219.689,103.938L219.689,103.938c-12.458,7.142-28.346,2.832-35.487-9.625l-17.905-31.232l0,0
				c16.88-2.311,32.313-10.775,43.335-23.767l1.778-2.095l17.904,31.232C236.456,80.909,232.146,96.797,219.689,103.938z"/>
			<g>
				<path style="fill:#2D4151;" d="M199.917,77.988c0,0-0.065,0.025-0.186,0.072c-0.12,0.041-0.302,0.131-0.523,0.188
					c-0.226,0.055-0.496,0.16-0.755,0.26c-0.257,0.102-0.546,0.217-0.862,0.343c-0.311,0.11-0.632,0.246-0.958,0.392
					c-0.33,0.114-0.652,0.312-0.99,0.435c-0.324,0.184-0.664,0.315-0.988,0.502c-0.336,0.157-0.646,0.367-0.981,0.53
					c-0.31,0.206-0.645,0.372-0.951,0.581c-0.322,0.188-0.611,0.411-0.93,0.6c-0.277,0.228-0.61,0.407-0.875,0.634
					c-0.292,0.207-0.57,0.415-0.823,0.627c-0.273,0.2-0.516,0.402-0.741,0.589c-0.222,0.188-0.442,0.353-0.601,0.505
					c-0.158,0.151-0.327,0.263-0.424,0.346c-0.103,0.083-0.158,0.127-0.158,0.127s-0.017-0.066-0.049-0.191
					c-0.027-0.124-0.091-0.317-0.117-0.553c-0.041-0.241-0.077-0.537-0.048-0.862c0.009-0.333,0.023-0.721,0.126-1.116
					c0.044-0.201,0.1-0.409,0.159-0.627c0.074-0.208,0.165-0.418,0.256-0.64c0.175-0.449,0.457-0.863,0.743-1.306
					c0.327-0.403,0.661-0.844,1.092-1.192c0.399-0.387,0.876-0.691,1.352-0.993c0.501-0.258,1.006-0.512,1.541-0.662
					c0.518-0.192,1.066-0.262,1.58-0.337c0.527-0.024,1.027-0.057,1.502,0.019c0.473,0.048,0.91,0.145,1.303,0.282
					c0.386,0.109,0.748,0.294,1.047,0.456c0.311,0.141,0.532,0.321,0.704,0.473c0.181,0.138,0.314,0.291,0.408,0.376
					C199.867,77.94,199.917,77.988,199.917,77.988z"/>
				<path style="fill:#2D4151;" d="M219.029,67.031c0,0-0.065,0.025-0.186,0.072c-0.12,0.041-0.302,0.131-0.523,0.188
					c-0.226,0.055-0.496,0.16-0.755,0.26c-0.257,0.102-0.546,0.217-0.862,0.343c-0.311,0.11-0.632,0.246-0.958,0.392
					c-0.33,0.114-0.652,0.312-0.99,0.435c-0.324,0.184-0.664,0.315-0.988,0.502c-0.336,0.157-0.646,0.367-0.981,0.53
					c-0.31,0.206-0.645,0.372-0.951,0.581c-0.322,0.188-0.611,0.411-0.93,0.6c-0.277,0.228-0.61,0.407-0.875,0.634
					c-0.292,0.207-0.57,0.415-0.823,0.627c-0.273,0.2-0.516,0.402-0.741,0.589c-0.222,0.188-0.442,0.353-0.601,0.505
					c-0.158,0.151-0.327,0.263-0.424,0.346c-0.103,0.083-0.158,0.127-0.158,0.127s-0.017-0.066-0.049-0.191
					c-0.027-0.124-0.091-0.317-0.117-0.553c-0.041-0.241-0.077-0.537-0.048-0.862c0.009-0.333,0.023-0.721,0.126-1.116
					c0.044-0.201,0.1-0.409,0.159-0.627c0.074-0.208,0.165-0.418,0.256-0.64c0.175-0.449,0.457-0.863,0.744-1.306
					c0.327-0.403,0.661-0.844,1.092-1.192c0.399-0.387,0.876-0.691,1.352-0.993c0.501-0.258,1.006-0.512,1.541-0.662
					c0.518-0.192,1.067-0.262,1.58-0.337c0.527-0.024,1.027-0.057,1.502,0.019c0.473,0.048,0.91,0.145,1.302,0.282
					c0.386,0.109,0.748,0.294,1.048,0.456c0.311,0.141,0.532,0.321,0.704,0.473c0.181,0.138,0.314,0.291,0.408,0.376
					C218.98,66.983,219.029,67.031,219.029,67.031z"/>
			</g>
			<path style="fill:#2D4151;" d="M195.127,93.58c0,0,0.582-0.059,1.583-0.083c0.25-0.005,0.527-0.012,0.828-0.018
				c0.296-0.043,0.607-0.061,0.938-0.094c0.661-0.058,1.382-0.115,2.186-0.265c0.395-0.057,0.806-0.117,1.232-0.179
				c0.418-0.094,0.849-0.191,1.293-0.29c0.889-0.14,1.782-0.499,2.718-0.724c0.904-0.364,1.86-0.636,2.769-1.085
				c0.938-0.374,1.821-0.892,2.73-1.356c0.86-0.55,1.751-1.053,2.548-1.673c0.844-0.56,1.564-1.244,2.333-1.843
				c0.667-0.694,1.427-1.283,1.997-1.98c0.31-0.333,0.612-0.656,0.903-0.969c0.269-0.336,0.528-0.661,0.777-0.973
				c0.533-0.612,0.955-1.223,1.343-1.771c0.198-0.272,0.37-0.534,0.557-0.769c0.156-0.249,0.298-0.478,0.427-0.685
				c0.521-0.833,0.872-1.318,0.872-1.318s-0.011,0.572-0.123,1.587c-0.03,0.255-0.064,0.537-0.1,0.845
				c-0.058,0.301-0.151,0.618-0.236,0.965c-0.09,0.348-0.186,0.718-0.287,1.109c-0.097,0.396-0.288,0.771-0.441,1.189
				c-0.174,0.411-0.355,0.839-0.542,1.282c-0.236,0.42-0.48,0.854-0.73,1.3c-0.48,0.918-1.189,1.743-1.866,2.652
				c-0.776,0.813-1.542,1.715-2.494,2.434c-0.886,0.804-1.934,1.421-2.949,2.085c-1.085,0.54-2.148,1.13-3.29,1.488
				c-1.103,0.454-2.267,0.664-3.361,0.92c-1.126,0.125-2.196,0.319-3.231,0.269c-0.511-0.009-1.009-0.018-1.49-0.027
				c-0.477-0.062-0.938-0.122-1.38-0.18c-0.44-0.079-0.853-0.102-1.253-0.22c-0.394-0.11-0.767-0.215-1.118-0.314
				c-0.346-0.101-0.668-0.184-0.958-0.285c-0.276-0.122-0.529-0.234-0.758-0.336C195.64,93.861,195.127,93.58,195.127,93.58z"/>
		</g>
		<g>
			<path style="fill:#E6E6E6;" d="M239.019,106.184L239.019,106.184c-13.859-3.759-22.046-18.041-18.287-31.899l9.424-34.745l0,0
				c14.373,10.684,32.249,15.55,50.054,13.627l0.133-0.014l-9.424,34.745C267.159,101.756,252.878,109.943,239.019,106.184z"/>
			<g>
				<path style="fill:#2D4151;" d="M251.907,74.891c0,0,0.064,0.028,0.183,0.08c0.114,0.056,0.306,0.121,0.502,0.237
					c0.199,0.121,0.464,0.237,0.717,0.35c0.254,0.109,0.54,0.232,0.852,0.367c0.298,0.142,0.62,0.273,0.955,0.4
					c0.314,0.153,0.682,0.241,1.008,0.392c0.359,0.099,0.692,0.246,1.054,0.343c0.348,0.126,0.717,0.197,1.068,0.319
					c0.365,0.073,0.719,0.194,1.083,0.262c0.361,0.094,0.723,0.141,1.082,0.234c0.357,0.034,0.719,0.144,1.067,0.17
					c0.352,0.06,0.697,0.11,1.025,0.138c0.334,0.052,0.649,0.081,0.941,0.108c0.29,0.024,0.562,0.063,0.782,0.067
					c0.219,0.005,0.417,0.046,0.545,0.055c0.132,0.014,0.202,0.022,0.202,0.022s-0.035,0.059-0.1,0.17
					c-0.069,0.106-0.16,0.289-0.308,0.473c-0.142,0.199-0.325,0.434-0.576,0.643c-0.242,0.229-0.526,0.493-0.878,0.7
					c-0.173,0.111-0.36,0.218-0.556,0.331c-0.2,0.095-0.413,0.179-0.634,0.272c-0.441,0.194-0.934,0.287-1.449,0.398
					c-0.516,0.053-1.065,0.129-1.615,0.071c-0.556-0.008-1.108-0.131-1.658-0.253c-0.537-0.172-1.073-0.349-1.558-0.622
					c-0.502-0.231-0.939-0.569-1.356-0.879c-0.389-0.356-0.766-0.686-1.049-1.076c-0.301-0.368-0.541-0.746-0.721-1.121
					c-0.196-0.35-0.321-0.737-0.418-1.063c-0.12-0.32-0.149-0.603-0.163-0.833c-0.03-0.226-0.016-0.428-0.023-0.555
					C251.908,74.96,251.907,74.891,251.907,74.891z"/>
				<path style="fill:#2D4151;" d="M230.645,69.124c0,0,0.064,0.028,0.183,0.08c0.114,0.056,0.306,0.121,0.502,0.237
					c0.199,0.121,0.464,0.237,0.717,0.35c0.254,0.109,0.54,0.232,0.852,0.367c0.298,0.142,0.62,0.273,0.955,0.4
					c0.314,0.153,0.682,0.241,1.007,0.392c0.359,0.099,0.692,0.246,1.054,0.343c0.348,0.126,0.717,0.197,1.068,0.319
					c0.365,0.073,0.719,0.194,1.083,0.262c0.361,0.094,0.723,0.141,1.082,0.234c0.357,0.034,0.719,0.144,1.067,0.17
					c0.352,0.06,0.697,0.11,1.025,0.138c0.334,0.052,0.649,0.081,0.941,0.108c0.29,0.024,0.562,0.063,0.782,0.067
					c0.219,0.005,0.417,0.046,0.545,0.055c0.132,0.014,0.202,0.022,0.202,0.022s-0.035,0.059-0.1,0.17
					c-0.069,0.106-0.159,0.289-0.308,0.473c-0.142,0.199-0.325,0.434-0.576,0.643c-0.242,0.229-0.526,0.493-0.878,0.7
					c-0.173,0.111-0.36,0.218-0.556,0.331c-0.2,0.095-0.413,0.179-0.634,0.272c-0.441,0.194-0.934,0.287-1.449,0.398
					c-0.516,0.053-1.065,0.129-1.615,0.071c-0.556-0.008-1.108-0.131-1.658-0.253c-0.537-0.172-1.073-0.349-1.558-0.622
					c-0.502-0.231-0.939-0.569-1.356-0.879c-0.389-0.356-0.766-0.686-1.049-1.076c-0.301-0.368-0.541-0.746-0.721-1.121
					c-0.196-0.35-0.321-0.737-0.419-1.063c-0.12-0.32-0.149-0.603-0.163-0.833c-0.03-0.226-0.016-0.428-0.023-0.555
					C230.646,69.193,230.645,69.124,230.645,69.124z"/>
			</g>
			<path style="fill:#2D4151;" d="M257.926,98.197c0,0-0.453-0.37-1.178-1.061c-0.181-0.173-0.381-0.364-0.599-0.573
				c-0.239-0.179-0.472-0.386-0.73-0.597c-0.508-0.427-1.058-0.895-1.733-1.359c-0.32-0.239-0.653-0.488-0.998-0.745
				c-0.362-0.229-0.735-0.466-1.119-0.709c-0.728-0.529-1.613-0.907-2.434-1.41c-0.897-0.382-1.765-0.866-2.725-1.191
				c-0.927-0.399-1.918-0.657-2.889-0.971c-0.997-0.219-1.983-0.494-2.984-0.619c-0.993-0.2-1.986-0.226-2.952-0.347
				c-0.962,0.019-1.917-0.102-2.812-0.012c-0.454,0.016-0.897,0.031-1.324,0.046c-0.428,0.048-0.841,0.094-1.237,0.138
				c-0.81,0.056-1.541,0.189-2.202,0.303c-0.332,0.053-0.64,0.116-0.937,0.15c-0.286,0.066-0.549,0.127-0.786,0.182
				c-0.958,0.221-1.548,0.315-1.548,0.315s0.413-0.397,1.21-1.035c0.202-0.159,0.425-0.335,0.668-0.527
				c0.254-0.172,0.543-0.33,0.849-0.515c0.31-0.183,0.639-0.377,0.987-0.581c0.349-0.212,0.748-0.342,1.153-0.529
				c0.413-0.168,0.844-0.343,1.29-0.524c0.464-0.13,0.943-0.264,1.435-0.403c0.989-0.31,2.073-0.392,3.194-0.556
				c1.123-0.026,2.303-0.123,3.485,0.042c1.195,0.058,2.373,0.363,3.559,0.611c1.149,0.386,2.318,0.72,3.379,1.274
				c1.101,0.458,2.073,1.133,3.027,1.726c0.885,0.707,1.779,1.327,2.475,2.094c0.355,0.368,0.701,0.726,1.035,1.072
				c0.293,0.381,0.577,0.75,0.849,1.103c0.256,0.367,0.531,0.675,0.731,1.042c0.2,0.356,0.39,0.695,0.569,1.013
				c0.173,0.316,0.343,0.602,0.475,0.879c0.109,0.281,0.209,0.54,0.299,0.773C257.762,97.636,257.926,98.197,257.926,98.197z"/>
		</g>
	</g>
	<rect x="220.723" y="280.097" style="fill:#8EB6CE;" width="5.194" height="116.667"/>
	<circle style="fill:#8EB6CE;" cx="214.513" cy="348.825" r="3.333"/>
	<circle style="fill:#8EB6CE;" cx="233.18" cy="348.825" r="3.333"/>
	<g>
		<rect x="35.82" y="159.307" style="fill:#96BED6;" width="81" height="5"/>
		<rect x="35.82" y="146.492" style="fill:#96BED6;" width="81" height="5"/>
		<rect x="35.82" y="172.122" style="fill:#96BED6;" width="81" height="5"/>
		<rect x="329.82" y="159.307" style="fill:#96BED6;" width="81" height="5"/>
		<rect x="329.82" y="146.492" style="fill:#96BED6;" width="81" height="5"/>
		<rect x="329.82" y="172.122" style="fill:#96BED6;" width="81" height="5"/>
	</g>
	<g>
		<rect x="165.486" y="230.106" style="fill:#96BED6;" width="115.667" height="5"/>
		<rect x="165.486" y="217.291" style="fill:#96BED6;" width="115.667" height="5"/>
		<rect x="165.486" y="242.921" style="fill:#96BED6;" width="115.667" height="5"/>
	</g>
</g>
<g>
</g>
<g>
</g>
<g>
</g>
<g>
</g>
<g>
</g>
<g>
</g>
<g>
</g>
<g>
</g>
<g>
</g>
<g>
</g>
<g>
</g>
<g>
</g>
<g>
</g>
<g>
</g>
<g>
</g>
</svg>
