<?xml version="1.0" encoding="iso-8859-1"?>
<!-- Generator: Adobe Illustrator 19.0.0, SVG Export Plug-In . SVG Version: 6.00 Build 0)  -->
<svg version="1.1" id="Capa_1" xmlns="http://www.w3.org/2000/svg" xmlns:xlink="http://www.w3.org/1999/xlink" x="0px" y="0px"
	 viewBox="0 0 512 512" style="enable-background:new 0 0 512 512;" xml:space="preserve">
<path style="fill:#FFB037;" d="M256,0l-70,256l70,256l167.6-139.664c17.413-14.313,27.4-35.437,27.4-57.961V0H256z"/>
<path style="fill:#FFD237;" d="M61,0v314.375c0,22.522,9.985,43.644,27.396,57.958L256,512V0H61z"/>
<path style="fill:#D5011D;" d="M421,30l-71.019,20.958l30,318.677l24.539-20.449c10.473-8.594,16.48-21.282,16.48-34.811L421,30
	L421,30z"/>
<polygon style="fill:#EFF6F9;" points="308.962,88.271 338.962,403.816 379.981,369.634 379.981,50.958 "/>
<polygon style="fill:#D5011D;" points="267.944,125.583 297.944,437.997 338.962,403.816 338.962,88.271 "/>
<polygon style="fill:#EFF6F9;" points="226,163.738 256,472.95 297.944,437.997 297.944,125.583 "/>
<polygon style="fill:#FF0021;" points="215.906,439.539 256,472.95 256,163.738 200.906,200 "/>
<polygon style="fill:#FFFFFF;" points="159.887,237.522 174.887,405.357 215.906,439.539 215.906,200.209 "/>
<polygon style="fill:#FF0021;" points="118.868,274.835 133.868,371.176 174.887,405.357 174.887,237.522 "/>
<path style="fill:#FFFFFF;" d="M92.85,327.148c2.522,8.545,7.551,16.229,14.63,22.038l26.388,21.99v-96.341L92.85,327.148z"/>
<polygon style="fill:#014059;" points="256,30 206,104.369 256,178.738 421,30 "/>
<path style="fill:#015E82;" d="M256,30H91v284.375c0,4.384,0.641,8.676,1.85,12.773L256,178.738V30z"/>
<polygon style="fill:#EFF6F9;" points="256,60 226,99.091 256,138.182 341.947,60 "/>
<polygon style="fill:#FFFFFF;" points="121,60 121,260.985 256,138.182 256,60 "/>
<g>
</g>
<g>
</g>
<g>
</g>
<g>
</g>
<g>
</g>
<g>
</g>
<g>
</g>
<g>
</g>
<g>
</g>
<g>
</g>
<g>
</g>
<g>
</g>
<g>
</g>
<g>
</g>
<g>
</g>
</svg>
